<svg width="45" height="45" viewBox="0 0 45 45" fill="none" xmlns="http://www.w3.org/2000/svg">
<path d="M22.0695 4.55119C11.9225 4.55119 3.69678 7.02487 3.69678 10.0763C3.69678 10.0964 3.69713 10.1165 3.69784 10.1365C4.02846 10.43 4.46966 10.7418 5.04052 11.0595C6.1129 11.6564 7.53199 12.2127 9.24794 12.6874C12.6772 13.6361 17.1495 14.2202 22.0695 14.2202C26.9895 14.2202 31.4618 13.6361 34.891 12.6874C36.6069 12.2127 38.026 11.6564 39.0984 11.0595C39.6692 10.7418 40.1105 10.43 40.4411 10.1365C40.4418 10.1165 40.4422 10.0964 40.4422 10.0763C40.4422 7.02487 32.2164 4.55119 22.0695 4.55119Z" fill="pink"/>
<path d="M39.1802 14.1001C38.1258 14.5717 36.9287 14.9895 35.624 15.3504C31.9113 16.3776 27.186 16.9827 22.0694 16.9827C16.9547 16.9827 12.2312 16.378 8.51904 15.3516C11.5858 18.433 15.4463 22.735 17.4762 26.6517C17.775 27.2282 18.0627 27.8514 18.3383 28.505C19.9992 28.7899 21.8899 28.9538 23.9067 28.9538C24.6677 28.9538 25.2846 29.5722 25.2846 30.3351C25.2846 31.0979 24.6677 31.7163 23.9067 31.7163C22.3534 31.7163 20.8529 31.6258 19.4474 31.4567C20.2314 33.7752 20.8674 36.1579 21.3165 38.0079C21.6646 39.4415 23.4547 39.964 24.456 38.8824C27.1886 35.9305 31.598 30.8886 34.0116 26.6517C34.5648 25.6805 35.1079 24.5853 35.6281 23.4376C33.3357 24.0174 30.5554 24.3496 27.5812 24.3496C26.8202 24.3496 26.2032 23.7312 26.2032 22.9684C26.2032 22.2053 26.8202 21.5869 27.5812 21.5869C30.6715 21.5869 33.4658 21.2022 35.591 20.5863C36.1241 20.4318 36.6061 20.2654 37.0345 20.091C37.898 17.892 38.6406 15.7433 39.1802 14.1001Z" fill="pink"/>
</svg>
