<svg xmlns="http://www.w3.org/2000/svg" viewBox="0 0 512 512" id="champagne"><path fill="#e9eef2" d="M232 160h80v136a40 40 0 0 1-40 40 40 40 0 0 1-40-40V160zm144 0h80v136a40 40 0 0 1-40 40 40 40 0 0 1-40-40V160z"></path><path fill="#20754d" d="M136 88H88S68.017 207.9 46.286 265.351A98.6 98.6 0 0 0 40 300.246V456a32 32 0 0 0 32 32h80a32 32 0 0 0 32-32V300.246a98.6 98.6 0 0 0-6.286-34.895C155.983 207.9 136 88 136 88Z"></path><path fill="#e9eef2" d="M256 328h32v128h-32zM400 328h32v128h-32z"></path><path fill="#35a872" d="M182.13 280.91c-64.57 31.18-128.64 5.2-140.26-.03v-.01a96.353 96.353 0 0 1 4.42-15.52c7.83-20.69 15.42-49.47 21.94-77.83L112 224l43.77-36.48c6.52 28.36 14.11 57.14 21.94 77.83a94.8 94.8 0 0 1 4.42 15.56Z"></path><ellipse cx="112" cy="224" fill="#f7b030" rx="16" ry="32"></ellipse><path fill="#f7b030" d="M40 328h144v128H40zM136 40v16H88V40a16 16 0 0 1 16-16h16a16 16 0 0 1 16 16Z"></path><path fill="#bd620e" d="M88 56h48v32H88z"></path><path fill="#f7b030" d="M312 200v96a40 40 0 0 1-80 0v-80s15.46-14.14 40-8c32 8 40-8 40-8zm144 0v96a40 40 0 0 1-80 0v-80s15.46-14.14 40-8c32 8 40-8 40-8z"></path><path fill="#d0d2d4" d="M392 456h48a32 32 0 0 1 32 32H360a32 32 0 0 1 32-32zm-144 0h48a32 32 0 0 1 32 32H216a32 32 0 0 1 32-32z"></path><path fill="#eb423f" d="M385.341 54.677a22.695 22.695 0 0 0-32.155 0L344 63.892l-9.186-9.215a22.695 22.695 0 0 0-32.155 0 22.861 22.861 0 0 0 0 32.257l38.59 38.711A23.06 23.06 0 0 0 344 128a23.06 23.06 0 0 0 2.751-2.355l38.59-38.711a22.861 22.861 0 0 0 0-32.257Z"></path></svg>