<svg version="1.1" id="Layer_1" xmlns="http://www.w3.org/2000/svg" xmlns:xlink="http://www.w3.org/1999/xlink" x="0px" y="0px"
	 width="100%" viewBox="0 0 592 768" enable-background="new 0 0 592 768" xml:space="preserve">
<path fill="#000000" opacity="1.000000" stroke="none" 
	d="
M251.021454,329.041992 
	C246.645691,317.323639 240.871475,306.240692 235.454025,294.999359 
	C234.730225,293.497467 233.907089,291.141968 231.614182,291.762665 
	C229.461823,292.345306 229.698532,294.638977 229.628647,296.440247 
	C229.420135,301.813202 230.784378,307.002502 231.630997,312.245697 
	C231.921631,314.045624 232.499222,315.773956 231.840897,317.684265 
	C229.359222,317.471954 229.044540,315.354553 228.331055,313.885529 
	C223.019318,302.948822 217.839417,291.948151 212.591599,280.980225 
	C211.519638,278.739838 211.593750,276.552795 212.266251,274.194580 
	C213.954803,268.273560 215.410507,262.286072 217.100708,256.365540 
	C217.664001,254.392365 217.899002,252.811417 215.220016,251.779587 
	C212.405075,256.144043 212.472961,261.298431 211.015625,265.947113 
	C208.087006,275.288910 208.021942,284.058777 213.523941,293.087189 
	C219.475967,302.854095 223.860596,313.579956 228.843246,323.928802 
	C229.438187,325.164459 230.872955,326.242798 229.893234,328.605194 
	C214.048859,318.132477 198.519196,307.474670 181.972397,298.398346 
	C185.549332,303.002716 190.796097,305.544952 195.282486,308.954285 
	C206.280533,317.311981 217.622787,325.218445 228.874512,333.239136 
	C230.988876,334.746338 232.087296,336.279327 231.236160,339.057617 
	C223.730362,363.558105 216.316605,388.086761 208.845963,412.598083 
	C208.668808,413.179352 208.146683,413.655487 206.987793,415.340454 
	C199.338898,388.604401 194.098083,362.295197 185.214706,336.991608 
	C192.027283,368.020081 198.839859,399.048553 205.652435,430.077057 
	C205.246643,430.370636 204.840836,430.664246 204.435028,430.957825 
	C199.008026,427.034668 193.533768,423.174927 188.164261,419.174561 
	C178.282349,411.812408 168.486786,404.334320 158.599503,396.979462 
	C155.959824,395.015839 154.606598,392.870117 155.288681,389.352875 
	C161.113998,359.314941 166.832855,329.256287 172.540283,299.195618 
	C172.979233,296.883698 173.141663,294.550690 177.695251,294.613190 
	C165.962723,282.848083 157.097275,269.970490 145.296265,259.673248 
	C151.995148,271.349518 161.854584,280.723785 169.506805,292.384979 
	C162.910980,294.096069 157.875900,291.143921 152.654892,290.128754 
	C116.433861,283.085724 80.268112,275.758820 44.073376,268.579742 
	C32.629520,266.309906 32.397610,266.261353 38.287956,256.291412 
	C45.048080,244.849258 49.937256,232.181503 59.012619,222.249130 
	C66.527756,214.024323 74.783707,206.477203 82.693008,198.611313 
	C85.149460,196.168304 87.517494,193.791290 89.233078,190.570877 
	C91.005554,187.243668 95.369446,186.784225 98.612946,185.329605 
	C126.110939,172.997589 153.736588,160.950287 181.320251,148.809158 
	C189.700668,145.120453 198.061935,141.388031 206.450912,137.718964 
	C207.933273,137.070633 209.321014,135.927994 212.066589,136.692612 
	C208.622482,151.596481 205.162781,166.567856 201.703079,181.539246 
	C202.224533,181.660461 202.745972,181.781677 203.267426,181.902893 
	C204.796753,180.337830 205.181229,178.185669 205.523819,176.152237 
	C207.651489,163.524017 212.103012,151.424744 213.848267,138.694046 
	C214.570862,133.423203 215.610229,133.230576 220.486359,135.796097 
	C234.356186,143.093536 234.459305,143.094803 234.264297,158.809647 
	C234.164673,166.836960 230.655579,174.207962 229.181610,182.001648 
	C227.700974,189.830536 225.375839,197.503021 223.337036,205.221924 
	C221.844376,210.873245 221.033829,211.130264 215.916046,208.071030 
	C213.347824,206.535843 210.740295,205.065582 208.127319,203.607605 
	C207.909088,203.485840 207.513229,203.682419 206.231110,203.881577 
	C209.161728,207.819763 212.825211,210.319641 216.386520,212.560104 
	C220.852524,215.369720 222.561249,218.311295 220.717148,223.645340 
	C218.990768,228.638901 218.252609,233.983368 217.217072,239.200699 
	C216.919739,240.698730 215.750519,242.314072 217.517288,244.202316 
	C220.108322,241.178391 223.181412,238.761078 221.330276,233.980682 
	C219.957443,230.435455 222.234085,227.163086 223.001434,223.812744 
	C226.789490,207.273346 230.795090,190.783340 234.504181,174.226685 
	C235.266281,170.824692 236.669159,169.241653 240.203552,169.657486 
	C250.618195,170.882843 261.032104,171.917877 271.196869,168.072525 
	C271.636658,167.906143 272.245941,167.867752 272.673004,168.034424 
	C285.667450,173.105194 299.305084,166.618607 312.509674,170.270798 
	C315.782959,171.176147 319.948120,169.070496 323.651459,168.142059 
	C326.809448,167.350372 329.988617,167.084015 333.023682,168.120819 
	C340.836212,170.789673 348.690735,170.221481 356.629364,169.021057 
	C364.425751,167.842148 364.720428,168.404907 366.435272,176.137833 
	C369.887573,191.705627 373.765076,207.178696 377.311676,222.726334 
	C378.206024,226.647186 378.891693,230.518494 378.115051,234.789749 
	C377.472015,238.326233 380.501862,241.215759 383.452759,244.261917 
	C384.132568,237.417908 381.350830,231.917297 380.255554,226.123291 
	C379.290771,221.019485 376.565277,215.694809 383.569733,211.131302 
	C378.187744,210.446213 377.700317,207.177246 376.964020,204.136581 
	C374.109589,192.348648 371.316589,180.523941 368.228485,168.821518 
	C366.305725,161.535156 366.043793,154.465439 365.872864,147.195694 
	C365.818726,144.893967 366.439911,142.919128 368.569366,141.667755 
	C372.877869,139.135834 377.153748,136.546890 381.503082,134.087540 
	C382.310333,133.631058 383.852936,133.170959 384.287140,133.563385 
	C388.046753,136.961319 393.169891,136.344849 397.527893,138.331818 
	C432.055298,154.073975 466.860352,169.208298 501.614319,184.451309 
	C507.122711,186.867264 511.287140,190.384399 515.303406,195.064377 
	C523.411499,204.512512 532.874268,212.785019 541.551819,221.761414 
	C549.059448,229.527634 552.732361,239.797363 558.442749,248.747864 
	C560.859863,252.536316 563.005615,256.499634 565.228638,260.409729 
	C567.930725,265.162567 567.564331,265.858398 561.702454,266.996765 
	C542.932678,270.641785 524.149780,274.219910 505.388031,277.905457 
	C482.211823,282.458160 459.050934,287.088959 435.886566,291.701874 
	C434.595825,291.958893 433.326447,292.571198 431.391968,291.015594 
	C436.842438,279.924896 447.894562,272.676208 453.011108,261.230621 
	C441.589447,270.897217 433.801819,283.765442 422.906250,294.334167 
	C427.666260,293.447632 427.551483,296.820862 428.000031,299.168732 
	C431.804688,319.083435 435.488251,339.021271 439.216370,358.950623 
	C441.080750,368.917145 442.860168,378.901428 444.898132,388.832489 
	C445.512299,391.825531 444.988586,393.892975 442.497070,395.750793 
	C427.941162,406.604462 413.452850,417.548798 398.934204,428.452423 
	C398.014954,429.142822 397.094147,429.931183 394.894226,429.292908 
	C399.997589,402.477417 407.236542,376.015106 411.967957,349.063965 
	C411.510986,348.950012 411.053986,348.836090 410.597015,348.722168 
	C405.129547,369.989990 399.662079,391.257782 393.921570,413.587738 
	C389.938354,408.975189 389.464142,404.393250 388.171478,400.285706 
	C381.977966,380.605255 376.166992,360.804321 369.961670,341.127716 
	C368.556000,336.670441 369.073730,333.901367 373.190948,331.115082 
	C384.635315,323.370239 395.772583,315.170715 406.999023,307.105988 
	C408.540985,305.998291 410.534821,305.199554 411.046417,301.783630 
	C396.556427,309.451294 384.349426,319.385040 370.002869,326.539398 
	C372.924164,320.523438 375.872009,314.520172 378.760315,308.488373 
	C382.787689,300.077728 386.742004,291.631958 390.790863,283.231750 
	C391.918091,280.893066 392.348785,278.619659 391.731934,276.011505 
	C389.752075,267.640503 387.939087,259.230042 386.020569,250.650803 
	C382.591919,251.107361 382.308044,252.644333 383.071564,255.208817 
	C385.398926,263.025696 386.883087,270.791840 386.006653,279.216644 
	C385.426025,284.798401 383.500610,289.595581 381.202972,294.237549 
	C376.191528,304.362183 372.360168,315.102356 365.885498,324.484833 
	C365.331818,325.287170 364.758575,326.075989 363.822845,327.394806 
	C361.843567,323.222565 361.423431,319.677917 363.412567,315.846100 
	C366.276917,310.328217 365.525757,306.254791 361.211792,303.216614 
	C355.908051,311.119965 353.437347,320.566345 348.038696,328.647125 
	C345.807617,326.703430 346.069397,324.731476 346.324615,322.766144 
	C348.340149,307.246521 349.568848,291.653259 350.722839,276.052368 
	C350.819977,274.739258 350.669312,272.749176 351.420013,272.245514 
	C358.520660,267.481506 351.641357,263.034821 350.813293,258.417023 
	C350.560944,261.587372 350.308594,264.757721 350.056244,267.928070 
	C349.594055,268.050262 349.131836,268.172455 348.669617,268.294647 
	C341.736786,249.483749 334.803955,230.672867 327.544373,210.975403 
	C325.742126,213.812912 326.658478,215.448105 327.209656,217.087784 
	C332.722015,233.486893 338.194733,249.899506 343.781982,266.273041 
	C344.841736,269.378632 344.541382,271.966858 342.704803,274.735657 
	C337.367279,282.782318 332.216736,290.953705 327.049805,299.112244 
	C326.006775,300.759186 324.530884,302.238190 324.418549,305.005005 
	C329.865936,301.609528 330.376862,293.850830 336.543365,292.310211 
	C345.842407,303.773895 346.414276,316.931519 344.347870,330.520630 
	C343.253632,337.716522 338.144073,342.952087 334.420197,348.769348 
	C330.401154,355.047729 326.928101,361.787354 321.408844,367.029877 
	C320.960785,367.455475 320.428314,368.218292 320.517761,368.720642 
	C322.207245,378.212036 316.734955,386.038452 314.379028,394.536652 
	C310.333984,409.127686 305.550354,423.514252 301.048492,437.977875 
	C300.619690,439.355469 299.990845,440.670776 299.443970,442.042297 
	C296.681702,441.499939 297.468628,438.509674 295.095184,437.193909 
	C296.356750,442.992126 293.987823,447.559937 291.855194,452.207092 
	C281.644867,474.455811 271.468536,496.720123 261.242584,518.961670 
	C260.504547,520.566956 260.046783,522.464783 256.714874,523.853271 
	C258.616943,505.190460 260.444824,487.255859 262.272705,469.321228 
	C258.865479,477.134216 259.058075,485.660461 256.737885,493.752197 
	C254.051529,487.761963 254.644821,481.394592 253.768723,475.276306 
	C252.379303,465.573425 251.519745,455.792633 250.534164,446.034882 
	C250.040039,441.142822 247.564255,438.778381 242.593689,438.194763 
	C236.209641,437.445221 235.866653,436.235382 239.401367,430.707123 
	C248.461197,416.537781 257.476288,402.339813 266.560120,388.185883 
	C267.509094,386.707306 268.071228,384.783539 270.304962,384.159302 
	C272.361908,386.065033 270.223480,388.532257 271.152832,391.072906 
	C272.386627,385.858124 272.222687,380.825287 275.194183,375.929810 
	C279.072144,387.898071 282.950073,399.866333 286.918945,412.115234 
	C288.974457,410.644012 287.959900,409.170166 287.603119,407.924500 
	C284.898529,398.482239 282.095917,389.068085 279.382904,379.628174 
	C278.484985,376.503937 276.774200,373.422760 279.002655,370.080505 
	C279.932678,368.685638 278.535675,367.646790 277.826172,366.565735 
	C271.521057,356.959106 265.329102,347.275513 258.858093,337.782074 
	C256.796570,334.757660 256.883698,331.166290 255.508804,327.990936 
	C253.948410,328.019775 253.294724,330.502533 251.268646,329.095215 
	C251.001724,329.010925 251.021454,329.041992 251.021454,329.041992 
M254.604385,303.355469 
	C254.364410,298.201447 253.956680,293.047363 253.957199,287.893372 
	C253.957458,285.421967 252.526733,281.657135 255.604385,280.806763 
	C258.635986,279.969147 260.374725,283.559784 261.681580,285.878296 
	C269.624817,299.970367 281.031708,311.633545 289.272064,325.506256 
	C289.856049,326.489410 290.607025,327.844849 292.324188,327.498840 
	C292.299225,325.645508 291.207062,324.378052 290.301605,323.005798 
	C280.029907,307.438477 269.895966,291.778046 259.429626,276.342865 
	C256.695221,272.310333 256.389465,268.731079 257.922638,264.235413 
	C263.241882,248.637878 268.263519,232.938507 273.356903,217.264404 
	C275.073364,211.982315 276.666168,206.660080 278.315521,201.356186 
	C277.849030,201.192291 277.382538,201.028397 276.916046,200.864487 
	C267.674225,223.276459 260.846558,246.660706 250.864105,268.829376 
	C248.845596,263.390991 252.026077,258.013855 250.266846,252.678741 
	C249.183807,253.200089 249.427872,254.146713 249.180557,254.874512 
	C247.546509,259.682983 249.162964,265.265259 245.563309,269.679657 
	C245.080750,270.271423 244.827194,272.894806 246.770264,272.754150 
	C250.114960,272.512085 249.178619,274.857666 249.362091,276.391907 
	C251.046906,290.479553 251.346436,304.736664 254.659714,319.633362 
	C254.985413,313.837219 253.473572,309.036652 254.604385,303.355469 
M362.978302,209.617706 
	C360.814148,201.740479 355.904205,195.376556 352.236145,189.004044 
	C345.753601,201.785675 344.953522,215.197357 348.456726,229.014069 
	C347.741699,223.250732 353.261047,220.403122 354.566315,215.611542 
	C354.681610,215.188370 355.811066,214.587967 356.150421,214.747696 
	C360.923584,216.994293 361.739410,213.359528 362.978302,209.617706 
M196.574188,162.109604 
	C199.631332,159.309448 201.421829,155.177994 198.989471,152.209213 
	C196.753647,149.480316 193.430328,153.072449 190.709106,154.285034 
	C189.809998,154.685699 189.017700,155.344009 189.088898,156.740585 
	C190.801300,159.068970 193.353943,160.555176 196.574188,162.109604 
M430.052826,267.898132 
	C432.399597,266.785675 433.685181,264.591156 435.243683,262.703369 
	C437.237366,260.288574 436.361481,258.743591 433.491333,258.250336 
	C431.330750,257.879028 428.760437,257.776520 427.746216,259.988220 
	C426.467377,262.776825 426.737061,265.748291 430.052826,267.898132 
M402.649719,158.831009 
	C405.356781,160.633514 407.377899,159.349304 409.005310,157.222641 
	C410.245880,155.601501 409.698486,153.973892 408.035858,153.022751 
	C405.990143,151.852432 403.852417,149.383286 401.398773,151.258163 
	C399.165802,152.964401 400.366150,155.434479 401.567444,157.504135 
	C401.731842,157.787369 401.959137,158.034103 402.649719,158.831009 
M268.802826,256.329834 
	C267.928741,255.085922 266.654785,254.608124 266.543518,256.499298 
	C266.278473,261.004852 265.720367,265.585236 267.061829,270.856232 
	C271.801025,266.196259 271.339417,261.682404 268.802826,256.329834 
M171.590225,259.755859 
	C168.702698,258.750671 165.917175,258.264130 163.725952,261.041504 
	C164.316040,263.331818 165.914642,264.595825 167.263428,266.007751 
	C169.814957,268.678802 171.552826,267.838959 172.515106,264.588104 
	C172.942261,263.145111 173.077682,261.659363 171.590225,259.755859 
M363.391083,223.917923 
	C365.592926,226.350830 367.253418,224.916016 368.572662,223.009735 
	C370.746735,219.868301 368.118805,218.036316 366.473602,215.555511 
	C363.945892,217.877548 359.008820,218.594833 363.391083,223.917923 
M300.960724,228.568726 
	C303.310760,228.798538 304.968567,228.096359 304.792053,225.388565 
	C304.659332,223.352066 304.155243,221.230728 301.913849,220.640823 
	C299.909241,220.113235 299.059875,221.855042 298.353546,223.382965 
	C297.289368,225.684998 297.406647,227.580124 300.960724,228.568726 
M301.551056,246.991547 
	C299.202393,247.926270 298.965729,250.190247 298.432953,252.179276 
	C298.096039,253.437241 298.095459,254.869873 299.606140,255.562637 
	C300.840637,256.128784 302.161133,256.189819 303.415009,255.617676 
	C304.902008,254.939117 304.991302,253.579651 304.668457,252.266052 
	C304.209656,250.399246 304.047150,248.337494 301.551056,246.991547 
M298.775818,303.409149 
	C297.625122,306.160828 298.081390,308.545410 301.247345,309.008728 
	C303.260468,309.303314 304.621826,307.211853 304.412018,305.379517 
	C304.066040,302.357605 301.890594,301.904938 298.775818,303.409149 
M251.764496,185.234680 
	C256.377777,178.218979 256.377777,178.218979 255.403595,176.368408 
	C252.676331,180.393707 250.101654,184.157974 248.535248,188.951736 
	C250.575211,188.357681 250.595581,186.759048 251.764496,185.234680 
M254.728622,208.473831 
	C254.728622,206.761673 254.728622,205.049500 254.728622,203.337341 
	C255.748230,209.034225 250.143951,213.763611 251.832504,219.538422 
	C254.362656,216.471497 254.222641,212.819366 254.728622,208.473831 
M297.298798,339.782501 
	C296.721039,341.168304 295.536316,342.416840 296.127594,344.544067 
	C298.401581,343.038696 300.350159,341.687012 303.154083,341.465698 
	C301.677307,338.578369 300.778168,335.837830 297.298798,339.782501 
M95.876282,192.886398 
	C96.799667,194.264572 97.789749,195.535156 99.822426,195.312073 
	C101.107155,193.751190 101.565186,191.893280 99.802650,190.679245 
	C98.217751,189.587585 96.305298,189.754303 95.876282,192.886398 
M390.916565,155.426941 
	C392.944824,151.912994 391.475830,149.051422 388.782745,145.026932 
	C388.257080,149.438644 389.917664,152.141663 390.916565,155.426941 
M333.638855,260.770142 
	C331.583740,263.012756 331.474945,265.127472 334.311768,267.807983 
	C335.454926,265.010254 336.684296,262.948364 333.638855,260.770142 
M200.963440,186.240067 
	C200.490921,188.000992 199.401596,189.823578 201.355301,191.514786 
	C203.796570,187.662430 203.742462,186.197830 200.963440,186.240067 
z"/>
<path fill="#000000" opacity="1.000000" stroke="none" 
	d="
M368.856812,618.151367 
	C370.564697,620.318726 373.171570,621.343628 373.873169,625.321106 
	C362.211060,625.321106 350.838867,625.599487 339.486725,625.242126 
	C328.345978,624.891357 317.045746,627.055603 305.307800,623.132996 
	C313.333954,599.593872 321.364929,576.040649 329.395874,552.487488 
	C332.631287,552.539307 331.676514,555.331421 333.662506,555.292725 
	C332.806335,543.207703 328.918823,531.713806 327.692627,519.766113 
	C326.590607,523.284790 327.653717,526.643799 328.078369,530.040955 
	C328.428925,532.845093 328.870575,535.647522 329.027130,538.464294 
	C329.452179,546.110718 328.986084,546.496338 321.451782,545.164062 
	C305.067444,542.267090 288.689484,539.333984 272.301086,536.460205 
	C270.873260,536.209839 269.388458,535.655396 267.078827,536.806824 
	C273.842590,539.090759 280.300690,539.438477 286.524445,540.754517 
	C298.685516,543.325867 310.881622,545.732666 323.072937,548.158752 
	C326.099762,548.761047 327.248474,550.135315 326.448029,553.399658 
	C325.564667,557.002258 323.966644,560.288086 322.699768,563.716553 
	C316.584839,580.264771 310.432709,596.799377 304.254944,613.324280 
	C303.516815,615.298767 303.093353,617.512573 301.095703,618.805603 
	C299.158173,618.599304 299.006348,616.820618 298.221710,615.665588 
	C297.003052,613.871338 296.576843,611.117310 293.172485,612.613037 
	C292.164612,613.055847 291.283905,611.494812 290.527039,610.626099 
	C285.603485,604.975037 280.850250,599.164062 275.717438,593.710266 
	C271.187775,588.897339 268.981018,583.189026 267.575043,576.911682 
	C266.303192,571.233215 264.350250,565.697754 263.262848,559.991577 
	C262.738953,557.242310 259.566864,554.267761 263.240173,551.154236 
	C263.674408,550.786194 261.841949,547.704224 261.018005,545.899658 
	C259.297577,542.131531 256.310303,538.983032 257.434540,534.024231 
	C257.847504,532.202698 258.294586,531.123474 259.585083,530.196655 
	C264.180817,526.895935 268.491669,523.196472 273.490967,520.456726 
	C275.638550,519.279846 277.567383,517.758789 279.032562,514.769348 
	C273.016266,515.822937 270.049133,521.296143 263.476776,522.443787 
	C275.587158,496.649963 287.280792,471.743805 298.974396,446.837677 
	C299.681763,446.891571 300.389130,446.945465 301.096466,446.999359 
	C310.872589,464.908234 323.221619,481.725708 323.373291,503.806396 
	C325.535065,503.274567 325.099945,501.936737 325.321716,500.984070 
	C325.572540,499.906708 324.763977,498.640167 326.092560,497.543518 
	C328.613037,498.646973 329.242340,501.567810 331.835632,502.969299 
	C328.963196,496.409088 326.176575,489.809631 323.199890,483.297058 
	C317.595154,471.034668 311.920166,458.803894 306.179047,446.604828 
	C305.027710,444.158325 305.033325,441.839111 305.792328,439.358185 
	C311.828705,419.627350 317.823517,399.883728 323.907715,380.167694 
	C324.421112,378.504059 324.623199,376.537903 326.468628,375.377960 
	C327.967743,377.175201 327.604736,379.497711 328.511292,381.625427 
	C329.686127,381.821442 331.075592,380.377563 332.358002,382.425354 
	C342.603973,398.786438 353.042145,415.027100 363.396851,431.320251 
	C363.637848,431.699432 363.591461,432.261230 363.718201,432.950439 
	C361.477600,434.882294 358.566833,435.043884 355.895020,435.579315 
	C351.997345,436.360413 350.509338,438.453217 350.116516,442.421753 
	C348.709167,456.638916 346.937958,470.820190 345.276245,485.011749 
	C345.149536,486.093811 345.444702,487.413849 343.377747,488.338470 
	C341.094543,482.102600 341.396790,475.424408 339.069275,469.215271 
	C342.886902,507.337769 347.684967,545.446960 339.139069,583.714417 
	C336.047089,577.338379 336.600800,570.046326 333.882629,563.581543 
	C334.758148,570.783447 335.393494,578.026184 336.607513,585.170532 
	C337.242340,588.906372 336.191833,591.536316 333.762756,594.167358 
	C327.773438,600.654663 321.942902,607.288452 316.042114,613.857605 
	C314.429260,615.653198 312.785553,617.423279 311.698425,620.286560 
	C315.002350,619.861450 316.550751,617.815735 318.287720,616.187988 
	C324.973724,609.922363 331.767883,603.757385 338.175964,597.216187 
	C341.447357,593.876831 343.729980,594.197266 346.852203,597.275085 
	C353.967194,604.288757 361.337891,611.043091 368.856812,618.151367 
M305.181061,497.549957 
	C306.031097,494.343445 303.876617,496.826630 303.720642,496.928406 
	C297.034851,501.290894 290.369080,505.685974 283.777405,510.189117 
	C282.429474,511.109924 280.751862,512.070251 280.810852,515.278198 
	C289.314758,509.213379 297.456329,504.167969 305.181061,497.549957 
z"/>
<path fill="#000000" opacity="1.000000" stroke="none" 
	d="
M462.909119,385.918213 
	C470.925934,377.269379 478.711487,368.891022 486.497009,360.512695 
	C486.132019,360.142303 485.766998,359.771912 485.401978,359.401489 
	C472.513214,369.238586 462.953918,382.635864 451.015228,393.628723 
	C447.928070,391.204010 448.587311,387.859833 448.097931,385.132874 
	C443.080780,357.176331 438.377502,329.163330 433.325226,301.213348 
	C432.549072,296.919708 434.045654,295.516754 437.819916,294.807770 
	C467.236053,289.281830 496.644073,283.712128 526.040649,278.083191 
	C537.308167,275.925659 548.533447,273.548431 559.792480,271.345642 
	C561.813660,270.950195 563.931274,270.051331 566.265137,271.573517 
	C565.232300,274.395996 562.465454,275.776337 561.067139,278.125000 
	C560.273315,279.458252 557.577820,280.914429 561.159851,282.752472 
	C562.972290,283.682495 560.857300,285.682404 560.291260,287.052368 
	C551.835571,307.516724 540.559143,326.071014 525.412170,342.484497 
	C510.965698,358.138794 497.627289,374.818939 483.909393,391.138580 
	C482.030853,393.373413 480.127045,394.519470 477.144592,394.436066 
	C470.682098,394.255402 464.211029,394.380402 457.494263,394.380402 
	C457.721710,390.126648 460.868713,388.593750 462.909119,385.918213 
M503.171631,314.224854 
	C509.848480,317.130646 510.736847,313.937286 512.580627,306.879852 
	C513.311584,304.081940 512.274109,301.831207 509.467743,300.930206 
	C506.426758,299.953857 503.172607,297.765656 500.166290,300.722870 
	C498.519928,302.342346 496.806030,305.127228 498.349091,306.902222 
	C500.229706,309.065491 500.990173,311.652893 503.171631,314.224854 
M489.253784,324.641602 
	C492.260315,321.514435 491.290558,313.087555 487.569794,311.391327 
	C485.507507,310.451080 483.012329,309.293365 480.987640,311.191559 
	C478.419434,313.599335 477.707458,317.049713 477.871063,320.356995 
	C477.995239,322.866425 480.110291,324.321960 482.653992,324.744446 
	C484.610565,325.069458 486.568787,325.673981 489.253784,324.641602 
M500.867676,345.342529 
	C504.647461,341.165100 508.240662,336.796967 512.259766,332.864105 
	C516.241699,328.967621 520.174622,325.114716 523.049561,320.351044 
	C516.692627,323.539703 496.571960,345.682709 496.267883,349.247772 
	C498.276062,348.841614 498.986572,346.916229 500.867676,345.342529 
z"/>
<path fill="#000000" opacity="1.000000" stroke="none" 
	d="
M103.356064,284.563416 
	C116.516762,287.052185 129.234970,289.565887 141.990372,291.874176 
	C148.190033,292.996124 154.455093,293.763519 160.698105,294.637238 
	C166.587204,295.461426 167.735794,297.102325 166.738968,302.860718 
	C161.894241,330.846893 157.112503,358.844025 152.281403,386.832550 
	C151.867691,389.229370 151.657455,391.716400 149.712967,395.041199 
	C114.249741,357.734131 79.199890,320.861938 44.150047,283.989716 
	C43.634499,284.468109 43.118946,284.946472 42.603397,285.424835 
	C75.920242,321.854034 110.337662,357.284180 144.748077,394.575226 
	C138.295929,395.794434 133.188065,394.841095 128.221008,395.411926 
	C121.821823,396.147400 117.647003,393.727173 113.499908,388.654236 
	C96.852707,368.290741 79.882347,348.177612 62.551296,328.392548 
	C53.541306,318.106781 49.177635,305.469757 42.931011,293.773041 
	C41.835129,291.721008 40.795185,289.612000 40.016094,287.427063 
	C39.459610,285.866394 37.233631,284.263306 40.352711,282.469391 
	C42.094551,281.467560 40.053864,279.901062 39.259510,278.800476 
	C37.654842,276.577209 34.750183,275.347565 33.892860,270.942352 
	C57.296303,275.539734 80.112595,280.021790 103.356064,284.563416 
M87.454315,305.774048 
	C88.080124,308.161591 88.502594,310.626648 89.376282,312.919739 
	C90.941376,317.027435 94.989754,318.149017 97.892883,314.947388 
	C99.819313,312.822937 101.350044,309.858154 102.197342,307.268829 
	C102.936790,305.009094 101.950348,300.537720 98.082367,300.656311 
	C94.324722,300.771484 90.097099,301.283447 87.454315,305.774048 
M121.792770,316.828064 
	C121.557365,315.312988 120.966125,313.950928 119.882454,312.863556 
	C118.227974,311.203430 116.246750,311.266357 114.376518,312.268555 
	C110.653091,314.263824 109.729088,318.244324 108.457764,321.743805 
	C107.790833,323.579590 108.942787,325.902832 111.121437,326.511169 
	C114.829796,327.546600 118.521301,326.593231 121.531845,324.488525 
	C123.996208,322.765625 122.523796,319.961029 121.792770,316.828064 
z"/>
<path fill="#000000" opacity="1.000000" stroke="none" 
	d="
M268.523865,4.598220 
	C288.604095,4.660281 308.236664,4.849601 327.863647,4.030767 
	C331.332886,3.886032 334.828003,4.468349 338.315308,4.620251 
	C341.610260,4.763773 342.290771,7.889493 343.866028,9.739730 
	C346.351471,12.659006 347.068817,16.532602 347.531158,20.665024 
	C344.537476,21.996214 341.297760,22.169847 338.825928,20.794685 
	C335.732056,19.073471 340.111084,15.625653 337.934326,12.872478 
	C332.970947,17.118355 330.830536,23.279701 326.884735,28.069208 
	C322.184753,33.774155 319.608032,39.430023 324.489746,46.515385 
	C326.174683,48.960896 327.605835,52.003979 327.282227,55.485035 
	C324.199036,56.979198 321.027649,56.329979 317.953033,56.179882 
	C315.103790,56.040787 315.704498,54.034229 316.049622,52.138050 
	C316.528625,49.506474 318.560516,47.181583 317.850525,42.969986 
	C312.004883,50.747334 307.007812,57.670330 302.865723,65.168373 
	C301.433075,67.761681 303.066284,68.917427 305.532501,68.927315 
	C310.097717,68.945625 310.348114,71.097176 308.847198,74.703003 
	C305.937164,81.694305 304.056152,89.121109 300.144165,95.989159 
	C297.529785,94.709175 297.505615,92.318405 296.766785,90.451378 
	C294.747375,85.348289 292.884644,80.183342 290.944489,75.048698 
	C288.975861,69.838692 289.209503,69.466705 294.683960,69.004990 
	C295.648102,68.923668 296.598694,68.681381 298.528625,68.342628 
	C294.166901,58.884705 287.350555,51.733234 281.847656,42.488274 
	C280.207703,46.636108 282.090698,48.984596 283.034760,51.385723 
	C284.387207,54.825459 283.564636,56.488159 279.728790,56.316906 
	C278.565704,56.264980 277.395386,56.245083 276.233917,56.309631 
	C272.304962,56.527977 271.164703,54.697166 272.252258,51.083122 
	C273.315521,47.549698 275.101685,44.368809 276.923126,41.198891 
	C277.558075,40.093899 278.898773,39.132603 278.038513,37.639317 
	C273.420685,29.623339 268.367981,21.909687 262.345398,14.542319 
	C260.835876,16.694780 261.975037,18.606302 261.376953,20.608482 
	C257.513275,22.191666 253.584595,21.603580 249.647842,20.290419 
	C247.709366,22.833544 247.735474,26.389393 244.803864,28.927088 
	C241.043701,21.206537 238.407669,13.652333 235.483215,5.157470 
	C246.751007,3.730947 257.482727,5.814237 268.523865,4.598220 
M286.478485,16.000307 
	C283.621582,13.160181 282.329163,8.074883 276.770996,8.507956 
	C276.353821,11.106857 277.767456,12.235214 278.703491,13.532400 
	C282.012573,18.118282 285.430817,22.626038 288.699219,27.240219 
	C289.567444,28.465931 291.428864,29.891069 289.534393,31.508184 
	C288.023010,32.798302 285.749542,32.954212 284.553619,31.338512 
	C279.541901,24.567669 273.170654,18.731319 269.844635,10.807494 
	C269.065033,8.950166 268.425995,7.618268 266.427155,8.589547 
	C264.546417,9.503441 265.314209,11.082088 266.196014,12.396039 
	C272.774963,22.199030 279.388947,31.978584 285.943665,41.797737 
	C287.967041,44.828861 289.920471,45.003433 292.067017,41.980759 
	C293.030151,40.624554 293.978363,39.248184 295.053131,37.982693 
	C298.098511,34.396946 298.114685,31.005999 295.008636,27.338718 
	C292.109955,23.916235 289.561707,20.196941 286.478485,16.000307 
M307.145264,23.609921 
	C305.192932,27.000166 300.607819,30.017336 301.915924,33.839111 
	C303.363037,38.067085 306.610626,42.078854 311.527649,44.796623 
	C316.281982,37.152058 320.790497,29.902754 325.795715,21.854792 
	C319.450104,24.198750 319.675049,35.591118 309.839142,30.722012 
	C314.128998,22.697533 320.699524,16.586273 324.719940,8.618646 
	C321.138458,6.287244 318.907196,7.760818 317.066895,10.167448 
	C313.829681,14.400855 310.723816,18.734715 307.145264,23.609921 
z"/>
<path fill="#000000" opacity="1.000000" stroke="none" 
	d="
M363.844177,334.553864 
	C369.696960,353.119629 375.291809,371.384949 381.194031,389.550385 
	C382.623627,393.950287 382.021545,397.041901 378.481659,400.092285 
	C373.322876,404.537720 368.584717,409.467316 363.535645,414.045349 
	C359.699402,417.523712 357.992432,417.240936 355.334381,412.925507 
	C347.142792,399.626068 339.006927,386.292297 330.820892,372.989471 
	C329.750885,371.250671 328.842438,369.771698 330.033783,367.527283 
	C336.180939,355.946472 342.111389,344.250763 348.236267,332.657928 
	C349.545837,330.179291 351.142517,327.782104 352.978668,325.670654 
	C354.999207,323.347198 357.840454,322.732300 358.209747,326.626343 
	C358.588440,330.620178 363.017639,330.920959 363.844177,334.553864 
z"/>
<path fill="#000000" opacity="1.000000" stroke="none" 
	d="
M250.989197,328.997803 
	C253.520813,338.433105 259.806152,346.082275 263.494629,354.983521 
	C264.128540,356.513336 264.826752,358.090729 265.836578,359.378510 
	C272.077637,367.337585 270.208527,374.397308 264.779755,382.192200 
	C257.467468,392.691589 251.229767,403.938812 244.504730,414.848969 
	C243.907227,415.818268 243.117462,416.669128 242.139633,417.933685 
	C233.027298,412.604797 226.404617,404.683411 219.020203,397.662933 
	C217.979248,396.673340 217.838821,395.381561 218.285736,393.965485 
	C224.640717,373.829132 230.967987,353.684052 237.326416,333.548767 
	C237.463882,333.113434 237.890213,332.769287 238.544907,331.901031 
	C241.130829,335.246277 239.142975,339.177399 240.494965,342.728607 
	C246.225784,337.288086 239.874298,329.217804 244.757706,323.900940 
	C248.091507,324.144012 248.397598,327.437256 250.747131,328.856689 
	C251.021454,329.041992 251.001724,329.010925 250.989197,328.997803 
M239.927673,353.875793 
	C240.101547,370.582123 238.505386,387.307037 240.545563,403.997803 
	C243.016815,385.609070 243.025024,367.215027 241.306808,348.810760 
	C239.500259,350.067017 240.170197,351.618134 239.927673,353.875793 
z"/>
<path fill="#000000" opacity="1.000000" stroke="none" 
	d="
M389.234100,548.118347 
	C388.190216,551.235474 387.247864,553.972229 386.305511,556.708984 
	C385.793304,556.580505 385.281128,556.451965 384.768951,556.323425 
	C387.943237,535.194641 388.642639,513.720337 394.403687,492.690094 
	C393.520264,492.040558 391.755341,492.354889 391.594513,489.975098 
	C389.991730,466.261108 388.877777,442.529419 388.430969,418.766113 
	C388.428680,418.642792 388.636322,418.515564 389.214813,417.853668 
	C392.425873,422.620087 392.937012,428.141785 394.471893,433.169556 
	C397.236542,442.225891 399.382568,451.470367 401.827026,460.625549 
	C402.861084,464.498535 402.347809,468.133392 400.830902,471.822571 
	C399.906860,474.069916 399.626221,476.581757 398.884003,479.699921 
	C403.163391,477.180786 402.945709,479.729980 403.119934,482.270935 
	C404.069489,496.120209 401.492279,509.378052 397.021912,522.427490 
	C394.166138,530.763733 391.878174,539.294434 389.234100,548.118347 
z"/>
<path fill="#000000" opacity="1.000000" stroke="none" 
	d="
M203.329468,485.152100 
	C212.849762,508.078339 211.737122,532.607605 216.424744,556.649719 
	C213.904938,556.160950 213.799454,554.622070 213.407852,553.321106 
	C208.470352,536.916809 203.211639,520.599487 198.731644,504.071167 
	C196.482422,495.773010 197.870407,487.145569 198.253632,478.804901 
	C200.665634,478.531372 200.708069,480.410706 203.081085,480.690033 
	C193.512146,462.538452 204.135574,447.186035 208.258743,430.842499 
	C210.778732,433.580261 211.620285,436.724457 211.605896,439.678802 
	C211.522293,456.827454 210.200943,473.927826 209.041077,491.030823 
	C209.024216,491.279388 208.650391,491.503754 208.219391,491.993835 
	C205.592209,490.140198 206.314621,486.445160 204.133911,484.470673 
	C204.046967,484.391998 203.792084,484.419128 203.663895,484.487640 
	C203.530640,484.558777 203.456284,484.740173 203.329468,485.152100 
z"/>
<path fill="#000000" opacity="1.000000" stroke="none" 
	d="
M314.130859,628.668762 
	C336.675720,628.673096 358.742859,628.673096 380.913666,628.673096 
	C380.880005,631.794617 378.822662,632.334961 377.407379,633.204773 
	C368.055267,638.952209 358.624451,644.571289 349.240601,650.267395 
	C347.737762,651.179565 346.270966,651.799438 344.570557,650.892334 
	C332.097504,644.238953 319.623901,637.586487 307.169952,630.897522 
	C306.828400,630.714050 306.705841,630.122925 306.264587,629.335266 
	C308.798218,628.252808 311.268036,628.759705 314.130859,628.668762 
z"/>
<path fill="#000000" opacity="1.000000" stroke="none" 
	d="
M389.708008,658.568970 
	C389.705170,649.875183 389.705170,641.629700 389.705170,633.438049 
	C391.002747,633.287354 391.589081,633.024353 391.958923,633.204834 
	C401.465546,637.844727 410.431702,633.968628 419.494202,631.522034 
	C427.178619,629.447510 434.871765,627.405396 442.561401,625.350159 
	C443.369080,625.134216 444.178070,624.932556 445.874512,626.682678 
	C427.548218,639.215454 409.419312,651.613281 391.523987,663.851379 
	C389.194122,662.026794 389.938049,660.407837 389.708008,658.568970 
z"/>
<path fill="#000000" opacity="1.000000" stroke="none" 
	d="
M441.594604,632.588806 
	C444.636688,630.229980 447.439026,628.146179 450.145721,625.944702 
	C452.248535,624.234436 453.895752,624.201843 455.438812,626.680542 
	C457.546204,630.065796 459.754791,633.391479 462.018158,636.675110 
	C463.929352,639.447815 463.280334,641.066772 460.181122,642.321594 
	C444.168091,648.804565 428.229675,655.472473 412.194763,661.900146 
	C408.308685,663.457886 404.642853,665.905396 400.276672,666.030701 
	C399.978760,665.592957 399.680878,665.155212 399.382965,664.717468 
	C413.359863,654.082703 427.336761,643.447876 441.594604,632.588806 
z"/>
<path fill="#000000" opacity="1.000000" stroke="none" 
	d="
M456.193115,624.567932 
	C453.825623,621.148499 453.874237,617.946899 454.911591,614.358826 
	C457.906372,604.000366 461.682953,593.869629 463.987061,583.306091 
	C464.250092,582.100220 464.754578,580.720947 466.374146,580.213989 
	C467.757111,581.535889 467.921661,583.361084 468.224304,585.085449 
	C470.518036,598.154297 472.776428,611.229370 475.042938,624.303040 
	C475.509979,626.997131 470.376709,635.605286 467.785828,636.539429 
	C465.885223,637.224670 464.972748,635.729309 464.095917,634.679688 
	C461.434875,631.494019 458.953613,628.158142 456.193115,624.567932 
z"/>
<path fill="#000000" opacity="1.000000" stroke="none" 
	d="
M498.654236,582.222900 
	C499.472961,584.549316 498.218658,586.064819 497.345154,587.596191 
	C492.175323,596.659180 486.944183,605.687622 481.661774,614.685486 
	C480.857910,616.054688 480.161316,617.641418 478.188354,618.596069 
	C475.635834,614.359558 475.708984,609.601501 475.026642,605.196350 
	C473.861053,597.671509 472.847961,590.149841 470.711731,582.814392 
	C469.798737,579.679382 470.584656,577.264465 474.442169,577.849487 
	C482.444672,579.063354 490.406647,580.544495 498.654236,582.222900 
z"/>
<path fill="#000000" opacity="1.000000" stroke="none" 
	d="
M385.095001,427.381195 
	C386.316254,441.451172 387.475067,455.093231 388.622528,468.601746 
	C386.085114,469.186707 385.734100,467.844604 385.253906,466.884338 
	C378.870575,454.119659 372.499847,441.348511 366.198517,428.543274 
	C365.280792,426.678314 363.741608,424.534454 365.645813,422.564087 
	C367.393250,420.755981 369.763672,420.870667 372.181854,421.380188 
	C374.438171,421.855652 376.776489,422.047516 379.087280,422.133301 
	C382.351074,422.254425 384.460205,423.606476 385.095001,427.381195 
z"/>
<path fill="#000000" opacity="1.000000" stroke="none" 
	d="
M385.313965,635.836792 
	C385.338593,645.349609 385.338593,654.449097 385.338593,664.444641 
	C374.205658,661.720154 364.147949,658.828552 354.266937,655.477478 
	C354.378632,653.165466 355.926392,652.555542 357.050293,651.754639 
	C364.770905,646.252441 372.491425,640.744934 380.366028,635.469055 
	C381.609985,634.635681 383.660522,631.631042 385.313965,635.836792 
z"/>
<path fill="#000000" opacity="1.000000" stroke="none" 
	d="
M330.555145,48.321873 
	C329.216217,44.875053 327.950836,41.814247 326.812164,38.707012 
	C326.106232,36.780567 326.047852,34.880913 328.821503,34.834042 
	C334.561066,34.737061 340.303436,34.804806 347.083069,34.804806 
	C344.042236,44.615044 341.018921,53.326237 336.477173,63.124153 
	C334.191833,57.431164 332.437042,53.059723 330.555145,48.321873 
z"/>
<path fill="#000000" opacity="1.000000" stroke="none" 
	d="
M266.437134,60.963676 
	C265.350891,62.559429 264.164368,62.663837 263.647095,61.181030 
	C260.774200,52.945847 256.636871,45.130432 254.809250,35.979431 
	C261.692871,35.979431 268.074768,35.979431 275.023193,35.979431 
	C273.655151,45.002621 269.318268,52.568233 266.437134,60.963676 
z"/>
<path fill="#000000" opacity="1.000000" stroke="none" 
	d="
M362.046631,11.883389 
	C359.854340,17.588438 357.797424,22.924332 355.740540,28.260227 
	C355.308807,28.281164 354.877075,28.302099 354.445343,28.323036 
	C351.237610,21.269691 348.007935,14.219865 345.983612,6.667222 
	C345.603973,5.250832 346.678467,4.464441 347.947540,4.359609 
	C353.155548,3.929404 358.387177,3.209130 363.505127,4.520385 
	C364.347443,7.404055 362.722076,9.348782 362.046631,11.883389 
z"/>
<path fill="#000000" opacity="1.000000" stroke="none" 
	d="
M215.150787,446.468933 
	C217.306641,443.418793 220.336975,442.922577 222.700989,444.493408 
	C225.174637,446.137146 223.871597,449.046906 222.671387,451.238770 
	C219.854538,456.382965 218.424500,462.259888 214.047043,466.889038 
	C213.596985,460.116119 213.219482,453.451263 215.150787,446.468933 
z"/>
<path fill="#000000" opacity="1.000000" stroke="none" 
	d="
M378.719574,8.136713 
	C377.135742,4.606106 378.781128,3.372915 381.624939,3.283561 
	C383.744324,3.216971 385.898346,3.524403 388.288818,4.775471 
	C387.167206,9.120451 385.947693,13.241117 383.020386,17.323820 
	C380.522430,14.497170 380.137695,11.268712 378.719574,8.136713 
z"/>
<path fill="#000000" opacity="1.000000" stroke="none" 
	d="
M221.343765,4.338372 
	C223.141708,4.768557 224.356522,5.298642 223.796188,7.084072 
	C222.676575,10.651585 221.818863,14.341551 219.199173,18.032238 
	C216.115601,14.073155 215.353180,9.730130 213.912857,5.653725 
	C216.047592,3.458442 218.521957,3.975514 221.343765,4.338372 
z"/>
<path fill="#000000" opacity="1.000000" stroke="none" 
	d="
M339.663300,289.107605 
	C338.056641,286.923401 338.824280,285.536041 340.896454,284.766541 
	C341.315308,284.611023 342.402985,285.070923 342.501099,285.432129 
	C343.087433,287.590515 342.186371,288.913330 339.663300,289.107605 
z"/>
</svg>