<svg xmlns="http://www.w3.org/2000/svg" data-name="Layer 11" viewBox="0 0 48 48" id="hearts"><defs><linearGradient id="a" x1="10.379" x2="36.242" y1="7.879" y2="33.742" gradientUnits="userSpaceOnUse"><stop offset="0" stop-color="#68e0cf"></stop><stop offset="1" stop-color="#209cff"></stop></linearGradient></defs><path fill="url(#a)" d="M9,40v5a1,1,0,0,1-2,0V41H3a1,1,0,0,1,0-2H8A1,1,0,0,1,9,40ZM45,2H40a1,1,0,0,0,0,2h2.49L29.31,17.18a1.074,1.074,0,0,1-1.51,0,1.081,1.081,0,0,1,0-1.51l8.46-8.46a10.869,10.869,0,0,0-1.86-.77,10.115,10.115,0,0,0-8,.91,4.938,4.938,0,0,1-4.8,0,10.115,10.115,0,0,0-8-.91,12.031,12.031,0,0,0-7.12,6.37A15.183,15.183,0,0,0,8.7,29.24l3.97,4.67,0,0L10.586,36H6a1,1,0,0,0,0,2h4v4a1,1,0,0,0,2,0V37.414l1.967-1.967,0,0,2.63,3.09a9.716,9.716,0,0,0,14.8,0l7.9-9.3a15.183,15.183,0,0,0,2.22-16.43,13.778,13.778,0,0,0-1.92-2.9L44,5.51V8a1,1,0,0,0,2,0V3A1,1,0,0,0,45,2Z"></path></svg>