<svg version="1.1" id="Layer_1" xmlns="http://www.w3.org/2000/svg" xmlns:xlink="http://www.w3.org/1999/xlink" x="0px" y="0px"
	 width="100%" viewBox="0 0 592 720" enable-background="new 0 0 592 720" xml:space="preserve">
<path fill="#000000" opacity="1.000000" stroke="none" 
	d="
M372.218323,655.954163 
	C370.663025,660.918335 367.269867,662.985779 362.728668,663.222046 
	C357.037659,663.518005 352.850372,660.768677 349.813721,656.138489 
	C348.997253,654.893555 348.679199,653.261292 347.708801,652.190796 
	C345.832581,650.121033 343.977875,648.906738 341.997070,652.535706 
	C339.331909,657.418396 331.019775,660.091125 326.157745,658.020813 
	C324.675079,657.389404 323.897400,656.099121 323.419098,654.627319 
	C321.122345,647.559875 318.979950,640.437683 316.486511,633.440613 
	C315.325134,630.181580 313.829498,626.933838 311.899261,624.077026 
	C306.173615,615.603271 302.738159,605.746033 296.075775,597.878723 
	C293.546234,594.891724 290.713898,592.127930 287.798370,589.508667 
	C283.081451,585.271057 277.345337,582.275024 273.076782,577.454163 
	C271.491577,575.663940 269.414917,576.408203 267.460327,576.863281 
	C250.356491,580.845154 236.011261,574.503540 222.900681,564.463806 
	C218.261307,560.911072 214.915558,556.041504 213.578415,550.032715 
	C212.880127,546.894775 210.967682,544.769958 206.971466,544.780701 
	C207.378448,551.008972 203.524887,554.837280 199.508575,558.264771 
	C194.175446,562.815918 188.199951,560.326416 182.821411,558.325073 
	C177.903854,556.495239 173.394516,553.535522 168.773926,550.950989 
	C165.220444,548.963318 162.848892,549.136963 162.002335,553.753296 
	C161.586639,556.020020 161.189194,558.562378 159.895187,560.329468 
	C158.127579,562.743408 161.547653,562.197388 161.161179,563.774414 
	C159.475388,565.861145 157.644119,568.127930 155.199677,571.153748 
	C154.238846,566.001648 156.113007,562.204651 156.868835,558.302979 
	C157.148102,556.861511 158.146515,555.525574 157.047470,554.062073 
	C156.323090,553.097473 155.447250,552.262695 154.135468,552.493591 
	C152.603516,552.763245 152.708084,553.908447 152.706863,555.176636 
	C152.702179,560.023010 151.055161,561.131165 146.235397,559.657043 
	C143.773575,558.904175 141.380661,557.424011 138.713593,558.897644 
	C138.108810,561.956848 141.435593,562.656372 141.906052,565.075317 
	C140.569229,565.769958 139.805817,564.573364 139.045380,563.999207 
	C137.041077,562.486023 134.630112,560.645386 135.740906,557.910095 
	C137.021881,554.755798 140.085922,555.633240 142.737854,556.141663 
	C145.073776,556.589600 147.311890,558.077759 150.042023,557.127197 
	C150.079697,553.717102 147.445679,551.739746 145.954453,549.796143 
	C141.786987,544.364502 143.675827,539.920288 146.766983,535.316650 
	C149.058090,531.904419 152.247375,528.972473 151.728439,524.261047 
	C151.661606,523.654236 152.486877,522.791077 153.099945,522.295288 
	C155.565262,520.301514 157.780075,518.109009 156.078232,514.694824 
	C154.377899,511.283722 152.642426,507.965302 147.687485,508.135559 
	C143.533005,508.278320 142.560440,504.940247 142.930298,501.511353 
	C143.157974,499.400543 144.263260,497.477875 145.710754,495.748199 
	C149.245667,491.524353 148.239243,488.636658 142.964417,486.593048 
	C140.820435,485.762451 137.326584,486.800446 136.781189,483.645599 
	C136.138519,479.928131 139.780106,478.842865 142.132431,477.230347 
	C154.342361,468.860504 168.036331,464.008087 182.312775,460.610596 
	C183.541565,460.318146 185.179214,459.735291 184.577301,458.622467 
	C182.156616,454.147308 185.860428,450.171387 185.222610,445.619049 
	C184.623871,441.345642 188.346207,436.850922 192.132492,435.022614 
	C196.516083,432.905823 199.638428,429.730865 203.073883,426.702209 
	C204.407700,425.526306 205.178192,423.990875 204.484390,422.227692 
	C202.732666,417.775848 205.288193,415.109161 208.540375,413.153320 
	C212.252121,410.921112 216.289764,409.906921 220.126709,413.193207 
	C221.264816,414.167999 222.395355,415.159241 223.451981,416.220032 
	C225.980698,418.758728 228.312485,419.326080 231.829071,417.318054 
	C235.646622,415.138245 235.040756,412.704376 234.242188,409.408844 
	C230.970749,395.908051 225.643600,383.262695 219.329788,370.926300 
	C215.388031,363.224609 212.392319,355.022400 210.883301,346.468903 
	C209.439362,338.284241 206.818481,330.756775 201.557617,324.228333 
	C199.131363,321.217529 197.655136,317.645691 196.095062,314.146393 
	C194.847214,311.347504 193.872055,308.167725 194.892120,305.388794 
	C197.884033,297.237915 199.958984,288.721222 203.282272,280.795288 
	C205.903366,274.544098 213.141937,274.947327 219.151688,275.035706 
	C221.782578,275.074341 224.432358,275.732849 227.022079,276.332245 
	C237.546738,278.768158 244.774277,272.746613 251.682785,266.462463 
	C254.963364,263.478363 251.455475,259.853088 250.955750,256.691040 
	C250.540848,254.065765 247.202957,255.308411 245.342499,256.084961 
	C238.021484,259.140747 232.562759,255.904968 226.445877,252.077866 
	C213.518921,243.989990 209.711227,231.647385 214.219101,219.132019 
	C215.983704,214.232849 214.476822,212.483734 209.184326,212.352982 
	C206.696259,212.291519 204.404877,212.078979 203.755295,209.148605 
	C203.152313,206.428482 204.376190,204.749374 206.950256,203.762589 
	C209.115036,202.932709 210.616547,201.311829 210.584610,198.869904 
	C210.547729,196.048080 208.094330,196.307816 206.253265,195.710861 
	C203.698639,194.882568 201.177353,193.731674 200.083511,191.079193 
	C199.321136,189.230484 201.042297,188.054810 202.043427,186.784317 
	C202.686676,185.967987 203.603729,185.647537 204.678146,185.603027 
	C215.335693,185.161621 218.137527,179.814240 212.737671,170.265411 
	C212.410614,169.687042 212.022720,169.134964 211.764008,168.527679 
	C211.216782,167.243210 211.021118,165.926392 212.039108,164.769638 
	C213.106216,163.557098 214.647369,162.668991 216.022934,163.536758 
	C219.457108,165.703171 223.148834,164.427582 226.704666,164.787796 
	C230.803116,165.202957 231.988892,163.011551 231.702057,159.312317 
	C231.097427,151.514832 234.846436,149.007492 241.939743,152.657654 
	C245.289612,154.381470 247.308609,153.843948 248.374786,150.236755 
	C249.457733,146.572845 250.887100,142.949036 251.428635,139.201294 
	C252.349991,132.825287 255.696945,128.408844 261.442230,126.127106 
	C270.383698,122.575996 274.522217,115.146210 277.416473,106.876862 
	C278.729218,103.126335 280.241272,100.548553 284.454498,100.489983 
	C288.793762,100.429642 289.243927,103.556892 290.592377,106.858124 
	C293.544800,114.086121 298.352295,120.394623 304.313049,125.433456 
	C309.021667,129.413818 314.352112,132.458649 314.417511,139.737564 
	C314.443329,142.613831 316.486206,143.771790 319.604523,143.732788 
	C327.579529,143.632996 327.577667,143.790558 329.362885,151.295731 
	C329.962341,153.815979 331.773224,155.630402 334.032257,156.043442 
	C338.218567,156.808868 342.375916,158.207169 346.781250,157.405731 
	C353.414520,156.199020 356.973267,160.212845 355.015411,166.552628 
	C352.986237,173.123169 355.725555,177.312546 362.380707,177.816803 
	C365.135162,178.025497 369.110657,182.544540 369.046051,185.689651 
	C368.974426,189.177689 366.491150,190.070618 363.563782,190.105499 
	C361.245544,190.133163 359.562378,190.948669 359.407715,193.412613 
	C359.239136,196.098297 360.798706,197.853561 363.260956,198.555969 
	C364.664917,198.956482 366.291840,198.554474 367.711975,198.923401 
	C370.605927,199.675232 372.301117,201.676575 372.201080,204.731674 
	C372.102325,207.748901 370.052551,208.603607 367.373810,208.445496 
	C365.752808,208.349838 364.401031,208.930267 363.409698,210.171356 
	C361.536835,212.516220 359.048676,213.631683 356.183990,214.259735 
	C353.288910,214.894455 350.801788,216.816605 351.539154,219.783005 
	C353.684753,228.415009 353.153290,237.120117 352.599915,245.444107 
	C354.385559,246.698074 355.474304,246.032120 356.331879,245.307938 
	C361.990479,240.529480 369.286560,237.539963 372.715637,230.310013 
	C373.613800,228.416321 375.607635,228.275620 377.333771,227.712479 
	C382.606476,225.992233 386.799835,223.090378 389.056335,217.705612 
	C390.336731,214.650208 392.134644,211.809006 393.738220,208.892624 
	C394.871246,206.831970 395.849213,204.907578 394.996643,202.320633 
	C393.996094,199.284653 395.444519,197.075607 398.479553,196.195618 
	C400.519379,195.604172 402.050140,194.625061 403.109924,192.736572 
	C410.016144,180.430023 419.606293,170.174332 429.047028,159.910004 
	C435.734802,152.638824 440.288666,144.177048 442.030518,134.990326 
	C443.840271,125.445671 440.900787,115.947052 435.480347,107.508026 
	C432.442719,102.778839 427.641357,99.247955 425.950470,93.650955 
	C425.426514,91.916603 423.539276,89.679909 425.979919,88.277176 
	C428.109222,87.053375 430.734375,86.647438 433.121826,88.138260 
	C435.993896,89.931671 438.158081,92.310738 439.888092,95.298561 
	C443.551361,101.625168 447.164490,108.036629 451.465820,113.925652 
	C459.019226,124.267128 464.669586,125.241905 475.813049,119.036797 
	C478.440857,117.573547 481.117065,115.878304 484.156036,115.978096 
	C488.294952,116.114006 491.328033,118.264587 492.887421,122.674500 
	C482.275177,126.741371 475.599152,135.702118 467.179291,142.493637 
	C450.262115,156.139099 447.655731,176.234634 440.554535,194.327057 
	C438.382172,199.861908 435.206238,205.345001 436.050659,211.959442 
	C436.460052,215.166351 432.969238,216.808182 430.402466,217.557648 
	C423.050323,219.704437 419.290405,225.523651 416.499084,231.593445 
	C411.634521,242.171417 405.440948,251.984329 400.129395,262.289307 
	C399.079620,264.326019 397.322906,266.076660 395.131287,266.015137 
	C389.727509,265.863403 386.397034,269.399536 383.394379,272.719330 
	C377.725067,278.987396 369.459442,282.574860 365.364166,290.416199 
	C365.019836,291.075562 364.111938,291.795105 363.408966,291.858826 
	C354.742218,292.644104 349.959015,299.998962 341.711212,304.013123 
	C353.780457,306.919220 364.319031,310.801636 375.833618,309.892120 
	C383.794952,309.263245 391.788849,308.977600 399.774200,308.748230 
	C404.475830,308.613190 414.976074,317.266937 415.934082,321.760986 
	C416.002380,322.081299 416.004883,322.423828 415.986450,322.753174 
	C415.771301,326.599640 407.377838,334.260864 403.468140,333.502167 
	C397.873688,332.416443 392.208496,333.997131 386.674774,332.541290 
	C385.812012,332.314301 384.411499,332.461548 383.850128,333.024536 
	C379.570190,337.316559 373.983307,337.476349 368.548065,338.052612 
	C366.179810,338.303711 364.212708,339.047729 363.555084,341.444275 
	C362.835907,344.065125 364.905609,345.359131 366.664154,346.588959 
	C367.739410,347.340942 369.074280,347.709351 370.224426,348.368774 
	C374.359497,350.739685 377.186615,354.111023 377.485535,359.025024 
	C377.811737,364.388031 374.940399,366.389252 369.946899,364.511993 
	C368.566284,363.992981 367.367828,362.917358 365.364807,363.152069 
	C364.082977,366.574005 362.891022,369.741577 365.999512,373.386780 
	C369.963013,378.034637 369.723236,383.841980 369.074890,389.588318 
	C368.379578,395.750885 368.163483,401.939484 368.684601,408.128540 
	C368.957001,411.363556 367.716705,413.877655 365.590057,416.223083 
	C359.929382,422.466187 361.892670,430.770233 369.663116,433.846771 
	C375.425293,436.128143 376.995209,438.393829 376.384888,444.155334 
	C376.016968,447.628632 378.346375,447.919861 380.723938,448.256104 
	C386.008484,449.003418 390.751892,450.528442 393.600525,455.648376 
	C395.383179,458.852417 395.238708,461.537415 391.859192,463.185822 
	C388.193665,464.973755 385.422546,468.175934 381.069855,468.996277 
	C377.406921,469.686554 375.623779,472.989807 374.352448,476.511566 
	C377.091492,478.941986 379.246674,477.969391 381.301971,475.812775 
	C384.359283,472.604767 387.993530,471.300018 392.519836,471.552002 
	C397.324615,471.819427 401.129028,473.415009 402.774841,478.022919 
	C404.460541,482.742371 403.582306,487.380096 399.994873,490.994659 
	C396.490112,494.525879 392.285461,494.389099 388.010986,492.246185 
	C387.285858,491.882629 386.485168,491.669739 385.784637,491.411285 
	C380.896484,496.845215 383.349579,507.097900 389.973511,509.747986 
	C391.170410,510.226837 392.188934,509.993347 393.340637,509.640564 
	C400.949493,507.309692 405.332886,508.880859 409.609955,515.702820 
	C411.570740,518.830261 413.549194,521.640076 416.932220,523.597290 
	C422.077301,526.573975 422.020020,530.700500 417.240631,534.253296 
	C415.040314,535.888916 412.454742,536.534729 409.828674,537.069824 
	C407.897095,537.463379 405.808350,537.561951 404.645966,539.701599 
	C405.124298,542.434082 407.100006,543.280579 409.555420,543.779236 
	C411.906464,544.256653 413.429443,545.838806 413.519379,548.280762 
	C413.604401,550.590637 412.564056,552.505859 410.440521,553.615662 
	C406.702118,555.569275 402.922211,555.622009 398.851868,554.377930 
	C393.076294,552.612732 391.984528,553.649536 392.411896,559.580078 
	C388.205139,561.136536 386.928589,563.607910 389.140747,567.383484 
	C391.888184,572.072449 391.349396,577.694824 394.139465,582.377808 
	C397.431427,587.903381 397.793793,594.459045 398.812958,600.578857 
	C400.458160,610.457275 401.141754,620.621216 398.880646,630.520691 
	C397.389526,637.049194 398.759644,643.460693 398.441040,649.919800 
	C398.230865,654.180786 396.683807,656.588379 392.528564,657.058472 
	C387.450806,657.632935 382.293427,654.426697 381.733307,650.345886 
	C381.344604,647.513916 381.622742,644.162292 377.360962,644.687683 
	C373.403656,645.175537 371.418274,647.321716 372.695862,651.668640 
	C373.039215,652.836731 372.481995,654.269531 372.218323,655.954163 
M285.994690,551.430054 
	C287.472290,550.040833 287.815613,548.332214 287.427734,546.406677 
	C285.494354,536.808472 283.770538,527.149719 280.513916,517.885376 
	C279.142731,513.984680 277.928589,509.407806 274.287872,507.347260 
	C269.144318,504.436157 264.764374,500.888611 260.543976,496.832275 
	C256.929993,493.358765 253.637512,494.023682 250.485977,498.030151 
	C249.646851,499.096893 248.841660,500.076050 247.538330,500.597137 
	C243.567657,502.184540 241.780029,505.442993 241.040146,509.401764 
	C240.529007,512.136658 240.171600,514.900208 239.711578,517.869934 
	C237.790939,517.915710 235.758347,515.348450 234.635788,518.518982 
	C233.206802,516.745239 234.869492,514.505920 232.719696,513.010193 
	C228.003571,517.115540 224.520966,522.048767 221.909790,527.670227 
	C221.209900,529.177002 221.371796,530.525757 222.046204,531.962646 
	C223.963989,536.048584 225.934753,540.136353 229.689911,542.875488 
	C239.726425,550.196289 250.939270,554.794983 263.159058,556.945679 
	C271.277618,558.374634 278.582153,556.099854 285.994690,551.430054 
M275.317139,343.997559 
	C272.335999,343.821838 269.356293,343.529633 266.373474,343.493561 
	C259.107178,343.405701 252.851669,347.732880 245.611282,348.191956 
	C239.651321,348.569855 236.225952,352.392426 234.834717,358.308350 
	C233.492752,364.014709 234.798172,369.565155 235.063873,375.187256 
	C235.752701,389.762085 241.147385,395.935699 255.368317,398.287659 
	C260.202057,399.087067 266.593811,395.405914 267.676056,390.637817 
	C268.513367,386.948822 270.518311,383.952850 272.035583,380.647614 
	C275.981903,372.051056 279.745300,363.343445 282.317108,354.222778 
	C283.935242,348.484283 281.842072,345.410583 275.317139,343.997559 
M207.638290,478.336670 
	C201.111786,480.386108 194.732315,482.717438 189.467590,488.304962 
	C189.669739,484.365021 188.182373,483.601776 185.411758,485.322815 
	C181.880692,487.516235 178.318481,489.669159 174.891602,492.017487 
	C172.326859,493.774994 171.365829,495.942627 173.989105,498.596344 
	C177.909103,502.561859 179.526871,507.571136 180.322906,512.948792 
	C180.775528,516.006470 181.892868,519.384338 184.569458,520.480103 
	C187.069031,521.503357 188.444046,523.089111 190.098938,524.846069 
	C195.043869,530.096069 203.128189,529.347656 207.068069,523.452087 
	C208.630524,521.114075 210.045990,518.728455 212.109650,516.680664 
	C220.330917,508.522919 227.180893,499.056213 236.241852,491.871643 
	C235.377335,488.729431 233.101562,487.525085 230.855835,486.585938 
	C228.540222,485.617493 225.989319,485.013428 224.452896,482.925934 
	C220.251816,477.218079 214.547089,477.014679 207.638290,478.336670 
M275.461945,312.539642 
	C272.774170,308.066437 268.760925,304.961548 263.988281,303.405121 
	C257.674622,301.346191 251.178162,299.366913 244.619232,298.657593 
	C235.554459,297.677246 226.418533,297.595795 217.554138,301.165497 
	C209.041840,304.593414 210.466354,312.282166 215.430359,316.332123 
	C220.530807,320.493408 226.096573,324.570526 231.797134,327.310944 
	C239.809296,331.162689 248.579910,333.434601 258.190979,333.294434 
	C269.899506,333.123657 278.219452,323.920166 275.461945,312.539642 
M422.506470,187.930786 
	C424.369873,185.386856 427.167175,184.699966 430.008881,184.647522 
	C434.309479,184.568176 437.414825,182.219650 439.597717,179.138992 
	C442.258392,175.384018 444.431030,171.252686 445.846008,166.729080 
	C448.438019,158.442764 451.762329,150.305954 459.041992,145.042053 
	C465.839325,140.126907 470.740601,133.597107 476.511536,127.812256 
	C474.427612,124.944435 471.887756,124.868744 469.455200,125.484573 
	C462.014130,127.368385 456.667389,124.264679 451.892578,118.924026 
	C447.297424,113.784355 444.352631,107.595596 440.453766,102.026634 
	C438.593933,99.370110 436.756165,96.304092 432.438110,96.721657 
	C432.649384,99.803040 434.410126,101.503670 435.807343,103.228607 
	C439.507050,107.796059 442.408234,112.677727 443.576385,118.518494 
	C444.776886,124.521042 448.028412,131.094116 445.637665,136.536316 
	C440.807159,147.532440 435.323425,158.348602 426.636688,167.248474 
	C419.478088,174.582748 412.489899,182.217819 407.346130,191.259796 
	C405.805664,193.967712 405.383118,196.303146 408.774445,197.797958 
	C411.781860,199.123581 415.020355,201.237244 417.071716,196.494781 
	C418.335358,193.573456 419.790283,190.789810 422.506470,187.930786 
M285.861694,446.225037 
	C296.064056,443.489502 304.752167,445.530243 311.748871,453.915344 
	C315.346222,458.226562 321.014648,459.160889 324.063812,456.102325 
	C327.259399,452.896912 330.531769,450.076416 334.783722,448.238373 
	C337.751923,446.955261 338.593933,443.771851 338.767609,440.666321 
	C338.868408,438.864319 338.086212,437.046875 336.296753,436.768463 
	C330.163025,435.814148 325.730804,431.306122 320.068542,429.329102 
	C317.080322,428.285767 314.610077,427.121674 312.509705,430.159546 
	C310.620880,429.293732 310.282227,427.780426 309.705994,426.417450 
	C307.997498,422.376343 305.162140,420.868896 300.926819,422.562347 
	C298.923737,423.363312 296.878937,424.072815 294.921204,424.972168 
	C287.258087,428.492371 279.363007,430.616119 270.825958,429.397125 
	C268.847443,429.114624 266.538483,428.778748 265.629028,431.148926 
	C263.727936,436.103394 261.960022,441.119843 260.419128,446.196350 
	C259.784027,448.288635 260.978943,450.270233 262.833344,451.238098 
	C264.876343,452.304291 265.637421,450.193787 266.676361,449.001343 
	C270.931519,444.117706 273.768707,443.419952 279.740540,446.061096 
	C281.538055,446.856079 283.243652,446.942078 285.861694,446.225037 
M241.681091,448.961365 
	C243.728424,453.116119 245.351837,453.660339 247.433243,450.641541 
	C252.219315,443.699829 257.161591,436.685913 258.073059,428.026276 
	C259.227539,417.057556 258.608490,413.040497 249.358398,411.273590 
	C248.240906,411.060120 247.209457,410.408508 246.130386,409.979370 
	C239.869736,407.489563 238.857391,408.179169 239.252014,414.989044 
	C239.497955,419.233276 239.431244,423.306000 236.182755,426.600494 
	C233.542130,429.278473 231.186752,432.031494 229.234863,435.416901 
	C227.678024,438.117218 227.125977,439.879578 228.407349,442.513611 
	C229.905258,445.592804 232.387909,446.260742 235.458740,445.718811 
	C238.014999,445.267700 240.061279,445.904144 241.681091,448.961365 
M276.890289,565.591125 
	C266.403625,567.531311 256.007904,568.703735 245.433563,565.524902 
	C235.089066,562.415100 227.394073,555.044189 218.342850,548.745117 
	C217.654297,553.163879 218.797684,555.956970 221.073090,558.328674 
	C237.437057,575.385376 259.781555,579.628723 280.751129,569.902771 
	C282.636780,569.028137 284.700134,567.973633 284.377411,565.239685 
	C281.512299,564.552185 281.512299,564.552185 276.890289,565.591125 
M358.817169,258.673309 
	C360.269012,260.211304 361.412445,261.904266 364.098358,261.719727 
	C374.858826,260.980377 382.776398,254.181061 384.971924,243.577774 
	C385.195343,242.498901 385.118378,241.736938 384.382385,240.881271 
	C381.448608,237.470551 375.197815,237.087555 371.349182,239.240631 
	C365.383942,242.577744 362.101807,248.501831 357.180664,252.814407 
	C355.025482,254.703094 356.330627,256.710571 358.817169,258.673309 
M220.053085,511.546967 
	C219.607941,512.041382 218.990585,512.463989 218.748718,513.043274 
	C217.893402,515.091736 214.952255,516.955627 218.116302,519.444885 
	C221.198166,521.869507 222.843719,519.741516 224.649704,517.592041 
	C227.749161,513.903015 230.890656,510.244476 234.138000,506.685852 
	C238.215912,502.217041 242.418030,497.861603 246.618393,493.402191 
	C244.678436,491.608612 242.753082,492.567322 240.778885,493.588226 
	C232.644928,497.794464 226.500443,504.303894 220.053085,511.546967 
M241.172943,486.029663 
	C242.686722,480.459442 242.046631,474.815979 241.182083,469.303131 
	C240.664276,466.001282 237.379074,464.428711 234.377411,464.411865 
	C230.888641,464.392334 231.406830,467.757629 231.087021,470.133667 
	C230.931961,471.285767 230.980240,472.464355 230.842987,473.619873 
	C229.680496,483.406250 230.495880,484.491974 241.172943,486.029663 
M171.995361,523.104187 
	C171.593811,520.815613 171.187347,518.527832 170.791809,516.238220 
	C170.009933,511.712341 167.458160,508.318512 163.801193,505.760986 
	C162.670746,504.970398 161.099747,503.916779 159.779678,505.466614 
	C158.767975,506.654449 159.210541,508.152740 160.191254,509.101044 
	C169.043213,517.660400 170.233337,531.768433 181.871094,538.488770 
	C185.220856,540.423157 188.684036,541.362793 192.165100,542.498352 
	C193.486099,542.929260 195.139984,542.128845 195.079773,539.580627 
	C185.961258,536.734314 177.009552,533.238098 171.995361,523.104187 
M290.553314,522.989136 
	C287.343994,515.280640 286.723633,514.497742 282.393036,513.646729 
	C286.337036,524.751038 289.040955,535.759827 291.253113,546.890869 
	C291.646088,548.868347 291.701996,551.847412 294.790375,551.180664 
	C297.646362,550.564087 296.920532,547.820557 296.622742,545.747498 
	C295.536316,538.184387 293.202850,530.943054 290.553314,522.989136 
M254.659409,211.105942 
	C252.597214,207.884293 251.031311,208.228195 249.598923,211.662247 
	C246.827927,218.305542 251.387024,227.012894 259.447083,230.272766 
	C263.416504,223.550812 262.983490,220.579590 257.198181,215.523941 
	C256.013245,214.488480 255.335556,213.223541 254.659409,211.105942 
M252.962372,472.369049 
	C252.352951,469.631409 250.903610,467.893433 247.844925,468.093109 
	C246.281891,468.195129 244.364746,468.593811 244.639114,470.393616 
	C245.459335,475.773834 244.519745,481.305573 246.097839,486.583557 
	C246.685760,488.549896 248.283966,489.510681 250.283295,489.419525 
	C252.448074,489.320770 252.561951,487.523926 252.992508,485.881836 
	C254.110931,481.616455 253.166672,477.366913 252.962372,472.369049 
M294.629211,525.509399 
	C295.750732,529.816467 296.699219,534.193481 298.739075,538.186340 
	C300.588989,541.807373 303.907837,541.123901 307.014648,540.620972 
	C308.810516,540.330200 309.346069,538.997498 309.078583,537.282959 
	C308.356537,532.653870 300.698547,524.031738 296.374054,522.936462 
	C294.596375,522.486206 294.403717,523.494568 294.629211,525.509399 
M358.221436,638.222656 
	C359.827209,639.092285 361.360962,640.150452 363.052124,640.796631 
	C368.295288,642.799988 372.201538,639.859497 372.264862,633.775085 
	C369.160156,634.683838 366.380676,637.271362 362.854523,635.476990 
	C359.814148,633.929810 356.820526,632.384155 356.208160,627.213135 
	C354.354309,632.103271 355.513763,635.002991 358.221436,638.222656 
M211.524475,454.856079 
	C212.938660,458.167664 213.277145,462.154083 217.097961,464.250031 
	C219.603607,460.650269 218.716034,456.950409 218.414185,453.433167 
	C218.197159,450.904572 217.108185,448.251038 213.908920,448.643646 
	C210.707672,449.036469 211.056473,451.711945 211.524475,454.856079 
M211.634064,530.692932 
	C210.556702,530.129150 209.350922,529.799866 208.269485,530.340088 
	C205.701736,531.622864 203.115906,533.133728 203.689392,536.600464 
	C204.001709,538.488403 210.164352,541.452942 211.751801,540.445129 
	C214.499252,538.700745 215.085709,536.054993 213.684143,533.091431 
	C213.340714,532.365234 212.731247,531.764954 211.634064,530.692932 
M306.895691,136.970367 
	C302.223175,138.884796 300.888916,141.509979 302.530334,145.559448 
	C303.688171,148.415878 306.940399,149.356995 308.878723,147.396576 
	C311.586334,144.658096 310.939880,139.473389 306.895691,136.970367 
M228.546585,465.873444 
	C228.326340,463.737488 227.144424,462.548004 225.006393,462.404816 
	C223.674469,462.315643 222.452515,462.977478 222.547318,464.290314 
	C222.844040,468.399567 223.102570,472.583710 225.511642,476.899536 
	C228.358002,473.276733 227.621124,469.727783 228.546585,465.873444 
M349.927490,414.285431 
	C351.663422,413.520569 353.257385,412.438049 352.941132,410.346161 
	C352.725677,408.920868 350.992218,408.044800 349.881470,408.443237 
	C346.386902,409.696625 342.867737,411.124390 339.794556,414.791504 
	C343.686798,415.288086 346.365540,412.517181 349.927490,414.285431 
M260.706665,275.828949 
	C262.467743,277.674835 264.552002,278.729370 266.698303,276.788116 
	C268.326904,275.315125 267.480713,273.407349 266.419464,271.841339 
	C265.258087,270.127594 263.754578,268.613892 261.511017,269.608887 
	C258.745422,270.835358 259.890228,273.138153 260.706665,275.828949 
M300.759033,261.327301 
	C300.282227,263.093842 299.818420,264.857910 301.995728,266.488068 
	C305.020752,264.432556 308.501617,262.794830 308.762177,257.828552 
	C305.405945,257.837799 303.138916,258.909546 300.759033,261.327301 
M265.483948,490.338226 
	C264.011871,488.115936 265.728790,484.838928 263.167786,482.679413 
	C261.146515,488.974274 262.695312,494.179626 267.270538,496.922333 
	C268.055725,494.499146 264.971527,493.267090 265.483948,490.338226 
M147.127335,498.736816 
	C146.773682,500.161163 147.532471,500.853973 148.598022,500.004700 
	C151.181305,497.945740 153.394363,495.459381 154.965546,492.519165 
	C155.560715,491.405365 155.376648,490.258728 153.542358,489.678284 
	C151.561417,492.487671 150.213455,495.911926 147.127335,498.736816 
M387.771301,529.486633 
	C389.274292,530.973572 390.774414,531.179138 391.488251,528.917480 
	C391.983734,527.347595 391.074036,525.752258 389.430115,525.556885 
	C386.857208,525.251221 387.070435,527.127625 387.771301,529.486633 
M389.127258,224.790466 
	C388.014496,225.655151 386.500122,226.273651 387.002686,228.151596 
	C390.183624,228.814392 390.886810,228.815460 391.376190,227.807449 
	C392.195282,226.120422 391.696503,224.973236 389.127258,224.790466 
M406.222534,534.160400 
	C404.105194,531.840332 403.461456,532.066345 400.847046,536.233154 
	C402.995239,536.922852 404.335999,535.513855 406.222534,534.160400 
z"/>
<path fill="#000000" opacity="1.000000" stroke="none" 
	d="
M171.955933,596.324463 
	C171.566757,595.252686 170.826767,594.405334 171.713867,593.757874 
	C172.786575,592.975037 173.710693,593.832703 174.210281,594.604248 
	C175.879532,597.182007 176.705460,600.069885 176.188812,603.131165 
	C175.582062,606.726257 174.856079,610.311401 173.963959,613.845886 
	C172.481064,619.720947 169.351410,621.396667 163.562485,619.559937 
	C156.454178,617.304626 149.121567,615.585144 143.678391,609.801208 
	C141.863007,607.872131 141.572647,606.710266 144.059875,605.285339 
	C148.711517,615.022644 158.426361,614.996643 166.684891,617.602661 
	C168.187469,618.076843 169.893188,617.237732 170.422363,615.728149 
	C172.593201,609.535461 175.746765,603.372314 171.955933,596.324463 
z"/>
<path fill="#000000" opacity="1.000000" stroke="none" 
	d="
M407.283844,577.072632 
	C409.787170,575.058044 409.918610,577.453064 410.096191,578.555176 
	C410.487823,580.985840 409.634827,583.196960 407.421570,584.495544 
	C404.813385,586.025757 402.325928,587.538879 402.476929,591.442810 
	C399.990021,588.867615 399.700989,586.506348 402.583282,584.942566 
	C405.752197,583.223328 407.137054,580.808472 407.283844,577.072632 
z"/>
<path fill="#000000" opacity="1.000000" stroke="none" 
	d="
M274.467773,546.309509 
	C274.013184,543.161194 272.530609,540.775635 271.398987,538.125427 
	C275.846497,539.822327 277.796234,544.458374 276.166229,549.156738 
	C274.436615,549.106995 274.784668,547.690308 274.467773,546.309509 
z"/>
</svg>