<svg version="1.1" id="Layer_1" xmlns="http://www.w3.org/2000/svg" xmlns:xlink="http://www.w3.org/1999/xlink" x="0px" y="0px"
	 width="100%" viewBox="0 0 222 227" enable-background="new 0 0 222 227" xml:space="preserve">
<path fill="none" opacity="1.000000" stroke="#000000" stroke-linecap="round" stroke-linejoin="round" stroke-width="2.000000"
	d="
M139.000000,174.500000 
	C140.666672,179.000000 142.591522,183.425964 143.910629,188.025635 
	C144.813187,191.172821 146.243317,193.341492 149.502884,193.985413 
	C151.987106,194.476166 152.402267,195.624832 151.592163,198.031036 
	C150.875443,200.159790 152.238434,201.969971 154.445709,200.889130 
	C157.801102,199.246124 159.395020,204.337646 162.500000,202.500000 
"/>
<path fill="none" opacity="1.000000" stroke="#000000" stroke-linecap="round" stroke-linejoin="round" stroke-width="2.000000"
	d="
M40.500000,52.500000 
	C42.074207,54.293186 40.279995,56.597408 41.460396,58.524261 
	C42.250820,59.814526 42.062820,61.485416 44.494102,61.612656 
	C48.067589,61.799667 50.469791,66.893257 47.834507,68.767281 
	C45.417839,70.485847 44.099964,73.983284 40.383755,74.035515 
	C38.661442,72.025673 39.259556,69.181114 37.947624,66.990341 
	C35.482800,66.527428 33.745708,68.590218 31.500000,69.000000 
"/>
<path fill="none" opacity="1.000000" stroke="#000000" stroke-linecap="round" stroke-linejoin="round" stroke-width="2.000000"
	d="
M174.000000,136.000000 
	C173.662292,137.311951 172.287140,138.442657 173.487152,140.009827 
	C175.567917,142.727234 178.548981,145.290512 181.497742,145.262497 
	C188.606567,145.194962 191.515793,148.307938 191.062103,154.433395 
	C192.183304,155.916809 193.443420,155.764374 193.955429,155.431442 
	C197.573807,153.078720 197.918411,155.603073 197.358932,157.966599 
	C196.987137,159.537231 197.272064,161.011719 197.000000,162.500000 
"/>
<path fill="none" opacity="1.000000" stroke="#000000" stroke-linecap="round" stroke-linejoin="round" stroke-width="2.000000"
	d="
M21.500000,83.500000 
	C21.600691,84.183159 21.124176,85.137611 22.008944,85.476662 
	C26.876484,87.341965 28.668047,91.054703 28.015442,95.542496 
	C30.036020,97.454834 31.182138,95.880531 32.504440,95.516113 
	C34.986660,94.832024 37.634678,93.749092 38.028770,97.997330 
	C38.333286,101.279945 40.997150,100.342407 43.000057,100.499260 
	C49.226101,100.986801 50.776756,102.757568 50.000000,108.500000 
"/>
<path fill="none" opacity="1.000000" stroke="#000000" stroke-linecap="round" stroke-linejoin="round" stroke-width="2.000000"
	d="
M127.500000,179.500000 
	C128.347748,184.164185 129.195496,188.828354 130.025070,193.392548 
	C129.567871,195.401199 127.416245,195.637589 126.549263,197.030655 
	C125.938683,198.011719 124.746750,199.139679 126.001579,200.498535 
	C130.138275,204.978088 126.737152,207.469421 123.496208,209.995132 
	C123.023521,210.363510 122.500000,210.666656 122.000000,211.000000 
"/>
<path fill="none" opacity="1.000000" stroke="#000000" stroke-linecap="round" stroke-linejoin="round" stroke-width="2.000000"
	d="
M102.000000,93.000000 
	C91.325272,86.128464 77.030045,87.228096 69.500000,95.500000 
"/>
<path fill="none" opacity="1.000000" stroke="#000000" stroke-linecap="round" stroke-linejoin="round" stroke-width="2.000000"
	d="
M118.500000,172.500000 
	C107.143463,174.179291 96.711555,170.927261 86.500000,166.500000 
"/>
<path fill="none" opacity="1.000000" stroke="#000000" stroke-linecap="round" stroke-linejoin="round" stroke-width="2.000000"
	d="
M153.500000,92.500000 
	C143.354568,85.709625 130.736237,86.550842 123.500000,94.500000 
"/>
<path fill="none" opacity="1.000000" stroke="#000000" stroke-linecap="round" stroke-linejoin="round" stroke-width="2.000000"
	d="
M133.500000,60.500000 
	C124.439148,56.956871 114.950081,57.410320 105.500000,57.500000 
"/>
<path fill="none" opacity="1.000000" stroke="#000000" stroke-linecap="round" stroke-linejoin="round" stroke-width="2.000000"
	d="
M118.500000,99.500000 
	C116.481186,99.938171 117.566162,101.521568 117.554352,102.500656 
	C117.457848,110.499489 117.500000,118.500000 117.500000,126.500000 
"/>
<path fill="none" opacity="1.000000" stroke="#000000" stroke-linecap="round" stroke-linejoin="round" stroke-width="2.000000"
	d="
M51.000000,159.000000 
	C48.787289,156.614120 46.481270,156.885483 45.076588,159.540527 
	C42.929222,163.599319 40.900017,162.448166 38.483017,160.016891 
	C37.687420,159.216583 37.128620,157.742767 34.678490,159.204712 
	C34.317085,159.900909 33.490578,161.493042 32.693871,163.027771 
	C30.200054,162.886536 27.550913,163.611145 26.500000,160.500000 
"/>
<path fill="none" opacity="1.000000" stroke="#000000" stroke-linecap="round" stroke-linejoin="round" stroke-width="2.000000"
	d="
M70.000000,163.500000 
	C66.679573,165.718033 64.985519,169.435349 62.223000,172.221130 
	C60.438587,174.020584 57.868416,177.446121 61.365166,181.128052 
	C63.295868,183.161011 62.341488,185.952118 58.990261,186.431992 
	C57.402836,186.659317 55.863319,186.427475 55.890133,189.198471 
	C56.758148,190.370926 58.302170,192.098907 58.500000,194.500000 
"/>
<path fill="none" opacity="1.000000" stroke="#000000" stroke-linecap="round" stroke-linejoin="round" stroke-width="2.000000"
	d="
M103.000000,147.500000 
	C102.978073,152.389801 106.729347,151.919281 109.468018,151.346954 
	C112.543686,150.704208 115.450058,150.211517 118.499214,151.003006 
	C121.142059,151.689041 122.662201,149.722610 124.500000,148.500000 
"/>
<path fill="none" opacity="1.000000" stroke="#000000" stroke-linecap="round" stroke-linejoin="round" stroke-width="3.000000"
	d="
M53.500000,41.500000 
	C51.635757,39.511650 53.021038,38.024624 54.530510,37.047112 
	C59.576580,33.779331 64.072746,29.692457 70.003853,26.969906 
	C71.442268,31.937897 76.409492,30.523407 79.929359,31.598938 
	C80.388657,34.217087 77.983528,35.418255 77.959892,37.465714 
	C82.816147,41.616661 85.608337,41.131062 89.610329,35.340363 
	C89.100555,34.599491 88.572769,33.783020 87.993958,33.004490 
	C87.357559,32.148510 86.674210,31.327431 85.952026,30.416348 
	C86.132050,26.827528 90.850769,25.086290 90.000000,21.000000 
"/>
<path fill="none" opacity="1.000000" stroke="#000000" stroke-linecap="round" stroke-linejoin="round" stroke-width="2.000000"
	d="
M166.500000,30.500000 
	C156.695160,25.580368 146.846939,20.745310 135.986542,18.567116 
	C134.648254,18.298710 132.703079,16.565939 131.734726,19.923491 
	C131.359253,21.225355 128.058853,21.885677 125.984695,22.443035 
	C123.542938,23.099178 123.041405,24.563675 124.051285,26.472874 
	C125.329353,28.889099 125.516144,30.897366 122.993149,32.489136 
	C120.610779,33.992180 118.445618,35.558865 115.369392,33.168053 
	C114.278915,32.320545 113.253273,31.212082 112.051109,30.564062 
	C112.449837,27.661814 116.394745,26.820807 115.935883,23.231398 
	C114.055824,22.082935 111.351105,21.806681 110.000000,19.500000 
"/>
<path fill="none" opacity="1.000000" stroke="#000000" stroke-linecap="round" stroke-linejoin="round" stroke-width="2.000000"
	d="
M95.000000,177.000000 
	C90.286415,175.480576 85.761269,173.537155 81.357109,170.926880 
	C78.508263,174.504135 77.751076,179.119308 75.520851,183.011948 
	C72.501381,188.282120 76.513145,191.241806 80.001099,194.459091 
	C78.075882,195.922318 76.480148,197.135117 74.900551,198.335663 
	C79.781097,206.400543 79.682220,206.993820 73.500000,207.500000 
"/>
<path fill="none" opacity="1.000000" stroke="#000000" stroke-linecap="round" stroke-linejoin="round" stroke-width="2.000000"
	d="
M145.000000,193.500000 
	C144.000000,194.833328 142.646576,196.041580 142.115875,197.541016 
	C141.717453,198.666718 140.311127,200.728531 142.041000,201.393295 
	C146.976196,203.289841 143.789261,205.485260 142.433731,207.454376 
	C141.871674,208.270859 140.577148,208.583084 139.615723,209.124619 
	C139.889862,209.583084 140.164017,210.041534 140.438156,210.500000 
	C141.792114,210.500000 143.146057,210.500000 144.500000,210.500000 
"/>
<path fill="none" opacity="1.000000" stroke="#000000" stroke-linecap="round" stroke-linejoin="round" stroke-width="2.000000"
	d="
M112.000000,193.000000 
	C110.174973,194.014954 108.349945,195.029922 106.492737,196.062775 
	C106.264351,198.027588 107.445740,199.503113 108.510239,200.992691 
	C110.435303,203.686478 109.705185,204.963379 106.512207,205.564819 
	C104.467003,205.950073 102.265564,206.459091 101.000000,208.500000 
"/>
<path fill="none" opacity="1.000000" stroke="#000000" stroke-linecap="round" stroke-linejoin="round" stroke-width="3.000000"
	d="
M131.500000,18.000000 
	C124.768501,16.108276 117.995140,15.716725 110.987244,16.361290 
	C105.977592,16.822065 100.947426,16.859095 95.995026,17.977985 
	C89.031013,19.551355 82.187973,21.562811 75.556702,24.145586 
	C74.163437,24.688244 71.487373,24.795095 71.500000,27.500000 
"/>
<path fill="none" opacity="1.000000" stroke="#000000" stroke-linecap="round" stroke-linejoin="round" stroke-width="2.000000"
	d="
M127.500008,36.500000 
	C126.596329,41.186111 125.692642,45.872223 124.712570,50.954460 
	C104.564529,48.317909 86.600456,52.666100 71.500000,66.500000 
"/>
<path fill="none" opacity="1.000000" stroke="#000000" stroke-linecap="round" stroke-linejoin="round" stroke-width="3.000000"
	d="
M150.500000,27.500000 
	C150.643158,30.097050 154.545883,30.633839 153.952545,33.490143 
	C153.364990,36.318523 149.789413,35.020626 148.525681,37.016258 
	C148.114716,37.665234 148.004944,38.504944 147.757416,39.257416 
	C147.426392,39.055813 147.095367,38.854210 146.764343,38.652607 
	C148.342896,40.935070 149.921448,43.217533 151.500000,45.499996 
"/>
<path fill="none" opacity="1.000000" stroke="#000000" stroke-linecap="round" stroke-linejoin="round" stroke-width="2.000000"
	d="
M177.000000,129.000000 
	C173.661377,133.988190 173.782440,133.666336 178.957565,135.612839 
	C182.424362,136.916779 185.969650,137.606232 189.500000,138.500000 
"/>
<path fill="none" opacity="1.000000" stroke="#000000" stroke-linecap="round" stroke-linejoin="round" stroke-width="2.000000"
	d="
M198.500000,166.500000 
	C198.317322,165.290283 199.155823,163.788818 196.469223,162.774933 
	C194.939957,162.441986 192.992065,164.740723 189.968369,164.447998 
	C188.967896,162.801193 187.787033,160.857468 186.413666,158.596863 
	C183.016983,161.935043 177.447250,163.542191 179.329681,169.976959 
	C187.278610,171.052170 187.922455,172.164291 185.000000,179.500000 
"/>
<path fill="none" opacity="1.000000" stroke="#000000" stroke-linecap="round" stroke-linejoin="round" stroke-width="2.000000"
	d="
M58.500000,98.500000 
	C56.314354,107.049820 56.330635,115.769020 56.500000,124.500000 
"/>
<path fill="none" opacity="1.000000" stroke="#000000" stroke-linecap="round" stroke-linejoin="round" stroke-width="2.000000"
	d="
M143.500000,171.500000 
	C131.783524,179.392029 118.362206,179.565430 104.999313,179.977753 
	C104.671440,179.987839 104.349838,179.607162 103.997398,179.509384 
	C101.112785,178.709015 98.049690,175.665039 95.510262,180.005997 
	C92.448357,185.240097 92.757172,189.242477 96.517784,192.982117 
	C97.607841,194.066086 98.911674,194.935074 99.741264,195.600739 
	C98.879181,198.879181 95.797501,198.797501 94.907654,200.894272 
	C95.238838,204.451889 99.296806,205.357681 100.000000,208.500000 
"/>
<path fill="none" opacity="1.000000" stroke="#000000" stroke-linecap="round" stroke-linejoin="round" stroke-width="2.000000"
	d="
M21.500000,149.500000 
	C19.918118,144.155380 19.918118,144.155380 26.286745,142.421951 
	C28.823572,143.051132 29.659473,146.473358 32.341282,146.918488 
	C34.937546,145.703156 35.081528,142.686142 36.996288,140.997223 
	C39.279991,141.290497 41.321815,142.847595 41.801258,144.555786 
	C42.439537,146.829849 42.127480,149.655075 41.354794,151.951141 
	C40.732063,153.801605 39.032085,153.739182 36.934753,152.622559 
	C32.671932,150.353043 32.092335,150.870361 32.038609,156.000397 
	C32.009418,158.787979 29.224226,159.741913 28.500000,162.000000 
"/>
<path fill="none" opacity="1.000000" stroke="#000000" stroke-linecap="round" stroke-linejoin="round" stroke-width="2.000000"
	d="
M93.000000,189.500000 
	C87.166725,191.236191 86.903198,191.605133 88.000000,196.500000 
	C89.297188,202.289154 88.424065,203.631134 82.509308,203.321915 
	C81.074532,203.246918 80.139565,203.643600 79.000000,204.000000 
"/>
<path fill="none" opacity="1.000000" stroke="#000000" stroke-linecap="round" stroke-linejoin="round" stroke-width="2.000000"
	d="
M211.500000,98.500000 
	C211.701187,103.145447 207.654739,105.944092 206.862717,109.978142 
	C203.112778,110.205566 200.150009,104.869751 196.550873,109.043869 
	C194.777817,111.100166 195.863235,117.555946 198.002106,119.998161 
	C200.380753,122.714188 202.336349,119.705971 204.753067,119.476097 
	C207.702011,120.996300 207.289139,125.143517 210.163055,126.621391 
	C207.952438,131.761398 207.092316,125.835846 205.498322,126.494659 
	C203.552490,127.747444 201.608292,129.005951 199.687256,130.249451 
	C198.282425,128.382294 197.065094,126.764336 195.812912,125.100067 
	C189.889481,131.657578 189.889481,131.657578 193.499817,137.999649 
	C194.833099,137.332870 196.103516,136.368378 197.514786,136.069901 
	C199.630737,135.622345 202.208786,135.973160 202.353394,138.508362 
	C202.511276,141.276505 204.381210,143.090042 205.000000,145.500000 
"/>
<path fill="none" opacity="1.000000" stroke="#000000" stroke-linecap="round" stroke-linejoin="round" stroke-width="3.000000"
	d="
M173.500000,35.500000 
	C168.791672,35.874992 164.334381,38.007286 160.018661,37.019054 
	C158.485657,38.358723 158.926315,39.552792 159.055450,40.492378 
	C159.498428,43.715511 157.728897,45.595642 155.012161,45.359924 
	C150.828598,44.996941 149.628387,47.318012 148.442017,50.478233 
	C147.531616,52.903397 147.095779,55.631218 145.000000,57.500000 
"/>
<path fill="none" opacity="1.000000" stroke="#000000" stroke-linecap="round" stroke-linejoin="round" stroke-width="2.000000"
	d="
M113.000000,180.500000 
	C111.913475,184.461670 112.669731,188.500916 112.532745,192.501114 
	C112.415916,195.912430 116.355919,196.431351 117.640778,199.312592 
	C114.827141,202.501541 114.758705,205.231262 119.475975,207.061905 
	C121.534424,207.860718 122.072701,210.100357 121.406921,211.966797 
	C120.671875,214.027451 119.068405,215.556824 116.499756,215.515152 
	C112.834053,215.455673 109.166664,215.500000 105.500000,215.500000 
"/>
<path fill="none" opacity="1.000000" stroke="#000000" stroke-linecap="round" stroke-linejoin="round" stroke-width="2.000000"
	d="
M170.500000,104.500000 
	C170.500000,110.833336 170.500000,117.166664 170.500000,123.500000 
"/>
<path fill="none" opacity="1.000000" stroke="#000000" stroke-linecap="round" stroke-linejoin="round" stroke-width="2.000000"
	d="
M54.500000,89.500000 
	C50.040680,86.192078 45.313179,83.615570 39.446121,84.137489 
	C37.401649,84.568314 37.075188,86.908524 34.890274,88.419868 
	C33.666283,86.993958 32.354996,85.466347 30.958603,83.839592 
	C29.323528,84.735291 28.472107,86.708160 26.500000,87.000000 
"/>
<path fill="none" opacity="1.000000" stroke="#000000" stroke-linecap="round" stroke-linejoin="round" stroke-width="2.000000"
	d="
M23.000000,143.000000 
	C22.286840,135.740341 28.252665,141.838669 30.475657,138.863342 
	C30.521811,137.213516 30.262083,134.626450 32.570709,132.966995 
	C34.727459,132.908813 35.065369,135.651947 36.960308,135.996872 
	C39.212605,134.793610 37.834949,131.955276 39.499504,130.499771 
	C35.222713,125.365807 35.222713,125.365807 28.336355,130.112808 
	C25.587906,129.427841 25.624620,125.317123 22.500000,125.000000 
"/>
<path fill="none" opacity="1.000000" stroke="#000000" stroke-linecap="round" stroke-linejoin="round" stroke-width="2.000000"
	d="
M17.000000,105.000000 
	C16.167274,111.166664 16.167274,117.333336 17.000000,123.500000 
"/>
<path fill="none" opacity="1.000000" stroke="#000000" stroke-linecap="round" stroke-linejoin="round" stroke-width="2.000000"
	d="
M54.500000,42.000000 
	C56.453274,44.993744 59.157883,42.728149 61.677864,43.004120 
	C63.051674,44.775410 63.025093,47.471474 65.215805,49.114265 
	C68.467621,47.701435 73.077583,47.964905 73.962517,42.993328 
	C74.629868,39.244083 69.704262,40.208244 69.188622,37.215214 
	C70.026047,35.512814 71.013023,33.506409 72.000000,31.500000 
"/>
<path fill="none" opacity="1.000000" stroke="#000000" stroke-linecap="round" stroke-linejoin="round" stroke-width="2.000000"
	d="
M202.500000,88.500000 
	C201.245010,89.795189 201.505112,91.427063 201.507309,93.164543 
	C201.022110,93.272522 200.415848,93.623680 200.014893,93.462875 
	C196.433792,92.026619 194.456085,92.784218 193.901321,96.986977 
	C193.585983,99.376083 191.655609,101.181297 189.020645,100.427803 
	C185.039413,99.289345 181.345932,101.122932 177.500000,101.000000 
"/>
<path fill="none" opacity="1.000000" stroke="#000000" stroke-linecap="round" stroke-linejoin="round" stroke-width="3.000000"
	d="
M90.500000,23.000000 
	C91.199310,24.101374 92.436661,24.189405 93.507027,24.473543 
	C96.137833,25.171917 96.621834,26.744490 95.487518,28.993706 
	C94.491707,30.968288 94.592842,33.506348 96.531425,33.754326 
	C98.502541,34.006466 100.711769,35.864906 103.104240,33.610630 
	C104.886673,31.931164 106.794289,30.484465 105.859398,28.054083 
	C105.351036,26.732512 104.558624,25.387354 103.996185,24.001919 
	C104.929482,21.068533 108.927086,20.733177 109.500000,17.500000 
"/>
<path fill="none" opacity="1.000000" stroke="#000000" stroke-linecap="round" stroke-linejoin="round" stroke-width="3.000000"
	d="
M131.000000,21.500000 
	C131.337112,24.057859 134.819351,24.328352 135.058548,26.712828 
	C134.759750,29.628304 130.648788,29.296263 130.945679,32.505028 
	C131.197189,35.223572 133.599350,35.887192 135.000000,37.500000 
"/>
<path fill="none" opacity="1.000000" stroke="#000000" stroke-linecap="round" stroke-linejoin="round" stroke-width="2.000000"
	d="
M17.500000,98.500000 
	C17.538609,101.463417 16.704811,104.886284 21.496273,105.088379 
	C22.189827,105.117630 23.193468,106.222588 23.438351,107.018959 
	C24.564926,110.682663 26.374981,111.563347 29.513990,109.017250 
	C31.160868,107.681458 32.492401,108.654076 33.483353,110.012146 
	C36.456417,114.086639 36.334045,116.242188 33.000275,121.499496 
	C30.534229,121.659470 29.299591,119.561859 27.838089,118.409843 
	C24.880907,118.941750 24.437265,121.800667 22.500000,123.000000 
"/>
<path fill="none" opacity="1.000000" stroke="#000000" stroke-linecap="round" stroke-linejoin="round" stroke-width="2.000000"
	d="
M195.500000,105.499992 
	C189.666672,106.499992 183.833328,107.499992 178.000000,108.499992 
"/>
<path fill="none" opacity="1.000000" stroke="#000000" stroke-linecap="round" stroke-linejoin="round" stroke-width="2.000000"
	d="
M61.500000,172.000000 
	C60.177849,171.623779 58.855701,171.247559 57.665340,170.908844 
	C54.507633,172.650040 55.617100,177.447250 51.980938,178.429428 
	C50.058903,178.948578 48.745029,177.292282 47.650761,176.156067 
	C44.399929,177.766373 41.986198,182.278137 37.500000,178.500000 
"/>
<path fill="none" opacity="1.000000" stroke="#000000" stroke-linecap="round" stroke-linejoin="round" stroke-width="2.000000"
	d="
M130.000000,195.500000 
	C130.500000,196.000000 130.931824,196.603867 131.510635,196.983795 
	C136.814911,200.465485 136.822357,200.454147 134.501099,205.997589 
	C136.150040,207.236588 138.551483,206.820084 140.000000,208.500000 
"/>
<path fill="none" opacity="1.000000" stroke="#000000" stroke-linecap="round" stroke-linejoin="round" stroke-width="2.000000"
	d="
M75.500000,108.500000 
	C81.064384,110.572090 86.723183,111.039253 92.500000,109.500000 
"/>
<path fill="none" opacity="1.000000" stroke="#000000" stroke-linecap="round" stroke-linejoin="round" stroke-width="2.000000"
	d="
M92.500000,96.500000 
	C87.801865,93.121719 80.662003,93.860321 78.000000,98.000000 
"/>
<path fill="none" opacity="1.000000" stroke="#000000" stroke-linecap="round" stroke-linejoin="round" stroke-width="2.000000"
	d="
M54.500000,157.500000 
	C48.924377,160.965271 48.544804,159.033615 50.999619,167.498337 
	C49.253349,169.820068 46.422874,167.443558 44.059772,169.319229 
	C43.390987,172.085022 45.761669,175.536316 43.500000,178.500000 
"/>
<path fill="none" opacity="1.000000" stroke="#000000" stroke-linecap="round" stroke-linejoin="round" stroke-width="2.000000"
	d="
M166.500000,77.000000 
	C171.126755,75.013824 172.971268,69.538406 177.973785,67.919022 
	C179.186264,67.526535 179.835266,65.931229 179.475449,64.506195 
	C178.149094,59.253189 180.539429,57.295696 186.275787,58.122475 
	C185.365585,55.241066 184.694565,53.116814 184.028854,51.009354 
	C175.639389,48.288956 175.000000,48.644173 175.000000,56.000084 
	C172.063492,57.587433 169.382217,54.835743 166.517853,55.594372 
	C164.751862,46.260113 164.751862,46.260113 169.978760,45.005100 
	C170.783875,42.243225 167.961731,40.207653 168.500000,37.500000 
"/>
<path fill="none" opacity="1.000000" stroke="#000000" stroke-linecap="round" stroke-linejoin="round" stroke-width="6.000000"
	d="
M131.000000,139.000000 
	C129.598999,143.645172 125.723778,142.666016 122.508919,142.394455 
	C120.132095,142.193710 118.153961,141.966263 115.946434,143.418579 
	C112.778999,145.502411 110.010277,142.066742 107.001144,142.100830 
	C104.162819,142.132950 101.482666,144.260376 98.516922,143.438919 
	C96.767830,142.954437 95.588478,141.611374 96.000000,139.500000 
"/>
<path fill="none" opacity="1.000000" stroke="#000000" stroke-linecap="round" stroke-linejoin="round" stroke-width="2.000000"
	d="
M146.500000,169.500000 
	C148.216599,169.473419 149.007507,170.156738 149.606827,171.964584 
	C150.535385,174.765442 152.330811,177.266586 153.450684,180.020065 
	C154.436157,182.443069 156.010071,184.527893 158.489990,184.355835 
	C161.585480,184.141068 163.588074,184.390930 163.484421,187.999557 
	C163.415619,190.394943 165.145630,190.272552 166.482162,189.930313 
	C168.439240,189.429199 170.028717,189.689713 171.500000,191.000000 
"/>
<path fill="none" opacity="1.000000" stroke="#000000" stroke-linecap="round" stroke-linejoin="round" stroke-width="2.000000"
	d="
M108.000000,100.000000 
	C109.571304,108.269058 109.804520,116.655571 109.263992,124.984680 
	C109.147446,126.780518 110.297203,128.769440 109.000000,130.500000 
"/>
<path fill="none" opacity="1.000000" stroke="#000000" stroke-linecap="round" stroke-linejoin="round" stroke-width="2.000000"
	d="
M118.000000,35.000000 
	C117.666664,39.833332 117.333336,44.666668 117.000000,49.500000 
"/>
<path fill="none" opacity="1.000000" stroke="#000000" stroke-linecap="round" stroke-linejoin="round" stroke-width="2.000000"
	d="
M200.500000,81.500000 
	C198.934631,81.381241 197.474609,81.441185 196.490372,82.993896 
	C193.748138,87.320076 190.675125,86.267944 187.490250,83.511261 
	C186.865677,82.970657 186.115448,82.575211 185.391830,82.091881 
	C186.146347,80.548782 185.444794,78.648270 187.339218,77.250000 
	C189.000000,77.250000 191.000000,77.250000 193.192215,77.250000 
	C195.155716,74.697723 193.291168,70.414291 196.500000,68.000000 
"/>
<path fill="none" opacity="1.000000" stroke="#000000" stroke-linecap="round" stroke-linejoin="round" stroke-width="3.000000"
	d="
M174.000000,174.000000 
	C174.750031,174.861099 175.059326,175.833878 175.018616,177.000656 
	C174.912292,180.047089 175.588089,181.565430 179.055786,179.598328 
	C180.688324,178.672256 183.042191,178.101303 184.500000,180.500000 
"/>
<path fill="none" opacity="1.000000" stroke="#000000" stroke-linecap="round" stroke-linejoin="round" stroke-width="2.000000"
	d="
M178.500000,121.500000 
	C181.040421,122.843353 183.798706,122.529396 186.499527,122.476089 
	C188.584274,122.434944 190.592667,122.610687 192.500000,123.500000 
"/>
<path fill="none" opacity="1.000000" stroke="#000000" stroke-linecap="round" stroke-linejoin="round" stroke-width="2.000000"
	d="
M152.500000,25.000000 
	C151.234436,27.040916 149.032410,27.508333 146.990143,27.954958 
	C140.958878,29.273933 140.941162,29.192915 143.035828,35.101063 
	C142.535919,35.393665 142.043930,35.898266 141.495987,35.968910 
	C135.875717,36.693542 133.393570,40.065231 133.534866,45.499092 
	C133.598953,47.963924 132.729431,49.873375 131.000000,51.500000 
"/>
<path fill="none" opacity="1.000000" stroke="#000000" stroke-linecap="round" stroke-linejoin="round" stroke-width="2.000000"
	d="
M42.000000,54.500000 
	C44.597851,54.759144 46.927570,54.079834 48.560406,52.273914 
	C52.469234,54.240704 48.526306,58.760967 52.001095,60.499592 
	C56.308117,59.474785 60.288605,58.121941 59.980576,52.330406 
	C56.790203,49.780190 49.350780,50.021122 53.000000,42.500000 
"/>
<path fill="none" opacity="1.000000" stroke="#000000" stroke-linecap="round" stroke-linejoin="round" stroke-width="2.000000"
	d="
M166.000000,152.000000 
	C170.666672,155.666672 175.333328,159.333344 180.000000,163.000000 
"/>
<path fill="none" opacity="1.000000" stroke="#000000" stroke-linecap="round" stroke-linejoin="round" stroke-width="2.000000"
	d="
M142.500000,40.500000 
	C141.000000,45.000000 139.500000,49.500000 138.000000,54.000000 
"/>
<path fill="none" opacity="1.000000" stroke="#000000" stroke-linecap="round" stroke-linejoin="round" stroke-width="2.000000"
	d="
M49.000000,114.000000 
	C50.556236,109.364143 50.215530,108.706779 45.999359,108.514030 
	C44.169849,108.430397 42.333332,108.500000 40.500000,108.500000 
"/>
<path fill="none" opacity="1.000000" stroke="#000000" stroke-linecap="round" stroke-linejoin="round" stroke-width="2.000000"
	d="
M29.500000,66.500000 
	C29.005419,67.465584 28.916077,68.224655 29.973558,69.034523 
	C31.582674,70.266876 32.321045,71.549026 31.669083,74.044182 
	C30.787321,77.418808 33.097389,78.103912 35.999985,77.000031 
	C36.805779,78.953629 36.083286,81.416679 38.000000,83.000000 
"/>
<path fill="none" opacity="1.000000" stroke="#000000" stroke-linecap="round" stroke-linejoin="round" stroke-width="3.000000"
	d="
M108.500000,36.500000 
	C110.779778,40.627975 109.703247,45.143215 110.000000,49.500000 
"/>
<path fill="none" opacity="1.000000" stroke="#000000" stroke-linecap="round" stroke-linejoin="round" stroke-width="2.000000"
	d="
M188.500000,90.500000 
	C183.790115,90.912178 179.904526,93.705681 175.500000,95.000000 
"/>
<path fill="none" opacity="1.000000" stroke="#000000" stroke-linecap="round" stroke-linejoin="round" stroke-width="2.000000"
	d="
M61.500000,139.500000 
	C63.589108,144.188751 66.214622,148.547409 69.500000,152.500000 
"/>
<path fill="none" opacity="1.000000" stroke="#000000" stroke-linecap="round" stroke-linejoin="round" stroke-width="2.000000"
	d="
M105.000000,180.500000 
	C103.717857,184.747025 102.842026,189.072189 102.500000,193.500000 
"/>
<path fill="none" opacity="1.000000" stroke="#000000" stroke-linecap="round" stroke-linejoin="round" stroke-width="2.000000"
	d="
M158.000000,185.000000 
	C158.000000,185.833328 158.346191,186.929947 157.944672,187.457916 
	C155.000549,191.329239 156.796143,193.456848 160.625717,194.740356 
	C160.643051,197.008713 159.879150,198.770065 159.000000,200.500000 
"/>
<path fill="none" opacity="1.000000" stroke="#000000" stroke-linecap="round" stroke-linejoin="round" stroke-width="2.000000"
	d="
M196.500000,67.000000 
	C195.666672,66.500000 194.849457,65.970436 193.997116,65.505287 
	C190.864914,63.795979 188.494522,64.011864 187.459579,67.989487 
	C187.263199,68.744286 186.543365,69.362885 186.077896,70.026024 
	C183.722992,69.239067 181.409821,68.556503 179.500000,67.000000 
"/>
<path fill="none" opacity="1.000000" stroke="#000000" stroke-linecap="round" stroke-linejoin="round" stroke-width="2.000000"
	d="
M142.500000,173.000000 
	C145.041214,176.906891 146.800598,181.189041 148.500000,185.500000 
"/>
<path fill="none" opacity="1.000000" stroke="#000000" stroke-linecap="round" stroke-linejoin="round" stroke-width="2.000000"
	d="
M86.000000,41.000000 
	C87.500000,45.166664 89.000000,49.333332 90.500000,53.500000 
"/>
<path fill="none" opacity="1.000000" stroke="#000000" stroke-linecap="round" stroke-linejoin="round" stroke-width="2.000000"
	d="
M137.000000,105.000000 
	C141.936890,104.914200 147.107895,105.764938 150.999863,101.499451 
	C140.009399,94.236404 133.266373,92.529037 123.000000,102.000000 
	C126.441170,105.908051 128.898178,106.694290 135.500000,106.000000 
"/>
<path fill="none" opacity="1.000000" stroke="#000000" stroke-linecap="round" stroke-linejoin="round" stroke-width="2.000000"
	d="
M71.500000,48.500000 
	C73.833336,52.500000 76.166672,56.500000 78.500000,60.500000 
"/>
<path fill="none" opacity="1.000000" stroke="#000000" stroke-linecap="round" stroke-linejoin="round" stroke-width="2.000000"
	d="
M50.500000,102.500000 
	C53.217899,95.232361 53.228985,95.202477 45.993126,92.518532 
	C43.871128,91.731438 41.666668,91.166672 39.500000,90.500000 
"/>
<path fill="none" opacity="1.000000" stroke="#000000" stroke-linecap="round" stroke-linejoin="round" stroke-width="2.000000"
	d="
M185.000000,82.500000 
	C180.641037,83.550125 177.759827,87.824471 173.000000,88.000000 
"/>
<path fill="none" opacity="1.000000" stroke="#000000" stroke-linecap="round" stroke-linejoin="round" stroke-width="2.000000"
	d="
M171.500000,85.500000 
	C174.857849,93.680504 177.704575,101.914948 177.602112,111.001152 
	C177.541809,116.348694 182.048706,115.394897 185.500000,115.500000 
"/>
<path fill="none" opacity="1.000000" stroke="#000000" stroke-linecap="round" stroke-linejoin="round" stroke-width="2.000000"
	d="
M48.000000,70.500000 
	C52.000000,73.333328 56.000000,76.166664 60.000000,79.000000 
"/>
<path fill="none" opacity="1.000000" stroke="#000000" stroke-linecap="round" stroke-linejoin="round" stroke-width="2.000000"
	d="
M51.500004,131.500000 
	C50.833336,126.666664 49.837421,121.847237 49.632572,116.994408 
	C49.522625,114.389816 48.728077,113.774910 46.499935,113.999367 
	C43.166851,114.335144 39.833332,114.666664 36.500000,115.000000 
"/>
<path fill="none" opacity="1.000000" stroke="#000000" stroke-linecap="round" stroke-linejoin="round" stroke-width="2.000000"
	d="
M75.000000,183.000000 
	C74.166664,183.333328 73.290596,184.028305 72.507591,183.935760 
	C69.531349,183.584030 68.911285,185.047882 69.520233,187.494965 
	C70.081169,189.749146 68.901649,191.027908 67.004814,190.917404 
	C62.460659,190.652664 59.834682,193.229599 57.500000,196.500000 
"/>
<path fill="none" opacity="1.000000" stroke="#000000" stroke-linecap="round" stroke-linejoin="round" stroke-width="2.000000"
	d="
M73.000000,103.500000 
	C76.418472,106.029793 80.008087,107.997246 84.500000,107.000000 
"/>
<path fill="none" opacity="1.000000" stroke="#000000" stroke-linecap="round" stroke-linejoin="round" stroke-width="2.000000"
	d="
M143.500000,107.500000 
	C138.035721,111.273888 132.278580,110.069145 126.500000,108.500000 
"/>
<path fill="none" opacity="1.000000" stroke="#000000" stroke-linecap="round" stroke-linejoin="round" stroke-width="2.000000"
	d="
M158.500000,162.000000 
	C160.449448,165.182816 162.783417,168.083496 166.035950,169.936905 
	C167.988708,171.049667 168.622482,172.468994 168.500000,174.500000 
"/>
<path fill="none" opacity="1.000000" stroke="#000000" stroke-linecap="round" stroke-linejoin="round" stroke-width="2.000000"
	d="
M171.500000,60.500000 
	C168.417023,64.417015 164.917023,67.917015 161.000000,71.000000 
"/>
<path fill="none" opacity="1.000000" stroke="#000000" stroke-linecap="round" stroke-linejoin="round" stroke-width="2.000000"
	d="
M58.500000,59.000000 
	C62.021339,61.996395 65.957977,64.598251 68.062347,69.139282 
	C64.859390,74.251572 60.480530,78.596115 57.382000,83.931473 
	C55.296692,87.522179 55.231365,92.032349 52.000000,95.000000 
"/>
<path fill="none" opacity="1.000000" stroke="#000000" stroke-linecap="round" stroke-linejoin="round" stroke-width="2.000000"
	d="
M53.500000,140.000000 
	C49.829670,141.658615 46.484272,144.032074 42.500000,145.000000 
"/>
<path fill="none" opacity="1.000000" stroke="#000000" stroke-linecap="round" stroke-linejoin="round" stroke-width="2.000000"
	d="
M94.000008,41.000000 
	C95.000008,44.500000 96.000008,48.000000 97.000008,51.500000 
"/>
<path fill="none" opacity="1.000000" stroke="#000000" stroke-linecap="round" stroke-linejoin="round" stroke-width="2.000000"
	d="
M166.000015,56.000008 
	C162.946686,59.287109 159.893356,62.574215 156.589523,66.130997 
	C147.551987,58.790836 137.380814,53.100285 125.500000,51.000000 
"/>
<path fill="none" opacity="1.000000" stroke="#000000" stroke-linecap="round" stroke-linejoin="round" stroke-width="2.000000"
	d="
M47.500000,77.500000 
	C49.531555,81.325676 53.952606,81.659012 57.000000,84.000000 
"/>
<path fill="none" opacity="1.000000" stroke="#000000" stroke-linecap="round" stroke-linejoin="round" stroke-width="2.000000"
	d="
M50.000000,128.000000 
	C46.666668,128.833344 43.333336,129.666672 40.000000,130.500000 
"/>
<path fill="none" opacity="1.000000" stroke="#000000" stroke-linecap="round" stroke-linejoin="round" stroke-width="2.000000"
	d="
M178.000000,115.000000 
	C176.775574,118.396507 177.856369,122.015656 176.666794,125.556046 
	C175.630096,128.641479 177.862839,130.564758 181.971893,129.840500 
	C184.877701,129.328323 187.338455,130.251297 190.000000,130.500000 
"/>
<path fill="none" opacity="1.000000" stroke="#000000" stroke-linecap="round" stroke-linejoin="round" stroke-width="2.000000"
	d="
M80.500000,47.500000 
	C81.666664,50.666668 82.833336,53.833332 84.000000,57.000000 
"/>
<path fill="none" opacity="1.000000" stroke="#000000" stroke-linecap="round" stroke-linejoin="round" stroke-width="2.000000"
	d="
M210.500000,101.000000 
	C207.951920,98.854126 205.708832,98.690781 203.898209,101.970871 
	C200.005966,101.491051 200.696014,93.955978 195.000000,96.000000 
"/>
<path fill="none" opacity="1.000000" stroke="#000000" stroke-linecap="round" stroke-linejoin="round" stroke-width="2.000000"
	d="
M49.000000,121.500000 
	C45.649712,121.294472 42.561657,122.334541 39.500000,123.500000 
"/>
<path fill="none" opacity="1.000000" stroke="#000000" stroke-linecap="round" stroke-linejoin="round" stroke-width="2.000000"
	d="
M211.500000,124.500000 
	C211.166672,128.500000 210.833328,132.500000 210.500000,136.500000 
"/>
<path fill="none" opacity="1.000000" stroke="#000000" stroke-linecap="round" stroke-linejoin="round" stroke-width="2.000000"
	d="
M17.000000,125.500000 
	C17.166668,128.500000 17.333334,131.500000 17.500000,134.500000 
"/>
<path fill="none" opacity="1.000000" stroke="#000000" stroke-linecap="round" stroke-linejoin="round" stroke-width="2.000000"
	d="
M96.500000,102.000000 
	C89.176674,96.100723 81.943520,96.030579 71.500000,103.000000 
"/>
<path fill="none" opacity="1.000000" stroke="#000000" stroke-linecap="round" stroke-linejoin="round" stroke-width="2.000000"
	d="
M104.999992,126.999992 
	C104.038567,127.541534 103.077141,128.083084 101.733521,128.839905 
	C105.753654,132.741486 111.359634,129.327515 113.263298,134.159393 
	C115.758835,132.443176 117.591209,130.235977 121.042007,131.372437 
	C122.890427,131.981186 123.868591,129.823242 123.500000,126.500000 
"/>
<path fill="none" opacity="1.000000" stroke="#000000" stroke-linecap="round" stroke-linejoin="round" stroke-width="2.000000"
	d="
M96.500000,104.000000 
	C93.529747,107.897568 89.408501,106.730743 85.500000,106.500000 
"/>
<path fill="none" opacity="1.000000" stroke="#000000" stroke-linecap="round" stroke-linejoin="round" stroke-width="2.000000"
	d="
M72.500000,164.500000 
	C70.027145,162.302032 67.554283,160.104065 64.750694,157.612122 
	C61.955189,160.623520 59.227596,163.561768 56.500004,166.500000 
"/>
<path fill="none" opacity="1.000000" stroke="#000000" stroke-linecap="round" stroke-linejoin="round" stroke-width="2.000000"
	d="
M100.500000,209.500000 
	C100.659790,215.196304 96.306221,212.994217 93.500000,213.500000 
"/>
<path fill="none" opacity="1.000000" stroke="#000000" stroke-linecap="round" stroke-linejoin="round" stroke-width="2.000000"
	d="
M66.500000,55.500000 
	C68.666664,58.166664 70.833336,60.833332 73.000000,63.500000 
"/>
<path fill="none" opacity="1.000000" stroke="#000000" stroke-linecap="round" stroke-linejoin="round" stroke-width="2.000000"
	d="
M132.500000,97.000000 
	C132.209686,99.886322 132.444199,102.547729 135.500000,104.000000 
"/>
<path fill="none" opacity="1.000000" stroke="#000000" stroke-linecap="round" stroke-linejoin="round" stroke-width="2.000000"
	d="
M155.500000,53.500004 
	C154.000000,56.000004 152.500000,58.500004 151.000000,61.000004 
"/>
<path fill="none" opacity="1.000000" stroke="#000000" stroke-linecap="round" stroke-linejoin="round" stroke-width="2.000000"
	d="
M203.000000,143.000000 
	C199.725677,143.226730 198.962723,146.718201 196.401337,148.051880 
	C193.361053,147.808380 193.746796,144.444550 191.100616,142.211868 
	C190.431580,143.259125 189.715775,144.379547 188.999985,145.499985 
"/>
<path fill="none" opacity="1.000000" stroke="#000000" stroke-linecap="round" stroke-linejoin="round" stroke-width="2.000000"
	d="
M38.000000,100.500000 
	C36.874523,101.879974 35.749043,103.259956 34.825935,104.391800 
	C31.697254,103.055801 30.615883,101.012375 29.686342,98.664604 
	C26.469135,100.186211 24.908764,103.088005 22.500000,105.000000 
"/>
<path fill="none" opacity="1.000000" stroke="#000000" stroke-linecap="round" stroke-linejoin="round" stroke-width="2.000000"
	d="
M169.500000,176.500000 
	C167.634293,181.241806 167.655243,181.191925 171.994217,183.013794 
	C176.487900,184.900604 174.303040,187.781815 173.000000,190.500000 
"/>
<path fill="none" opacity="1.000000" stroke="#000000" stroke-linecap="round" stroke-linejoin="round" stroke-width="2.000000"
	d="
M101.500000,35.500000 
	C103.146614,40.193111 103.983192,45.025887 104.000000,50.000000 
"/>
<path fill="none" opacity="1.000000" stroke="#000000" stroke-linecap="round" stroke-linejoin="round" stroke-width="2.000000"
	d="
M160.500000,158.500000 
	C160.935318,157.171631 161.608307,156.282410 162.990204,157.511017 
	C165.193481,159.469833 167.333328,161.500000 169.500000,163.500000 
"/>
<path fill="none" opacity="1.000000" stroke="#000000" stroke-linecap="round" stroke-linejoin="round" stroke-width="2.000000"
	d="
M57.000000,68.000000 
	C59.333336,70.000000 61.666668,72.000000 64.000000,74.000000 
"/>
<path fill="none" opacity="1.000000" stroke="#000000" stroke-linecap="round" stroke-linejoin="round" stroke-width="3.000000"
	d="
M91.500000,100.000000 
	C92.039047,103.248253 88.689781,103.904297 87.500000,106.000000 
"/>
<path fill="none" opacity="1.000000" stroke="#000000" stroke-linecap="round" stroke-linejoin="round" stroke-width="2.000000"
	d="
M81.000000,99.500000 
	C80.312096,102.847488 83.091400,103.883514 85.000000,105.500000 
"/>
<path fill="none" opacity="1.000000" stroke="#000000" stroke-linecap="round" stroke-linejoin="round" stroke-width="2.000000"
	d="
M53.500000,136.500000 
	C53.419952,140.398682 56.218769,143.145828 57.500000,146.500000 
"/>
<path fill="none" opacity="1.000000" stroke="#000000" stroke-linecap="round" stroke-linejoin="round" stroke-width="2.000000"
	d="
M128.500000,214.500000 
	C126.505577,214.266373 124.426453,215.049225 122.500000,214.000000 
"/>
<path fill="none" opacity="1.000000" stroke="#000000" stroke-linecap="round" stroke-linejoin="round" stroke-width="2.000000"
	d="
M143.500000,98.500000 
	C144.300110,100.866707 141.914398,102.074928 141.500000,104.000000 
"/>
<path fill="none" opacity="1.000000" stroke="#000000" stroke-linecap="round" stroke-linejoin="round" stroke-width="2.000000"
	d="
M183.500000,44.500004 
	C186.166656,47.500004 188.833328,50.500004 191.500000,53.500004 
"/>
<path fill="none" opacity="1.000000" stroke="#000000" stroke-linecap="round" stroke-linejoin="round" stroke-width="2.000000"
	d="
M89.000000,175.500000 
	C87.586517,176.876587 86.440002,178.386673 86.500000,180.500000 
"/>
<path fill="none" opacity="1.000000" stroke="#000000" stroke-linecap="round" stroke-linejoin="round" stroke-width="2.000000"
	d="
M28.500000,69.000000 
	C27.648752,70.417961 26.375467,71.648354 26.500000,73.500000 
"/>
<path fill="none" opacity="1.000000" stroke="#000000" stroke-linecap="round" stroke-linejoin="round" stroke-width="2.000000"
	d="
M169.000000,172.499985 
	C170.500000,172.666656 172.000000,172.833328 173.500000,172.999985 
"/>
<path fill="none" opacity="1.000000" stroke="#000000" stroke-linecap="round" stroke-linejoin="round" stroke-width="2.000000"
	d="
M133.000000,177.500000 
	C134.244034,178.554321 134.539520,179.964340 134.500000,181.500000 
"/>
<path fill="none" opacity="1.000000" stroke="#000000" stroke-linecap="round" stroke-linejoin="round" stroke-width="2.000000"
	d="
M194.500000,114.000000 
	C193.166672,113.833328 191.833328,113.666664 190.500000,113.500000 
"/>
<path fill="none" opacity="1.000000" stroke="#000000" stroke-linecap="round" stroke-linejoin="round" stroke-width="2.000000"
	d="
M22.000000,86.000000 
	C19.828470,86.450294 20.668520,88.191269 20.500000,89.500000 
"/>
<path fill="none" opacity="1.000000" stroke="#000000" stroke-linecap="round" stroke-linejoin="round" stroke-width="2.000000"
	d="
M176.500000,192.500000 
	C175.360428,192.928162 174.402618,193.992477 173.000000,193.500000 
"/>
<path fill="none" opacity="1.000000" stroke="#000000" stroke-linecap="round" stroke-linejoin="round" stroke-width="2.000000"
	d="
M42.500000,48.500000 
	C40.833332,50.500000 39.166664,52.500000 37.500000,54.500000 
"/>
<path fill="none" opacity="1.000000" stroke="#000000" stroke-linecap="round" stroke-linejoin="round" stroke-width="2.000000"
	d="
M199.500000,64.500000 
	C199.311340,65.818672 200.377762,67.974068 197.500000,67.500000 
"/>
<path fill="none" opacity="1.000000" stroke="#000000" stroke-linecap="round" stroke-linejoin="round" stroke-width="2.000000"
	d="
M164.500000,74.500000 
	C165.500000,76.166664 166.500000,77.833336 167.500000,79.500000 
"/>
</svg>