<svg version="1.1" id="Layer_1" xmlns="http://www.w3.org/2000/svg" xmlns:xlink="http://www.w3.org/1999/xlink" x="0px" y="0px"
	 width="100%" viewBox="0 0 720 496" enable-background="new 0 0 720 496" xml:space="preserve">
<path fill="#000000" opacity="1.000000" stroke="none" 
	d="
M189.918182,394.846893 
	C194.474960,399.670044 200.714584,400.112671 206.361923,401.447449 
	C216.559723,403.857788 226.993179,405.160492 237.528992,405.367920 
	C239.821945,405.413055 241.440491,404.893982 241.965881,401.082733 
	C246.062546,407.034851 250.497025,404.611145 254.757645,403.991547 
	C269.313019,401.874786 283.522034,398.358124 296.899109,392.208405 
	C310.534821,385.939789 313.036926,382.445648 310.750488,367.484924 
	C308.903961,355.402649 307.030823,343.213379 301.744049,331.946991 
	C301.577545,331.592285 301.841675,331.035492 301.934723,330.356354 
	C305.356720,329.864807 305.716095,332.649902 306.271637,334.575775 
	C310.328308,348.638062 314.137695,362.757202 314.353119,377.554810 
	C314.444275,383.816498 315.416870,384.623932 321.750732,384.758759 
	C323.619202,384.798523 326.073730,383.781311 327.088226,386.197876 
	C328.020905,388.419464 325.948883,389.830139 324.824036,391.399719 
	C316.915955,402.434326 306.654968,408.188019 292.670532,405.971619 
	C288.794556,405.357300 285.831940,408.911133 281.857788,408.919586 
	C279.779266,408.924011 278.072876,408.892761 277.349579,406.890137 
	C275.882751,402.829041 273.167786,403.071167 269.727722,403.956787 
	C254.466995,407.885468 239.012070,409.831512 223.293091,407.322906 
	C211.791748,405.487335 200.359528,403.317719 189.356201,399.286804 
	C186.204742,398.132324 184.755966,396.728058 187.117172,393.146545 
	C183.108627,398.749817 177.776291,397.447235 172.363632,396.606995 
	C176.190964,400.957947 175.972153,402.376648 170.882538,404.717255 
	C162.138733,408.738373 153.645004,406.971619 145.406631,403.043274 
	C142.711731,401.758240 139.775436,400.461578 137.759659,398.384155 
	C134.184326,394.699402 128.600479,396.247162 124.968948,392.484741 
	C122.081146,389.492828 120.499138,387.306854 123.850853,383.866760 
	C128.917328,378.666595 129.360443,372.113770 128.771103,364.953552 
	C125.642502,366.020538 123.048836,368.234039 120.315765,370.143250 
	C113.880165,374.638855 106.194153,377.863739 103.697533,386.424988 
	C103.364586,387.566711 102.418488,388.586609 101.029465,387.750336 
	C99.583694,386.879883 99.501060,385.341125 100.642754,384.377625 
	C102.514763,382.797760 102.855286,380.779449 103.147758,378.613342 
	C103.324966,377.300934 103.002281,376.239929 101.765938,375.723389 
	C100.382523,375.145325 99.797844,376.032959 99.083824,377.149475 
	C97.781898,379.185333 96.467720,381.388153 93.506828,381.931305 
	C92.122742,378.242218 95.850563,377.040833 96.712746,374.588348 
	C97.476883,372.414734 98.734329,370.470123 95.996407,369.146820 
	C93.679405,368.026947 92.218254,369.623108 91.396614,371.595978 
	C90.599098,373.510895 89.429642,375.270142 87.418610,373.836792 
	C85.266922,372.303162 87.475159,371.105896 88.514481,369.921814 
	C89.045486,369.316864 89.739716,368.490295 89.691208,367.811676 
	C89.558533,365.955261 92.414246,363.978607 89.933449,362.414246 
	C87.682487,360.994781 86.422493,363.419006 84.989922,364.637024 
	C83.808632,365.641449 82.769409,367.993988 81.076538,366.183502 
	C79.311935,364.296326 81.671059,363.515930 82.922150,362.533661 
	C83.684708,361.934937 84.214096,361.045166 84.875954,360.311157 
	C86.888168,358.079529 85.684387,356.376343 83.960381,354.785889 
	C82.014122,352.990387 80.601151,354.367035 79.304497,355.708313 
	C77.732231,357.334717 76.761497,360.289368 73.314903,358.012543 
	C74.576202,354.437378 81.008926,353.860992 78.635124,348.514099 
	C77.207352,345.298096 74.685860,347.532288 72.792793,347.415802 
	C72.011284,345.773590 73.124123,344.581299 73.070114,343.315979 
	C72.950874,340.522491 71.943359,338.695557 68.702820,340.152618 
	C66.168274,341.292236 63.664406,342.500092 60.817757,343.831573 
	C59.765495,340.481232 62.042107,340.329559 63.794491,339.804321 
	C66.121422,339.106934 68.618774,338.216614 67.852966,335.221008 
	C67.024620,331.980743 64.376259,333.055145 62.154514,333.954773 
	C62.035053,327.539642 62.035053,327.539642 55.646580,327.158752 
	C55.033348,326.014679 55.625340,325.303375 56.515484,324.667633 
	C57.333000,324.083771 58.108578,323.450256 58.153183,322.320068 
	C55.588978,318.035980 51.066517,323.024933 47.528557,320.124298 
	C50.945778,318.154785 54.235203,317.575317 57.390804,318.043549 
	C66.226135,319.354553 75.153656,319.374664 83.685593,317.403534 
	C96.521454,314.438080 107.805893,308.198486 116.676407,298.001312 
	C130.913940,281.634399 138.213394,261.905945 145.013504,241.773880 
	C148.949020,230.122543 154.086197,218.877243 158.676025,207.446579 
	C159.219589,206.092865 160.318222,204.883652 159.744293,202.937881 
	C157.316711,201.299835 154.039932,202.984848 151.369049,201.284180 
	C147.878754,199.061752 145.404617,196.002533 143.496017,192.518906 
	C142.356094,190.438293 141.213333,188.588593 139.249619,187.172607 
	C136.804718,185.409607 136.335876,183.081818 138.507797,180.783585 
	C140.899582,178.252701 140.966339,175.787689 138.679916,173.294235 
	C136.993637,171.455246 137.798233,169.163651 137.252167,166.668076 
	C134.755264,166.668076 131.875717,165.914352 129.706467,166.834747 
	C125.916702,168.442703 123.182693,168.928848 119.534004,165.983688 
	C116.950851,163.898636 114.211929,168.548340 110.561218,168.125107 
	C109.376450,165.399292 107.706459,162.592911 105.461662,160.216858 
	C103.224518,157.848907 104.286835,155.240677 104.701019,152.673416 
	C105.018280,150.706985 105.445099,148.758102 105.830093,146.802780 
	C107.295807,139.358749 101.935860,134.377914 94.591362,136.810379 
	C90.732361,138.088470 87.007767,139.023773 82.978409,138.482407 
	C81.106895,138.230972 79.900269,139.434799 78.513924,140.349121 
	C73.925446,143.375366 71.400429,142.424683 69.583641,137.127899 
	C69.101234,135.721451 68.610451,134.273468 67.838448,133.020157 
	C66.326859,130.566193 64.386780,129.448578 61.156616,130.136612 
	C51.787415,132.132278 48.783134,129.187469 49.097942,119.814522 
	C49.204460,116.642982 48.386631,113.046043 46.831581,110.300270 
	C44.117542,105.508064 42.545383,100.644989 42.872349,95.196198 
	C43.001965,93.036224 41.507191,91.499107 40.951958,89.318771 
	C44.203079,87.882607 45.080513,84.923592 45.524635,81.722382 
	C45.963638,78.558067 46.699715,75.582382 49.501652,73.511086 
	C50.253265,72.955460 51.204071,71.779854 51.076565,71.064835 
	C50.034184,65.219467 54.461315,60.365921 53.749260,54.499142 
	C53.100216,49.151516 60.082493,44.535755 65.497253,46.872646 
	C70.161865,48.885788 73.292732,49.596195 75.614861,43.730328 
	C76.993935,40.246693 80.883476,39.379601 84.632545,39.777897 
	C87.561928,40.089100 90.084816,39.509396 91.165382,36.491714 
	C93.061386,31.196711 96.655258,30.711039 101.095543,32.857845 
	C104.210030,34.363655 106.529961,34.929939 109.058022,31.407238 
	C111.075523,28.595957 114.564407,27.694607 117.976601,29.851545 
	C120.357010,31.356270 122.716400,31.640718 125.556213,31.056231 
	C129.989929,30.143690 133.105576,32.298763 134.087387,36.701626 
	C135.066635,41.092941 137.105453,41.049992 139.930435,38.521259 
	C142.468063,36.249733 145.332840,34.909573 148.594498,36.107960 
	C151.965271,37.346428 152.310913,40.420380 152.145691,43.610519 
	C152.014801,46.137306 153.121536,47.729492 155.866791,47.913414 
	C157.724670,48.037884 159.778534,48.357948 160.771149,50.000244 
	C163.251450,54.103901 166.409225,57.105759 171.167679,58.402401 
	C172.012131,58.632507 173.137283,60.254028 173.042145,61.112118 
	C172.484909,66.138222 175.461563,70.360344 175.992584,74.942314 
	C176.528473,79.566475 178.152710,81.604980 182.395447,81.703560 
	C183.465881,83.248802 182.985901,84.796463 183.105576,86.258278 
	C183.239426,87.893700 183.829880,89.483688 185.581665,89.506149 
	C190.297867,89.566612 195.404922,91.130676 199.369156,87.171936 
	C203.829834,82.717453 209.164719,81.156593 215.304169,81.579277 
	C218.458359,81.796432 221.582642,81.688286 224.718140,80.870300 
	C227.136597,80.239380 229.817123,80.208191 231.905029,81.936592 
	C236.497513,85.738342 242.037643,88.383743 245.752823,93.255417 
	C246.257797,93.917595 246.674545,94.913750 247.342667,95.143791 
	C254.417908,97.579903 254.074478,104.006355 255.331512,109.614395 
	C255.766449,111.554825 256.557770,113.412468 257.087860,115.335068 
	C258.122620,119.088074 260.947357,117.775749 263.222290,117.374725 
	C265.769379,116.925728 265.616394,115.096222 264.812012,113.135811 
	C263.303650,109.459702 264.355682,106.304718 266.893860,103.478928 
	C273.031067,96.646309 279.150177,90.737991 291.120422,96.635696 
	C297.631317,99.843567 304.864288,101.590767 311.782471,103.965096 
	C315.888855,105.374413 319.741516,110.482712 319.037476,114.622604 
	C318.433960,118.171455 320.158417,119.016747 322.928833,119.565552 
	C330.299377,121.025642 330.293823,121.053497 330.651520,128.812073 
	C330.807312,132.192184 333.359436,133.822647 336.618622,132.222916 
	C339.897156,130.613693 342.887604,128.428833 346.093842,126.658379 
	C350.574921,124.183960 351.998779,124.727974 352.507050,129.710175 
	C353.637573,140.791824 354.661438,151.905685 354.053406,163.065994 
	C353.777893,168.122940 352.452057,168.927765 347.744720,167.046799 
	C344.349579,165.690170 341.108673,163.948471 337.795441,162.385925 
	C333.377197,160.302231 331.396698,161.252396 331.329010,166.045227 
	C331.268097,170.358185 329.752441,172.157211 325.258636,172.669312 
	C316.768707,173.636887 308.287598,173.151215 299.808441,173.422806 
	C292.392120,173.660355 288.841034,179.275330 292.227783,185.901093 
	C294.202087,189.763428 291.781128,192.621307 290.562042,195.748352 
	C289.910034,197.420822 288.610107,198.791168 288.419708,200.733215 
	C287.993073,205.085236 289.157532,205.987961 293.315033,204.439011 
	C294.224915,204.100021 295.463165,203.545853 296.155426,203.888443 
	C303.449799,207.498459 310.867767,204.591232 318.212372,204.406372 
	C319.855011,204.365036 321.053070,204.496872 322.151489,205.810165 
	C324.861633,209.050446 327.669342,209.744598 330.870056,206.220734 
	C335.314453,201.327637 341.270752,201.603027 347.145233,201.944977 
	C349.891815,202.104828 350.528351,204.665833 350.121643,206.330536 
	C349.154846,210.287811 349.921112,214.602509 347.709229,218.268036 
	C345.593658,221.773941 346.195343,224.575516 349.772766,226.650284 
	C354.967529,229.663055 357.026215,236.138885 363.198364,238.288513 
	C366.786621,239.538223 369.764252,240.925507 372.357910,237.012238 
	C374.897675,233.180130 374.271149,229.130127 370.694519,226.015411 
	C365.261047,221.283646 360.536346,216.054840 357.189697,209.520081 
	C350.906281,197.250854 356.761993,175.259552 368.619141,163.801727 
	C381.909332,150.959122 396.593689,150.950546 412.506073,156.910599 
	C414.687592,157.727692 416.752533,158.891006 418.971375,159.565186 
	C422.116669,160.520889 425.084961,159.636185 427.146240,157.197006 
	C429.389587,154.542435 429.303986,151.009018 429.187683,147.765747 
	C429.135315,146.304779 427.068787,145.875488 425.767303,145.145767 
	C417.503113,140.512115 410.765625,134.923050 410.905609,124.158371 
	C410.980652,118.388359 412.620514,113.100441 414.601471,107.878815 
	C416.110443,103.901329 416.256989,100.124275 416.042328,95.814636 
	C415.267822,80.266266 417.972900,65.816597 433.257355,57.252197 
	C436.573669,55.393948 437.779205,52.481419 437.585846,48.890198 
	C437.216278,42.026157 438.398651,35.301815 439.237915,28.541229 
	C439.404510,27.199049 439.298004,25.731350 440.745636,25.106422 
	C442.289001,24.440165 443.228790,25.712189 444.131409,26.633652 
	C448.286102,30.875162 453.608734,33.370876 458.602753,36.341755 
	C461.780609,38.232220 465.384735,38.519367 468.770813,37.322979 
	C478.640533,33.835770 488.069183,34.963638 497.264496,39.478531 
	C500.291565,40.964828 502.299500,40.999496 502.663330,36.871468 
	C503.034515,32.659729 505.595062,30.964088 509.599884,32.053417 
	C512.226807,32.767963 514.241882,32.572632 516.526245,30.841223 
	C519.058411,28.922052 522.285400,31.659449 525.436707,29.752401 
	C525.425171,34.975807 526.404175,39.359425 528.066833,43.729641 
	C529.431152,47.315704 527.831238,50.816753 524.452698,52.703918 
	C521.123169,54.563671 518.383484,53.149025 516.476074,49.965973 
	C516.167053,49.450291 515.577515,49.102688 515.003418,48.571728 
	C512.362427,50.399109 513.446777,52.182922 514.886047,53.604828 
	C523.483398,62.098103 524.990845,72.287140 522.343506,83.563461 
	C521.504089,87.138870 522.801514,89.975449 525.362976,92.559624 
	C530.375061,97.616074 534.973083,103.079575 540.709106,107.392471 
	C539.043579,111.022499 535.881470,111.772896 533.204529,112.549873 
	C526.222900,114.576233 519.425171,117.562256 511.927765,117.400574 
	C507.261841,117.299950 505.746124,120.822296 505.597107,124.302719 
	C505.425690,128.306091 508.639709,126.925537 510.606201,126.036285 
	C515.335938,123.897507 520.183960,122.480949 525.305786,121.476486 
	C533.726013,119.825165 541.510071,121.202415 549.135620,124.644417 
	C550.198059,125.123955 551.377258,125.423218 552.324341,126.067642 
	C560.465881,131.607559 568.158203,131.813599 575.516357,124.561150 
	C577.868774,122.242516 580.425781,122.074783 582.809021,124.948936 
	C584.769165,127.312935 587.068420,127.135040 589.401550,125.292923 
	C591.931213,123.295525 593.792114,120.997002 592.358276,117.605865 
	C591.587402,115.782784 590.467896,114.075783 589.317932,112.449142 
	C574.744202,91.834938 562.948303,69.629532 552.482788,46.748524 
	C548.130249,37.232449 545.030151,27.152107 538.852234,18.517893 
	C537.821838,17.077890 537.146606,15.237135 538.925476,14.099959 
	C540.764160,12.924503 541.773621,14.903451 543.039856,15.908217 
	C552.934998,23.759903 558.094604,35.187252 565.252014,45.109943 
	C575.880005,59.844166 585.004944,75.505806 594.008789,91.243500 
	C595.988037,94.702904 597.613831,98.365265 599.384338,101.943092 
	C601.215820,105.644287 603.855164,108.515152 606.717407,111.560310 
	C610.570496,115.659592 616.046692,119.273003 616.824524,125.857407 
	C617.135742,128.492065 618.817383,130.163361 621.267700,131.431488 
	C626.833801,134.312042 627.938965,139.300842 623.645142,144.117188 
	C620.404541,147.752182 620.890259,150.718613 623.139160,154.401840 
	C627.302429,161.220337 631.211365,168.193985 635.228210,175.101898 
	C636.266541,176.887497 638.777893,178.990723 636.622375,180.708664 
	C634.512817,182.389969 631.615234,184.281586 628.357178,182.258133 
	C626.604065,181.169312 625.318115,179.741867 624.224304,178.023834 
	C620.096252,171.539810 617.013855,164.514343 613.594055,157.664383 
	C611.595642,153.661377 609.918518,149.617172 604.007568,152.772354 
	C601.412048,154.157791 598.879395,152.475296 596.931335,150.398285 
	C595.817444,149.210663 595.208191,147.509491 593.400574,146.910263 
	C590.309753,148.107712 590.169983,150.770691 590.167786,153.492828 
	C590.161499,161.486542 590.800354,169.482773 590.012634,177.473587 
	C589.457214,183.108871 588.507874,183.740448 583.075867,182.207199 
	C579.716309,181.258926 576.313904,180.460892 572.925720,179.615524 
	C569.774170,178.829178 567.090454,179.542358 564.656494,181.805496 
	C558.933777,187.126587 553.173157,192.332626 545.949890,195.768417 
	C541.313599,197.973709 540.898499,200.471863 543.962830,204.565567 
	C547.179688,208.863037 551.054199,212.501816 556.594299,213.711655 
	C563.791443,215.283310 569.393433,219.106888 573.133179,225.511765 
	C575.711731,229.927872 579.630859,233.193771 583.477478,236.245407 
	C586.967957,239.014526 591.184387,237.647141 594.508667,234.969452 
	C600.717346,229.968353 604.025940,230.947433 606.181458,238.949783 
	C606.747986,241.052963 607.132629,243.112000 608.419250,244.930511 
	C609.567688,246.553757 609.103699,248.204788 607.858765,249.486679 
	C605.946899,251.455231 604.198730,253.347794 605.104431,256.443726 
	C605.238281,256.901306 604.649231,258.048981 604.285339,258.100159 
	C600.324585,258.657227 598.052368,264.109680 596.436768,264.012421 
	C591.566528,263.719269 588.626526,267.608551 584.036865,267.835785 
	C579.359741,268.067352 575.997375,264.632172 571.595520,265.094421 
	C571.205261,265.135406 570.387146,264.623199 570.390808,264.377380 
	C570.471130,259.068878 566.165710,256.776733 563.385071,253.280380 
	C561.628479,251.071533 564.065674,248.650833 566.971436,248.193619 
	C569.796021,247.749191 572.792419,247.733337 573.665771,244.183823 
	C573.913208,243.177902 573.692505,242.022400 572.640076,241.605347 
	C569.507935,240.364227 567.111755,242.389709 564.865845,243.918564 
	C557.081360,249.217682 557.330078,258.532776 565.325500,263.765259 
	C570.821594,267.362122 574.874695,271.938019 576.604248,278.440643 
	C577.517029,281.872375 579.523315,284.692383 582.028137,287.274323 
	C586.889526,292.285278 590.582764,297.934204 590.348694,305.350525 
	C590.267334,307.929810 591.756470,309.694214 593.587280,311.264618 
	C604.138245,320.314819 609.490906,331.656982 608.232361,345.661774 
	C607.688110,351.718323 610.664917,357.395630 608.991089,363.774475 
	C608.110535,367.130127 612.870605,369.624786 616.003784,371.432007 
	C619.313965,373.341339 622.736511,374.983490 625.682129,377.512329 
	C627.799683,379.330292 629.997437,379.890747 632.930908,378.226959 
	C636.109375,376.424133 640.064087,376.656616 643.656677,376.809540 
	C647.825928,376.987030 648.462585,380.392181 648.302979,383.758026 
	C647.979797,390.572662 639.965515,396.574280 631.467285,396.182495 
	C622.919434,395.788483 614.769043,393.338043 606.739258,390.581116 
	C602.110535,388.991821 597.661133,388.108643 592.624084,389.085724 
	C587.848999,390.011963 582.695679,390.605957 579.135254,385.342407 
	C577.840698,383.428619 575.086975,383.404297 572.647278,383.837860 
	C564.917908,385.211578 557.139404,385.953094 549.294800,385.041229 
	C545.956482,384.653168 543.222839,386.586792 540.165710,387.171936 
	C532.162659,388.703613 524.281250,390.578186 516.612000,393.398132 
	C510.941711,395.483063 505.027771,396.366608 498.977448,395.414032 
	C495.502380,394.866913 492.380432,395.932556 489.317017,397.288239 
	C480.621613,401.136322 471.485809,402.516632 462.048523,402.279266 
	C459.479065,402.214661 457.164825,402.007050 456.127350,398.905060 
	C455.412445,396.767395 453.411713,396.007660 451.197510,396.616455 
	C449.135468,397.183441 447.819794,398.479401 447.367004,400.739410 
	C445.372314,410.695007 441.928558,412.980927 432.234772,409.902374 
	C428.657196,408.766235 425.476959,408.819733 422.063416,409.678284 
	C416.062164,411.187683 409.888824,411.480713 403.781097,412.230682 
	C398.505249,412.878510 393.886932,411.316711 389.966461,407.778748 
	C386.910492,405.020905 383.697937,404.368439 379.466736,405.027283 
	C374.154175,405.854492 368.662811,405.637634 364.480804,400.868408 
	C361.507538,397.477661 355.139343,398.109406 352.616211,401.939667 
	C350.385864,405.325439 347.290314,406.327454 343.628632,405.949036 
	C339.637329,405.536530 338.268951,401.858185 336.106537,399.242767 
	C335.791870,398.862152 335.833435,397.806152 336.139069,397.350250 
	C341.537903,389.298279 337.494629,380.781677 337.106232,372.573700 
	C336.272247,354.948792 332.895935,337.600342 330.222137,320.179108 
	C329.473633,315.302277 329.794586,310.253021 329.740784,305.281616 
	C329.717102,303.091156 330.413605,300.999786 331.466980,299.087555 
	C334.485168,293.608734 333.956573,291.200073 329.026428,287.654816 
	C327.719666,286.715149 326.574646,286.976562 325.291534,287.509949 
	C322.747223,288.567505 320.816772,287.042755 321.007294,284.990631 
	C321.582245,278.798828 316.976471,277.193878 313.008911,274.956696 
	C307.466522,271.831512 306.015717,264.575653 310.047485,259.577728 
	C312.416107,256.641510 311.494598,252.855499 312.632965,249.553574 
	C313.631866,246.656082 314.948517,245.170837 318.037445,244.633667 
	C324.765686,243.463608 326.181549,241.162247 324.631256,234.514877 
	C324.159485,232.492004 325.408600,231.452057 326.392517,230.145905 
	C329.951813,225.420746 335.491241,224.360474 342.242493,222.407761 
	C338.245300,220.670990 335.707458,219.184570 332.968445,218.476624 
	C329.645508,217.617767 326.770477,218.806946 326.414246,222.613739 
	C326.158752,225.343613 325.112640,226.901260 322.610352,227.782791 
	C319.831451,228.761780 317.823669,230.850830 316.119568,233.107147 
	C311.929047,238.655655 305.155762,241.253860 300.868042,246.663635 
	C300.676483,246.905319 300.273071,247.191025 300.025543,247.145493 
	C293.545898,245.953842 293.019012,251.512482 290.820770,255.199554 
	C286.580780,262.311279 283.194275,270.124664 274.730438,273.625885 
	C272.004547,274.753510 272.906189,276.577209 274.418427,278.382751 
	C285.070343,291.100616 293.604034,305.154480 300.528595,320.200562 
	C301.552521,322.425385 302.963837,324.572510 302.755463,327.369934 
	C300.375885,328.529053 299.559967,327.113861 298.857391,325.221741 
	C294.622284,313.816132 288.526306,303.380157 282.049652,293.146515 
	C281.337891,292.021912 280.632996,290.888123 279.845459,289.817047 
	C272.419250,279.717285 272.414673,279.721710 261.419891,285.283173 
	C256.927460,287.555542 252.067215,288.736084 247.237579,289.980682 
	C245.145538,290.519806 243.436462,289.633575 241.725739,288.354828 
	C236.517670,284.461823 233.544449,285.573364 233.589584,292.032410 
	C233.661774,302.362061 231.068268,312.040710 228.609238,321.924255 
	C224.119217,339.970734 216.830780,356.459839 205.289017,371.127045 
	C200.588806,377.100006 197.554260,384.332153 191.525391,389.353699 
	C190.031296,390.598206 190.327606,392.742126 189.918182,394.846893 
M396.212311,334.368927 
	C397.507202,332.143402 400.762634,332.502594 402.072479,330.057037 
	C391.096588,330.247498 383.133148,333.459839 382.237061,338.449524 
	C387.190918,338.362213 391.098816,334.356873 395.571442,335.552704 
	C392.691193,338.569366 388.529205,338.230865 384.986969,339.471832 
	C381.095032,340.835358 379.896698,343.266388 380.373047,347.099915 
	C380.966522,351.876099 382.397614,356.310516 385.193329,360.256073 
	C387.347717,363.296509 389.757019,364.510742 393.671600,362.795227 
	C404.700104,357.962128 414.869720,351.725220 424.580597,344.702637 
	C427.690033,342.454041 430.256744,339.569366 431.949219,336.040161 
	C432.452515,334.990692 433.007812,333.854736 431.429108,332.971710 
	C428.575775,332.962036 427.983948,337.316345 424.644501,336.879547 
	C427.376312,330.135406 436.700409,326.923004 434.650513,316.366333 
	C426.189758,321.985199 421.041748,330.213287 411.254486,334.381012 
	C414.833679,328.611450 420.675720,327.127441 423.414093,321.495911 
	C415.807434,325.775055 408.928162,329.634857 402.060455,333.515015 
	C400.162415,334.587372 398.296387,335.711487 396.212311,334.368927 
M218.220001,275.319855 
	C214.434341,275.082672 212.598648,277.990753 210.820358,280.419464 
	C208.217285,283.974609 205.043198,284.801208 200.849747,284.566589 
	C196.808929,284.340546 193.619766,282.190094 190.019012,281.005432 
	C184.626129,279.231171 178.369415,280.155151 178.083527,283.400391 
	C177.739792,287.302246 175.885529,290.899750 175.973892,294.596924 
	C176.068665,298.561707 175.499817,302.983917 174.213440,305.846497 
	C171.241882,312.459045 170.833694,318.515198 173.319000,324.853333 
	C165.472031,329.918762 162.341629,330.009674 159.169235,326.959076 
	C158.447815,327.574066 157.438889,328.057892 157.012939,328.853760 
	C150.854721,340.360474 143.084122,350.679932 134.813232,360.756927 
	C129.638229,367.061951 131.280624,373.134460 137.765945,378.439758 
	C149.627991,388.143341 163.126984,393.422150 178.461380,394.187592 
	C180.849594,394.306763 182.465683,393.604065 184.337799,392.303375 
	C196.040161,384.173004 201.117935,371.035889 208.641235,359.854858 
	C219.447220,343.795166 223.961975,324.960480 229.330673,306.657196 
	C231.263733,300.066925 231.038849,292.948273 230.440567,285.809479 
	C223.383545,285.689209 219.391220,282.524109 218.220001,275.319855 
M75.377953,321.144501 
	C72.718246,321.297699 70.055000,321.405762 67.399628,321.614197 
	C62.948162,321.963593 62.609432,322.906494 65.052536,326.811127 
	C72.154160,338.161041 81.736488,347.543213 89.796783,358.135376 
	C93.922791,363.557434 98.579552,368.559265 103.525246,373.299286 
	C105.596413,375.284363 107.438568,375.665649 109.674225,374.271240 
	C123.117615,365.886230 136.694122,357.645386 145.048615,343.413116 
	C148.418655,337.672028 152.169327,332.130920 155.197418,326.217499 
	C161.442108,314.022491 166.165512,301.466125 165.867859,287.284515 
	C165.543488,271.829132 166.451355,256.298401 168.668671,241.033630 
	C171.233292,223.377701 177.252655,206.594696 185.684921,190.776779 
	C186.172348,189.862427 186.686951,189.005569 185.888824,188.047485 
	C185.256149,187.288025 184.433319,187.419022 183.600983,187.650589 
	C174.616974,190.149841 161.022476,202.443848 166.405228,214.282700 
	C167.062561,215.728394 166.820389,217.225586 166.090607,218.623367 
	C162.906296,224.722244 161.160873,231.328033 159.736618,237.973862 
	C158.793594,242.374176 156.412170,245.105743 152.422150,246.688995 
	C149.007355,248.043991 146.460083,250.421265 144.852432,253.618713 
	C142.944824,257.412811 141.386871,261.442200 139.757477,265.299988 
	C136.563583,272.861877 133.049072,280.211945 128.213531,286.685272 
	C121.821152,295.242737 116.154961,304.447998 106.466362,310.272156 
	C97.012581,315.955231 87.303238,320.188263 75.377953,321.144501 
M223.052734,117.456978 
	C226.215378,119.268456 224.374283,120.719635 222.836075,122.435608 
	C219.766525,125.859917 216.111221,127.107079 211.485962,127.048294 
	C207.821228,127.001717 208.515518,124.344727 207.434677,122.531998 
	C206.178009,120.424370 204.106033,120.611862 203.299454,122.884026 
	C201.897919,126.832245 196.733536,128.693176 197.547974,133.921570 
	C197.758362,135.272141 195.364563,135.728149 194.357498,136.689987 
	C189.654068,141.182220 184.627487,145.319138 185.616653,153.236923 
	C186.445465,159.871384 191.486740,162.104111 195.804001,165.261490 
	C198.396164,167.157227 201.240860,168.764328 201.288422,172.445343 
	C201.334030,175.976578 203.319550,177.366623 206.478790,178.016220 
	C212.973038,179.351593 219.391251,178.562271 225.828751,177.669250 
	C229.699875,177.132233 233.103943,175.179382 234.905029,172.059387 
	C237.269379,167.963654 240.992920,166.531143 244.857895,165.290970 
	C250.559158,163.461609 251.982117,158.289352 253.308670,153.839783 
	C254.618591,149.446045 253.965820,144.405197 248.026779,142.467422 
	C249.138702,139.398666 249.459793,136.710724 246.716797,134.610458 
	C243.089203,131.832855 240.355057,134.259399 237.241287,136.738983 
	C236.696991,132.838043 238.731293,131.309616 241.163345,130.056549 
	C244.618637,128.276260 243.783386,126.623268 240.894302,125.372002 
	C239.309967,124.685829 237.469681,124.230133 237.440903,122.282448 
	C237.384430,118.463066 234.304855,117.221397 231.851410,115.917130 
	C229.506485,114.670570 227.271072,113.412407 225.119110,111.837448 
	C223.347458,110.540817 220.805618,108.699989 219.006851,111.392288 
	C217.348969,113.873726 220.183975,115.065971 221.635406,116.505280 
	C221.867325,116.735252 222.183701,116.880051 223.052734,117.456978 
M477.452240,279.930603 
	C476.740051,287.938782 477.719696,296.084351 476.074188,304.016754 
	C475.619049,304.008514 475.163879,304.000275 474.708740,303.992004 
	C474.708740,293.851990 474.708740,283.711975 474.708740,273.371094 
	C472.646881,273.921448 472.805908,275.104218 472.582581,275.971283 
	C471.800140,279.009186 472.327606,282.500916 470.320282,285.077209 
	C466.893127,289.475769 465.390259,294.570801 464.700256,299.852051 
	C462.141174,319.438690 458.166016,338.904175 459.456390,358.847351 
	C459.752075,363.417236 461.515442,365.061493 466.075500,364.123108 
	C472.275696,362.847168 478.465424,361.284302 484.850922,361.807190 
	C489.288910,362.170563 490.369202,360.089783 490.021759,356.158478 
	C489.479919,350.027344 488.944427,343.882782 488.777527,337.733826 
	C488.285675,319.610382 488.013000,301.481140 487.573059,283.356140 
	C487.439789,277.866211 487.107666,272.378296 486.739777,266.897980 
	C486.502228,263.358673 484.264191,261.221558 480.911682,261.273376 
	C477.027985,261.333374 478.239838,264.756317 478.081696,267.025818 
	C477.804138,271.009674 477.716644,275.006836 477.452240,279.930603 
M433.242554,98.359749 
	C433.401825,100.871078 431.810760,104.912476 436.885773,103.631798 
	C441.725342,102.410530 444.855530,104.527344 446.676361,108.350487 
	C448.001282,111.132385 449.656738,111.670563 452.386261,111.933899 
	C457.143311,112.392838 462.053864,112.774429 465.702026,116.649910 
	C468.527832,119.651825 469.223633,123.221916 469.294159,127.194054 
	C469.390289,132.605927 470.884277,133.396790 475.477753,130.905212 
	C477.378876,129.874008 479.279877,128.842529 481.188354,127.825142 
	C489.756165,123.257729 491.422852,117.661812 486.564362,109.479156 
	C485.709473,108.039406 485.671753,106.649223 486.213226,105.191154 
	C487.986481,100.415878 486.491913,96.515594 483.375275,92.771370 
	C480.346191,89.132416 476.892853,86.099945 472.843231,83.697113 
	C467.188446,80.341812 461.206024,77.610031 457.477753,71.547752 
	C455.453308,68.255974 451.284180,67.091682 447.508331,66.374649 
	C442.894714,65.498535 439.037933,66.875504 436.301117,71.053047 
	C433.878021,74.751709 431.974762,78.283638 435.588165,82.310608 
	C436.407349,83.223579 436.980927,84.897369 436.054840,85.486855 
	C431.060150,88.666069 433.135284,93.269424 433.242554,98.359749 
M234.061417,231.893539 
	C231.433792,232.035141 228.777817,233.060272 226.058884,231.517456 
	C232.602692,229.548782 239.133087,227.752701 244.775131,223.857773 
	C246.544968,222.635986 248.654739,221.481003 248.022537,218.803268 
	C247.393784,216.140167 245.000504,215.850235 242.865051,215.697403 
	C234.162857,215.074600 227.719437,210.705383 222.541672,203.975708 
	C220.821823,201.740372 218.842545,199.691895 216.864243,197.673264 
	C215.795151,196.582397 214.256012,195.543304 212.944290,197.010544 
	C210.067398,200.228409 207.984024,199.127899 205.638382,196.350708 
	C204.075912,194.500748 201.878281,195.040283 200.226883,196.329559 
	C198.547501,197.640686 199.250473,199.277618 200.397934,200.701385 
	C200.907120,201.333191 201.588196,201.886398 201.392410,202.845627 
	C192.310089,208.227905 192.182343,214.142303 201.039017,219.205795 
	C199.505951,224.816757 199.481979,224.853653 204.352097,228.017471 
	C205.174332,228.551636 205.468216,229.077347 205.494156,229.977142 
	C205.592392,233.382401 207.442871,234.562195 210.724777,234.338196 
	C213.825546,234.126556 215.855667,235.376938 217.151855,238.593140 
	C219.503860,244.429108 226.205887,247.025055 232.133087,244.914886 
	C233.625549,244.383530 235.199539,244.171478 236.410721,245.250122 
	C242.307541,250.501694 248.322906,247.199707 254.269302,245.533432 
	C255.711594,245.129303 256.869659,243.976440 256.243225,242.078400 
	C254.750443,240.423721 252.337662,241.242783 250.738434,240.022842 
	C248.924881,238.639450 246.485962,237.603867 246.539368,234.831406 
	C246.593399,232.027359 248.833664,231.012329 251.027435,230.069550 
	C252.596039,229.395416 255.191711,229.284348 253.949738,226.588989 
	C252.923813,224.362503 250.906403,225.286148 249.128860,225.836182 
	C244.193741,227.363297 240.001938,230.701126 234.061417,231.893539 
M425.809540,348.316315 
	C424.177368,349.734955 422.528625,351.135010 420.915955,352.575470 
	C413.542725,359.161377 404.952759,363.930573 396.505219,368.905823 
	C393.671936,370.574432 392.230713,372.898529 393.769012,375.948761 
	C395.381958,379.146973 398.304321,378.847992 401.144592,377.652466 
	C403.896606,376.494080 406.674866,375.361572 409.305725,373.962250 
	C411.930969,372.565826 414.381378,372.301971 417.333588,373.801849 
	C413.043610,378.853882 406.727478,379.810638 401.715027,383.137939 
	C404.545013,388.560120 408.563721,387.009857 412.201721,385.575348 
	C426.357269,379.993591 437.458893,370.302002 447.074829,358.807587 
	C450.427612,354.799835 450.428375,349.026733 447.221954,345.258698 
	C440.003204,355.089203 431.687439,363.722290 421.677246,371.035797 
	C420.532684,370.070587 419.350098,369.073303 418.204834,368.107513 
	C419.129822,366.004089 420.851288,365.174622 422.284454,364.110138 
	C428.204651,359.712891 433.293488,354.469818 437.956085,348.805481 
	C439.290314,347.184540 441.167358,345.101807 438.910309,343.153656 
	C436.681458,341.229858 433.817505,340.477509 431.208374,342.824127 
	C429.479492,344.379059 427.922180,346.124756 425.809540,348.316315 
M315.978668,209.855713 
	C314.058167,209.150238 312.418610,209.728882 310.838959,210.871628 
	C309.731903,211.672501 308.298035,212.434357 307.195831,211.285522 
	C303.975677,207.929199 300.059021,209.241318 296.355194,209.477097 
	C287.708221,210.027527 278.960846,210.273773 274.904968,220.318390 
	C273.787689,223.085388 272.411835,225.688400 274.230011,228.239151 
	C276.171692,230.963196 278.735016,228.726059 281.064178,228.286987 
	C286.234192,227.312408 291.258209,224.551056 297.083130,226.430344 
	C295.569366,230.472443 293.691650,233.883591 293.443695,237.739792 
	C293.180542,241.833069 295.273438,243.441528 298.973145,241.802765 
	C302.397278,240.286057 306.341156,239.071075 306.748535,234.301636 
	C306.843475,233.190033 307.613831,232.272720 308.599731,232.187744 
	C314.943878,231.640961 317.750458,226.759033 320.994812,222.353134 
	C326.060303,215.474091 325.055695,212.548889 315.978668,209.855713 
M248.208450,168.655884 
	C242.824753,174.743973 236.805313,179.793320 228.496048,181.437149 
	C225.883652,181.953949 224.288666,183.984924 226.749512,185.991043 
	C232.338287,190.547089 237.332062,196.976776 246.109955,194.279770 
	C247.171204,193.953690 247.988678,194.650131 248.847809,195.171677 
	C255.029068,198.924011 258.062958,198.286469 263.313629,193.362839 
	C267.702209,189.247604 268.281647,183.309128 271.293945,178.567657 
	C272.293304,176.994675 270.836517,175.746735 269.332275,175.172684 
	C267.629791,174.522949 265.813354,173.521866 264.111023,173.636108 
	C257.369080,174.088531 257.129639,169.624939 256.857330,164.852631 
	C256.729218,162.607239 257.806549,159.965240 255.239960,157.788727 
	C252.794785,161.390900 251.674866,165.379425 248.208450,168.655884 
M416.588531,303.072693 
	C422.325592,297.636658 429.793243,293.900116 433.240692,285.945251 
	C419.073975,292.619293 406.536774,303.009949 389.971375,303.349670 
	C394.828339,301.555145 399.685333,299.760620 404.542328,297.966095 
	C399.645844,297.261292 394.951752,297.170074 390.262878,297.287689 
	C385.833496,297.398773 381.127258,297.408203 382.725952,304.214722 
	C382.800507,304.532227 382.400909,305.153839 382.059662,305.347595 
	C376.387939,308.567780 378.103821,314.292847 377.584839,319.123474 
	C377.344391,321.361420 378.641418,323.383789 381.713409,322.437286 
	C386.779907,320.876221 392.168732,319.961304 396.678680,317.181824 
	C399.665222,315.341187 401.470490,315.434631 403.063965,318.350769 
	C405.506744,317.340881 407.763000,315.390625 407.934204,313.910553 
	C408.554871,308.544861 412.967041,306.654266 416.588531,303.072693 
M458.030975,256.328522 
	C455.552368,254.348969 454.317657,255.716141 453.982666,258.108521 
	C452.878143,265.996643 450.066681,273.606415 450.129242,281.678497 
	C450.157867,285.375122 449.531342,288.599854 447.189148,291.878784 
	C441.648926,299.634918 443.370911,303.546692 452.394226,305.388763 
	C453.208313,305.554962 454.031494,305.675812 454.848419,305.828491 
	C458.070953,306.430786 459.763641,305.234192 460.400177,301.872375 
	C462.966858,288.317505 464.615204,274.676392 464.760468,260.872803 
	C464.777161,259.289490 465.225281,257.036652 463.032013,256.750641 
	C460.445465,256.413361 460.553772,258.923401 460.189026,260.599609 
	C458.175354,269.853546 456.263184,279.129639 454.229736,288.379150 
	C453.620483,291.150482 453.635559,294.191406 451.195953,297.221008 
	C450.529877,293.245209 450.945892,290.191772 451.640106,287.103027 
	C453.894073,277.074921 456.060333,267.027100 458.030975,256.328522 
M497.489990,327.583038 
	C497.350922,337.206665 497.417023,346.837738 498.987274,356.351471 
	C499.931366,362.071442 500.793213,362.039886 506.355743,360.981934 
	C510.317230,360.228485 512.809387,356.344360 517.055786,356.944305 
	C516.961670,347.058868 513.644226,341.068024 508.147308,341.000732 
	C505.438873,329.933807 500.556488,319.484650 498.051941,308.188080 
	C496.412354,314.445862 497.216980,320.638336 497.489990,327.583038 
M445.435272,137.233566 
	C446.632080,141.227982 449.169312,142.453873 453.091736,141.042358 
	C454.494629,140.537552 455.961548,140.173523 457.426880,139.886398 
	C462.023804,138.985641 464.968109,135.704926 466.012451,131.758713 
	C467.158508,127.428131 465.111084,123.180504 461.704865,120.142792 
	C457.545074,116.432968 453.451019,117.751091 452.376678,123.145050 
	C451.833832,125.870461 450.648041,127.488937 448.155182,128.750626 
	C445.049500,130.322479 442.561981,132.598236 445.435272,137.233566 
M584.887146,355.634430 
	C573.969299,359.701202 562.807495,356.845184 551.670776,356.531372 
	C552.323059,357.411011 553.003662,357.837677 553.734375,358.145325 
	C561.196045,361.286926 569.231262,361.559509 577.084167,362.522034 
	C585.966919,363.610809 594.602112,362.107819 602.793945,358.347260 
	C606.014465,356.868835 606.707703,354.252533 605.516296,351.334991 
	C604.085510,347.831360 601.376221,349.411530 599.238586,350.528656 
	C594.927612,352.781464 590.311035,354.085114 584.887146,355.634430 
M570.107666,235.699875 
	C572.476135,234.700089 573.512756,232.987381 572.494751,230.527328 
	C571.504395,228.134064 570.024536,225.998108 567.033447,226.220749 
	C563.896179,226.454254 562.070496,225.431976 561.237488,222.199158 
	C560.666931,219.985016 559.122070,218.392746 556.123291,219.858948 
	C556.868713,224.223373 554.751953,227.776169 552.629822,231.354385 
	C551.614685,233.066116 550.568359,234.817612 549.938782,236.686737 
	C548.867432,239.867767 550.995544,245.806168 553.439758,246.264832 
	C556.965332,246.926422 559.103333,244.337128 559.271484,241.547699 
	C559.550293,236.921494 561.292969,235.694260 565.575928,236.747955 
	C566.728394,237.031479 568.129822,236.302628 570.107666,235.699875 
M547.506836,302.099152 
	C547.379395,302.174988 547.251892,302.250824 547.124390,302.326630 
	C547.206421,302.457184 547.257324,302.650238 547.375183,302.708923 
	C549.301392,303.668365 551.168091,304.596893 553.484802,304.485199 
	C561.604492,304.093597 569.744446,304.039734 577.848755,303.464264 
	C580.157166,303.300354 582.555847,302.420715 581.972412,298.630981 
	C581.456116,295.277771 581.257202,292.627075 576.907715,293.191956 
	C573.785156,293.597504 570.649963,294.075562 567.511169,294.154968 
	C556.789490,294.426239 546.046936,293.998352 534.542297,295.156830 
	C547.485840,300.641052 560.436462,299.672211 573.312317,299.629761 
	C565.036377,303.466705 556.412170,301.412292 547.506836,302.099152 
M576.116394,330.615845 
	C584.152039,329.740265 591.829834,327.648621 599.514160,324.400726 
	C597.655151,320.341370 594.783691,320.744629 592.034729,321.395203 
	C578.132935,324.685120 564.133118,325.430725 549.963074,323.507385 
	C547.997009,323.240540 545.709473,322.606659 543.021667,324.986359 
	C553.558289,330.579712 564.466736,330.183105 576.116394,330.615845 
M554.710571,337.850281 
	C568.533569,340.841003 582.222839,342.376862 595.938110,334.879456 
	C590.809448,330.800537 555.757874,332.289307 550.754700,336.041992 
	C551.183960,337.766327 552.671326,337.570557 554.710571,337.850281 
M519.583130,297.829956 
	C518.436646,296.418640 517.299194,294.487366 515.177673,295.709045 
	C513.371033,296.749390 514.164307,298.722260 514.677856,300.239899 
	C515.641479,303.087555 515.274963,305.764832 514.309448,308.516327 
	C513.310608,311.362915 512.795166,314.345703 513.269714,317.352997 
	C513.675720,319.925751 514.800049,322.723724 517.669617,322.614929 
	C521.619751,322.465179 524.733398,319.788635 527.233643,316.918213 
	C529.267334,314.583435 527.958923,311.790405 526.699585,309.495819 
	C524.627197,305.719940 522.232605,302.120941 519.583130,297.829956 
M261.654907,276.891785 
	C256.359406,273.319702 254.477722,267.093658 250.477875,262.514313 
	C249.319046,261.187622 248.351639,258.991394 246.209503,260.007050 
	C244.083099,261.015228 244.153641,263.258514 244.861572,265.248291 
	C247.320450,272.159485 250.471344,278.994751 245.836441,286.634125 
	C252.288040,287.088745 256.978790,284.430206 261.494537,281.365417 
	C262.942963,280.382416 263.050537,278.922180 261.654907,276.891785 
M185.958221,195.477982 
	C183.699249,199.895889 181.784790,204.264465 183.445877,209.520370 
	C183.976456,211.199249 182.490158,213.680756 185.063004,214.572250 
	C187.795151,215.518951 189.738663,213.595703 190.647751,211.542343 
	C192.511337,207.333099 194.408203,202.972351 195.139679,198.486206 
	C195.632370,195.464600 194.912872,191.136566 191.562347,189.965866 
	C188.761429,188.987213 187.494507,192.523636 185.958221,195.477982 
M178.605896,229.924316 
	C178.050415,227.224274 177.494934,224.524246 176.939438,221.824203 
	C173.597778,232.457108 169.838730,242.856018 170.574371,254.288498 
	C178.423218,252.528275 181.604446,247.726425 180.305634,240.586746 
	C179.712097,237.323990 178.482849,234.170868 178.605896,229.924316 
M219.379196,252.497543 
	C219.253433,254.499649 221.020264,256.030731 220.538223,258.223969 
	C219.076843,264.873260 222.553177,271.167511 222.147781,277.793488 
	C222.007584,280.084747 222.996490,282.262268 225.820358,282.070435 
	C228.784363,281.869080 228.748642,279.390045 228.794891,277.211761 
	C228.972473,268.850739 227.294449,260.773224 224.938690,252.813324 
	C223.830154,249.067703 221.818985,249.621078 219.379196,252.497543 
M388.901398,284.695038 
	C395.713562,285.181671 402.668488,281.717743 409.410034,285.475098 
	C409.980133,285.792816 411.919708,285.072296 412.027405,284.575134 
	C412.850647,280.774750 416.863770,280.629547 419.274872,278.323364 
	C418.505646,277.981171 418.078522,277.622131 417.656677,277.628296 
	C407.549713,277.775482 397.442566,277.929962 387.337402,278.166534 
	C385.178833,278.217072 383.990784,279.606384 383.936035,281.723206 
	C383.861267,284.613434 385.988617,284.690338 388.901398,284.695038 
M543.042908,310.467377 
	C553.274475,313.656525 564.640015,312.453461 568.225342,307.138153 
	C553.848145,307.870667 540.429993,304.825714 527.122559,300.893799 
	C530.987976,306.427917 536.781433,308.068634 543.042908,310.467377 
M573.281921,350.867157 
	C577.405823,350.590668 581.677551,350.793365 584.982971,346.850372 
	C572.117432,346.548004 559.442993,345.631195 546.964478,342.944397 
	C546.038696,342.745056 545.066162,343.486206 544.899231,345.426758 
	C552.873657,352.128571 562.736755,350.954498 573.281921,350.867157 
M470.745575,186.365570 
	C472.455048,183.267303 470.198608,180.341248 470.170990,177.283569 
	C470.151276,175.100128 466.921844,174.931961 464.920746,174.331711 
	C463.268311,173.836029 461.908875,174.617859 461.319824,176.183487 
	C459.871735,180.032227 458.337311,183.874207 457.284149,187.837540 
	C456.463745,190.924911 457.814697,192.499252 461.334503,193.052292 
	C466.597290,193.879181 468.107147,190.086212 470.745575,186.365570 
M568.396118,279.486572 
	C567.737732,279.433533 567.079224,279.381226 566.420898,279.327332 
	C558.034607,278.640747 549.639954,281.928925 541.216919,279.125305 
	C539.050476,278.404175 538.131531,280.292603 537.633179,282.080170 
	C538.977905,283.838654 540.713135,284.547668 542.522644,284.642975 
	C549.472656,285.008850 556.483521,285.665222 563.224060,283.242737 
	C565.276733,282.505066 568.483704,283.469208 568.396118,279.486572 
M167.989624,397.629395 
	C167.256226,397.300598 166.400177,396.539764 165.807861,396.707886 
	C157.103973,399.179077 148.942657,397.541962 141.268158,393.445831 
	C139.924576,394.672821 140.061279,396.028992 140.971115,396.726288 
	C144.644058,399.541199 148.768860,402.454987 153.271011,402.356537 
	C156.105667,402.294525 158.310806,402.168274 160.964981,403.478241 
	C163.931534,404.942383 166.316711,401.706818 169.134430,401.015869 
	C170.221832,400.749207 169.175934,399.009521 167.989624,397.629395 
M429.028656,254.728119 
	C430.993774,254.525970 432.960327,254.143066 434.923767,254.158417 
	C439.320007,254.192825 441.382446,251.318924 442.938660,247.900177 
	C444.127441,245.288666 443.109192,243.585129 440.208771,243.670395 
	C435.110840,243.820221 430.576874,245.297302 427.154175,249.498062 
	C425.161560,251.943680 425.141907,253.517410 429.028656,254.728119 
M585.579956,313.035828 
	C578.137573,315.633362 570.969482,318.999725 563.130859,320.747864 
	C571.308838,322.157349 579.236755,321.947754 586.967896,319.400604 
	C588.506897,318.893585 591.167114,319.199921 590.974243,316.591431 
	C590.786621,314.054321 588.781982,313.086090 585.579956,313.035828 
M554.500916,266.219147 
	C550.206360,268.606079 545.138245,268.278442 540.593018,270.335876 
	C548.199829,272.038635 555.749207,272.640411 563.187378,270.114655 
	C565.259460,269.411041 564.926575,267.509705 563.481018,266.084808 
	C560.789429,263.431610 558.003845,264.601715 554.500916,266.219147 
M156.605804,131.115707 
	C155.056747,128.146301 151.892609,127.628319 149.222992,126.602112 
	C147.107803,125.789024 143.432144,129.625641 143.880875,131.760757 
	C144.199753,133.277985 151.593750,138.894211 153.246887,138.551468 
	C156.972061,137.779205 156.321838,134.479370 156.605804,131.115707 
M534.678589,255.530060 
	C537.485779,252.841751 541.928894,254.603928 544.701355,251.325272 
	C536.809631,251.325272 528.917908,251.325272 521.026245,251.325272 
	C524.769897,255.257462 529.212524,255.847931 534.678589,255.530060 
M252.865967,127.164162 
	C250.024323,133.505493 251.307068,138.565094 256.932281,141.676529 
	C256.692261,137.488861 256.592041,133.548630 256.174957,129.642242 
	C256.027252,128.259140 256.153656,125.912979 252.865967,127.164162 
M124.539268,129.948608 
	C128.803925,128.699539 130.736038,133.514236 134.631866,133.677872 
	C132.267273,130.211945 129.679871,126.842606 125.949760,125.130272 
	C123.813980,124.149818 119.998085,123.981361 119.191322,126.944672 
	C118.455330,129.648041 121.528053,129.879669 124.539268,129.948608 
M531.612183,236.707169 
	C530.934814,237.331543 529.778503,237.683594 530.447998,239.389313 
	C533.234863,239.081177 536.167297,238.956421 539.006042,238.374863 
	C540.991821,237.968063 542.138062,236.369797 541.463257,234.264542 
	C540.685913,231.839462 538.819824,232.109360 537.071045,233.090988 
	C535.360718,234.050980 533.775757,235.234131 531.612183,236.707169 
M492.525177,348.101776 
	C493.215179,352.517365 493.905212,356.932922 494.595245,361.348511 
	C495.820343,353.725891 495.008453,346.364166 493.828156,337.997711 
	C492.167725,341.734650 492.353394,344.533417 492.525177,348.101776 
M134.329727,389.590485 
	C133.061325,388.086090 134.437393,386.824982 134.645248,385.432617 
	C135.070221,382.585815 134.951462,379.851440 130.679550,378.406677 
	C130.669800,382.024200 129.644058,385.041595 130.968353,388.065399 
	C131.578278,389.458038 131.849869,391.948273 134.329727,389.590485 
M389.340729,287.095642 
	C388.214874,287.306976 386.897125,287.332611 387.488586,289.572754 
	C392.274261,290.370911 396.932556,289.598633 402.390839,287.778137 
	C397.773163,284.969177 393.862823,287.930786 389.340729,287.095642 
M402.136230,257.476837 
	C404.165680,257.781738 406.426300,258.746185 407.531830,255.486542 
	C404.596405,253.865143 401.906158,252.144653 398.537872,254.031052 
	C398.570892,256.262634 399.985291,256.772675 402.136230,257.476837 
M462.811951,197.387314 
	C463.994354,200.569885 468.654510,200.928802 472.147339,197.930038 
	C469.350983,195.631378 466.413269,195.904037 462.811951,197.387314 
M429.060303,388.269318 
	C431.422272,386.908264 434.071075,385.744202 433.585663,382.064209 
	C430.679474,382.253296 429.034454,384.007172 427.424469,385.593048 
	C426.146240,386.852173 425.754608,388.321228 429.060303,388.269318 
M240.081894,201.963196 
	C240.797836,202.337906 241.484634,202.790787 242.235840,203.070969 
	C243.769302,203.642914 245.571838,204.412704 246.373535,202.254410 
	C246.967331,200.655853 245.463928,199.601028 244.244568,199.691147 
	C242.629639,199.810516 239.487900,197.001907 240.081894,201.963196 
M453.066254,312.345581 
	C454.517731,312.573090 456.062225,312.968201 456.176178,310.435791 
	C454.550690,309.298279 452.879150,308.791016 451.015228,309.724884 
	C450.650299,311.250610 451.705963,311.578918 453.066254,312.345581 
z"/>
<path fill="#000000" opacity="1.000000" stroke="none" 
	d="
M223.954346,154.309692 
	C229.346924,151.633957 234.608383,149.338943 239.873795,147.052994 
	C242.041412,146.111954 242.898300,147.632874 243.628113,149.169678 
	C245.640701,153.407639 246.352310,157.323013 243.040009,161.635666 
	C240.055588,165.521362 236.661606,165.792969 232.535141,164.914017 
	C227.720444,163.888458 224.378494,161.427551 223.825531,156.177979 
	C223.774002,155.688736 223.822647,155.188950 223.954346,154.309692 
z"/>
<path fill="#000000" opacity="1.000000" stroke="none" 
	d="
M205.909058,148.060730 
	C208.181000,147.499985 208.548904,145.707901 209.489243,144.376801 
	C212.536102,140.063690 217.185104,139.796524 220.433929,143.664337 
	C219.881088,145.049484 218.775955,144.440903 217.887405,144.287186 
	C214.197449,143.648819 211.990631,144.822617 212.071075,148.892075 
	C212.136627,152.207138 209.832687,153.589447 207.255630,153.288589 
	C204.263916,152.939316 204.689804,150.439880 205.909058,148.060730 
z"/>
<path fill="#000000" opacity="1.000000" stroke="none" 
	d="
M207.129395,134.752258 
	C207.852768,137.859909 206.208618,138.629242 203.930145,138.346054 
	C202.418869,138.158234 201.637375,136.855118 202.251373,135.426346 
	C203.275681,133.042755 205.029846,132.990494 207.129395,134.752258 
z"/>
<path fill="#000000" opacity="1.000000" stroke="none" 
	d="
M234.883270,143.725388 
	C234.894272,147.853378 230.795319,145.459610 229.522461,148.206497 
	C228.784378,143.684402 229.900116,142.830231 234.883270,143.725388 
z"/>
<path fill="#000000" opacity="1.000000" stroke="none" 
	d="
M461.373169,101.527634 
	C464.433624,101.197762 464.546356,103.140564 464.392303,104.973854 
	C464.213165,107.105255 463.735596,109.339127 461.493958,110.276237 
	C459.663452,111.041473 458.653320,109.766235 458.469238,108.127411 
	C458.183472,105.583145 458.735779,103.240028 461.373169,101.527634 
z"/>
<path fill="#000000" opacity="1.000000" stroke="none" 
	d="
M464.588318,91.803413 
	C467.142456,91.073975 468.430450,92.143532 469.017059,94.151512 
	C469.383575,95.406250 468.793701,96.467110 467.687897,97.081612 
	C466.418854,97.786797 465.083374,97.730682 464.028809,96.656059 
	C462.457092,95.054436 462.552917,93.443687 464.588318,91.803413 
z"/>
<path fill="#000000" opacity="1.000000" stroke="none" 
	d="
M387.874329,347.151398 
	C390.642578,345.899231 393.160156,344.839813 396.941711,343.248535 
	C394.229858,347.261200 391.249054,348.251770 388.200775,348.923309 
	C387.144073,349.156097 386.962677,348.202301 387.874329,347.151398 
z"/>
</svg>