<svg xmlns="http://www.w3.org/2000/svg" data-name="Layer 1" viewBox="0 0 35 35" id="wedding-bouquet"><path fill="#fff" fill-rule="evenodd" d="M13.06 11.72A10.78 10.78 0 0 0 4.27 11 22.26 22.26 0 0 0 13.8 21.29h7.4A22.26 22.26 0 0 0 30.73 11a10.78 10.78 0 0 0-8.79.69A12 12 0 0 0 13.06 11.72zM17.5 23.88h3.78c.91 2.49 3.29 6.64 1.56 8.1S19 31.72 17.5 30.51C16 31.72 13.79 33.35 12.16 32s.65-5.61 1.56-8.1z"></path><path fill="#4d4d4d" d="M17.5 31a.47.47 0 0 1-.35-.14 17.7 17.7 0 0 1-2.25-2.66.5.5 0 1 1 .81-.59 17.09 17.09 0 0 0 2.14 2.54.49.49 0 0 1 0 .7A.51.51 0 0 1 17.5 31zM17.5 17.4A.51.51 0 0 1 17 17c-.32-1.55-1.66-3.1-4.23-4.87a.5.5 0 0 1 .56-.82C16.14 13.23 17.62 15 18 16.8a.51.51 0 0 1-.39.59zM24.23 14a.51.51 0 0 1-.34-.14 20.63 20.63 0 0 0-2.24-1.76.5.5 0 0 1-.12-.69.49.49 0 0 1 .69-.13 21.43 21.43 0 0 1 2.35 1.85.51.51 0 0 1 0 .71A.54.54 0 0 1 24.23 14z"></path><path fill="#fa8890" fill-rule="evenodd" d="M17.5,5.59a6.35,6.35,0,0,1,3.81-3.06c.06,4.55-1.27,7.25-3.81,8.33C15,9.78,13.63,7.08,13.69,2.53A6.35,6.35,0,0,1,17.5,5.59Z"></path><path fill="#4d4d4d" d="M17.5,11.36a.48.48,0,0,1-.2,0c-2.79-1.18-4.17-4.14-4.11-8.8a.49.49,0,0,1,.19-.39A.52.52,0,0,1,13.81,2,7.15,7.15,0,0,1,17.5,4.61,7.15,7.15,0,0,1,21.19,2a.52.52,0,0,1,.43.09.49.49,0,0,1,.19.39c.06,4.66-1.32,7.62-4.11,8.8A.48.48,0,0,1,17.5,11.36ZM14.19,3.23c.08,3.7,1.19,6.08,3.31,7.08,2.12-1,3.23-3.38,3.31-7.08A5.78,5.78,0,0,0,18,5.81a.52.52,0,0,1-.9,0A5.78,5.78,0,0,0,14.19,3.23Z"></path><path fill="#4d4d4d" d="M16.41,9.92l-1-.2a13,13,0,0,1,1.65-4.39.5.5,0,1,1,.84.53A12.5,12.5,0,0,0,16.41,9.92Z"></path><path fill="#fa8890" fill-rule="evenodd" d="M8.56,6.17A5.85,5.85,0,0,1,11,2.5c1.23,3.79.83,6.45-1,8.09C7.53,10.42,5.71,8.53,4.56,4.7A5.36,5.36,0,0,1,8.56,6.17Z"></path><path fill="#4d4d4d" d="M10,11.09h0C7.23,10.9,5.27,8.8,4.08,4.84a.48.48,0,0,1,.07-.42.5.5,0,0,1,.38-.22A6.13,6.13,0,0,1,8.27,5.26a6.57,6.57,0,0,1,2.41-3.18A.52.52,0,0,1,11.12,2a.48.48,0,0,1,.31.31c1.28,3.91.89,6.81-1.15,8.62A.51.51,0,0,1,10,11.09ZM5.25,5.21c1,3,2.51,4.62,4.52,4.86,1.49-1.45,1.79-3.65.92-6.72A5.19,5.19,0,0,0,9.06,6.24a.5.5,0,0,1-.86.27A4.79,4.79,0,0,0,5.25,5.21Z"></path><path fill="#4d4d4d" d="M7.85,10.22A12.12,12.12,0,0,1,8.08,6a.49.49,0,0,1,.61-.35.5.5,0,0,1,.36.61,11,11,0,0,0-.21,3.79l-.49.09Z"></path><path fill="#fa8890" fill-rule="evenodd" d="M26.44,6.17A5.8,5.8,0,0,0,24.05,2.5c-1.24,3.79-.84,6.45,1,8.09,2.41-.17,4.24-2.06,5.38-5.89A5.39,5.39,0,0,0,26.44,6.17Z"></path><path fill="#4d4d4d" d="M25.06,11.09a.51.51,0,0,1-.33-.13c-2-1.81-2.43-4.71-1.16-8.62A.5.5,0,0,1,23.88,2a.55.55,0,0,1,.45.05,6.63,6.63,0,0,1,2.41,3.18A6.13,6.13,0,0,1,30.48,4.2a.5.5,0,0,1,.38.22.48.48,0,0,1,.06.42c-1.18,4-3.14,6.06-5.83,6.24Zm-.75-7.74c-.87,3.07-.56,5.27.92,6.72,2-.24,3.5-1.84,4.53-4.86a4.77,4.77,0,0,0-3,1.3.53.53,0,0,1-.52.14A.5.5,0,0,1,26,6.23,5.27,5.27,0,0,0,24.31,3.35Z"></path><path fill="#4d4d4d" d="M26.65,10.65h0a.47.47,0,0,1-.46-.5A11,11,0,0,0,26,6.3a.5.5,0,0,1,.35-.61.48.48,0,0,1,.61.35,11.57,11.57,0,0,1,.24,4.11A.53.53,0,0,1,26.65,10.65Z"></path><path fill="#e6e6e6" fill-rule="evenodd" d="M28.73,10.56c-2.11,4.44-7,9.33-11.23,10.73h3.7A22.26,22.26,0,0,0,30.73,11,15.67,15.67,0,0,0,28.73,10.56Z"></path><path fill="#4d4d4d" d="M21.2,21.79H13.8a.43.43,0,0,1-.25-.07,26.68,26.68,0,0,1-5.22-3.95.5.5,0,0,1,.7-.72,25.59,25.59,0,0,0,4.91,3.74h7.12a21.77,21.77,0,0,0,9-9.44,10.11,10.11,0,0,0-7.86.81.51.51,0,0,1-.45,0,11.45,11.45,0,0,0-8.46,0,.51.51,0,0,1-.45,0A10.16,10.16,0,0,0,5,11.35a19.91,19.91,0,0,0,2,3.31.51.51,0,0,1-.11.7.5.5,0,0,1-.7-.11,20.94,20.94,0,0,1-2.33-4,.47.47,0,0,1,0-.4.49.49,0,0,1,.31-.27,11.19,11.19,0,0,1,9,.61,12.52,12.52,0,0,1,8.84,0,11.2,11.2,0,0,1,9-.61.49.49,0,0,1,.31.27.47.47,0,0,1,0,.4,22.6,22.6,0,0,1-9.74,10.49A.43.43,0,0,1,21.2,21.79Z"></path><path fill="#e6e6e6" fill-rule="evenodd" d="M19.39,23.88C20.3,26.37,23,31,21.3,32.42l-.09.07A2.16,2.16,0,0,0,22.84,32c1.73-1.46-.65-5.61-1.56-8.1Z"></path><path fill="#4d4d4d" d="M13.58,33a2.64,2.64,0,0,1-1.74-.65c-1.66-1.4-.39-4.37.73-7,.26-.6.5-1.17.68-1.68a.51.51,0,0,1,.47-.32h7.56a.51.51,0,0,1,.47.32c.18.51.42,1.07.68,1.67,1.12,2.62,2.39,5.59.73,7-1.88,1.59-4.3-.12-5.66-1.21C16.53,31.92,15,33,13.58,33Zm.49-8.63c-.17.43-.37.9-.58,1.39-.89,2.07-2.1,4.9-1,5.83,1.25,1,3.08-.16,4.71-1.48a.51.51,0,0,1,.62,0c1.63,1.32,3.46,2.53,4.71,1.48,1.09-.93-.12-3.76-1-5.83-.21-.49-.41-1-.58-1.39Z"></path><g><path fill="#fa8890" fill-rule="evenodd" d="M13.78,21.29h7.44a1.29,1.29,0,0,1,1.29,1.29h0a1.3,1.3,0,0,1-1.29,1.3H13.78a1.3,1.3,0,0,1-1.29-1.3h0A1.29,1.29,0,0,1,13.78,21.29Z"></path><path fill="#4d4d4d" d="M21.22,24.38H13.78a1.8,1.8,0,0,1,0-3.59h7.44a1.8,1.8,0,0,1,0,3.59Zm-7.44-2.59a.8.8,0,0,0,0,1.59h7.44a.8.8,0,0,0,0-1.59Z"></path></g></svg>