<?xml version="1.0" encoding="iso-8859-1"?>
<!-- Uploaded to: SVG Repo, www.svgrepo.com, Generator: SVG Repo Mixer Tools -->
<svg version="1.1" id="Capa_1" xmlns="http://www.w3.org/2000/svg" xmlns:xlink="http://www.w3.org/1999/xlink" 
	 viewBox="0 0 481.51 481.51" xml:space="preserve">
<g>
	<g id="XMLID_1_">
		<g>
			<path style="fill:#7FDDD3;" d="M465.74,303.075c3.56,3.57,5.77,8.49,5.77,13.93c0,10.89-8.82,19.7-19.7,19.7h-45.9
				c0.12-1.43,0.18-2.88,0.18-4.35c0-13.46-5.07-25.75-13.4-35.05h56.55h2.57C457.25,297.305,462.17,299.515,465.74,303.075z"/>
			<path style="fill:#EFEF78;" d="M449.24,271.495v25.81h-56.55c-9.62-10.75-23.6-17.51-39.16-17.51
				c-29.03,0-52.56,23.53-52.56,52.56c0,1.47,0.06,2.92,0.18,4.35h-139.1c0.12-1.43,0.18-2.88,0.18-4.35
				c0-29.03-23.53-52.56-52.56-52.56c-15.56,0-29.54,6.76-39.15,17.51h-0.01H37c-0.74,0-1.47,0.04-2.19,0.12v-59.73
				c0-20.27,16.43-36.7,36.7-36.7h26.05h23.8h99.99h55.83h102.2c21.03,0,39.88,9.29,52.7,23.99c-11.15,2.51-19.48,12.48-19.48,24.38
				c0,13.81,11.19,25.01,25,25.01C441.81,274.375,445.77,273.335,449.24,271.495z M270.28,257.785c0-5.97-2.27-11.94-6.82-16.49
				c-4.55-4.55-10.52-6.83-16.48-6.83c-5.97,0-11.94,2.28-16.49,6.83c-9.1-9.1-23.86-9.1-32.96,0c-4.55,4.55-6.83,10.52-6.83,16.49
				c0,5.96,2.28,11.92,6.83,16.48l32.96,32.96l32.97-32.96C268.01,269.705,270.28,263.745,270.28,257.785z"/>
			<path style="fill:#F297D6;" d="M449.24,270.865v0.63c-3.47,1.84-7.43,2.88-11.64,2.88c-13.81,0-25-11.2-25-25.01
				c0-11.9,8.33-21.87,19.48-24.38C442.76,237.265,449.24,253.305,449.24,270.865z"/>
			<path style="fill:#7FDDD3;" d="M353.53,310.725c11.94,0,21.63,9.68,21.63,21.63c0,11.95-9.69,21.63-21.63,21.63
				c-11.95,0-21.63-9.68-21.63-21.63C331.9,320.405,341.58,310.725,353.53,310.725z"/>
			<path style="fill:#7FDDD3;" d="M234.31,96.595l42.87,104.4h-55.83c-7.12-26.58-5.83-54.98,4.13-81.17L234.31,96.595z"/>
			<path style="fill:#F297D6;" d="M263.46,241.295c4.55,4.55,6.82,10.52,6.82,16.49c0,5.96-2.27,11.92-6.82,16.48l-32.97,32.96
				l-32.96-32.96c-4.55-4.56-6.83-10.52-6.83-16.48c0-5.97,2.28-11.94,6.83-16.49c9.1-9.1,23.86-9.1,32.96,0
				c4.55-4.55,10.52-6.83,16.49-6.83C252.94,234.465,258.91,236.745,263.46,241.295z"/>
			<path style="fill:#7FDDD3;" d="M109.67,310.725c11.95,0,21.63,9.68,21.63,21.63c0,11.95-9.68,21.63-21.63,21.63
				c-11.94,0-21.63-9.68-21.63-21.63C88.04,320.405,97.73,310.725,109.67,310.725z"/>
			<polygon style="fill:#7FDDD3;" points="121.36,200.995 97.56,200.995 71.51,200.995 10,200.995 10,152.845 			"/>
			<path style="fill:#7FDDD3;" d="M37,297.305h33.51c-8.33,9.3-13.39,21.59-13.39,35.05c0,1.47,0.06,2.92,0.18,4.35H37
				c-5.45,0-10.37-2.21-13.93-5.77s-5.77-8.48-5.77-13.93c0-10.14,7.66-18.49,17.51-19.58C35.53,297.345,36.26,297.305,37,297.305z"
				/>
		</g>
		<g>
			<path style="fill:none;stroke:#000000;stroke-width:20;stroke-linejoin:round;stroke-miterlimit:10;" d="M221.35,200.995
				c-7.12-26.58-5.83-54.98,4.13-81.17l8.83-23.23l42.87,104.4"/>
			<path style="fill:none;stroke:#000000;stroke-width:20;stroke-linecap:round;stroke-linejoin:round;stroke-miterlimit:10;" d="
				M70.51,297.305c-8.33,9.3-13.39,21.59-13.39,35.05c0,1.47,0.06,2.92,0.18,4.35c2.21,27,24.82,48.21,52.37,48.21
				c27.56,0,50.17-21.21,52.38-48.21c0.12-1.43,0.18-2.88,0.18-4.35c0-29.03-23.53-52.56-52.56-52.56
				c-15.56,0-29.54,6.76-39.15,17.51"/>
			<path style="fill:none;stroke:#000000;stroke-width:20;stroke-linecap:round;stroke-linejoin:round;stroke-miterlimit:10;" d="
				M131.3,332.355c0-11.95-9.68-21.63-21.63-21.63c-11.94,0-21.63,9.68-21.63,21.63c0,11.95,9.69,21.63,21.63,21.63
				C121.62,353.985,131.3,344.305,131.3,332.355z"/>
			<path style="fill:none;stroke:#000000;stroke-width:20;stroke-linecap:round;stroke-linejoin:round;stroke-miterlimit:10;" d="
				M375.16,332.355c0-11.95-9.69-21.63-21.63-21.63c-11.95,0-21.63,9.68-21.63,21.63c0,11.95,9.68,21.63,21.63,21.63
				C365.47,353.985,375.16,344.305,375.16,332.355z"/>
			<path style="fill:none;stroke:#000000;stroke-width:20;stroke-linecap:round;stroke-linejoin:round;stroke-miterlimit:10;" d="
				M405.91,336.705c0.12-1.43,0.18-2.88,0.18-4.35c0-13.46-5.07-25.75-13.4-35.05c-9.62-10.75-23.6-17.51-39.16-17.51
				c-29.03,0-52.56,23.53-52.56,52.56c0,1.47,0.06,2.92,0.18,4.35c2.21,27,24.82,48.21,52.38,48.21
				C381.08,384.915,403.7,363.705,405.91,336.705z"/>
			<path style="fill:none;stroke:#000000;stroke-width:20;stroke-linejoin:round;stroke-miterlimit:10;" d="M97.56,200.995h23.8
				h99.99h55.83h102.2c21.03,0,39.88,9.29,52.7,23.99c10.68,12.28,17.16,28.32,17.16,45.88v0.63v25.81"/>
			<path style="fill:none;stroke:#000000;stroke-width:20;stroke-linejoin:round;stroke-miterlimit:10;" d="M34.81,297.425v-59.73
				c0-20.27,16.43-36.7,36.7-36.7"/>
			<path style="fill:none;stroke:#000000;stroke-width:20;stroke-linejoin:round;stroke-miterlimit:10;" d="M57.31,336.705H57.3H37
				c-5.45,0-10.37-2.21-13.93-5.77s-5.77-8.48-5.77-13.93c0-10.14,7.66-18.49,17.51-19.58c0.72-0.08,1.45-0.12,2.19-0.12h33.51h0.01
				"/>
			<polyline style="fill:none;stroke:#000000;stroke-width:20;stroke-linejoin:round;stroke-miterlimit:10;" points="
				301.16,336.705 301.15,336.705 162.05,336.705 			"/>
			<path style="fill:none;stroke:#000000;stroke-width:20;stroke-linejoin:round;stroke-miterlimit:10;" d="M392.69,297.305h56.55
				h2.57c5.44,0,10.36,2.21,13.93,5.77c3.56,3.57,5.77,8.49,5.77,13.93c0,10.89-8.82,19.7-19.7,19.7h-45.9h-0.01"/>
			<polyline style="fill:none;stroke:#000000;stroke-width:20;stroke-linejoin:round;stroke-miterlimit:10;" points="
				121.36,200.995 10,152.845 10,200.995 71.51,200.995 97.56,200.995 			"/>
			<path style="fill:none;stroke:#000000;stroke-width:20;stroke-linejoin:round;stroke-miterlimit:10;" d="M432.08,224.985
				c-11.15,2.51-19.48,12.48-19.48,24.38c0,13.81,11.19,25.01,25,25.01c4.21,0,8.17-1.04,11.64-2.88"/>
			<path style="fill:none;stroke:#000000;stroke-width:20;stroke-linejoin:round;stroke-miterlimit:10;" d="M230.49,241.295
				c-9.1-9.1-23.86-9.1-32.96,0c-4.55,4.55-6.83,10.52-6.83,16.49c0,5.96,2.28,11.92,6.83,16.48l32.96,32.96l32.97-32.96
				c4.55-4.56,6.82-10.52,6.82-16.48c0-5.97-2.27-11.94-6.82-16.49c-4.55-4.55-10.52-6.83-16.48-6.83
				C241.01,234.465,235.04,236.745,230.49,241.295z"/>
		</g>
	</g>
</g>
</svg>